<svg width="380" height="225" viewBox="0 0 380 225" fill="none" xmlns="http://www.w3.org/2000/svg">
<rect width="100" height="40" rx="4" fill="url(#paint0_linear_10459_149486)"/>
<circle cx="18.8824" cy="20" r="10.8824" fill="#244D68"/>
<rect x="42.0692" y="17.5" width="49.9308" height="5" rx="2.5" fill="#244D68"/>
<rect y="55" width="100" height="40" rx="4" fill="url(#paint1_linear_10459_149486)"/>
<circle cx="18.8824" cy="75" r="10.8824" fill="#244D68"/>
<rect x="42.0692" y="72.5" width="49.9308" height="5" rx="2.5" fill="#244D68"/>
<path d="M100 20V20C106.175 20 111.817 23.4996 114.561 29.0319L115.041 30C118.078 36.1253 124.325 40 131.162 40H140" stroke="#5796BF"/>
<path d="M100 75V75C106.175 75 111.817 71.5004 114.561 65.9681L115.041 65C118.078 58.8747 124.325 55 131.162 55H140" stroke="#5796BF"/>
<rect x="140" y="27.5" width="100" height="40" rx="4" fill="url(#paint2_linear_10459_149486)"/>
<circle cx="158.882" cy="47.5" r="10.8824" fill="#244D68"/>
<rect x="182.069" y="45" width="49.9308" height="5" rx="2.5" fill="#244D68"/>
<rect y="130" width="100" height="40" rx="4" fill="url(#paint3_linear_10459_149486)"/>
<circle cx="18.8824" cy="150" r="10.8824" fill="#244D68"/>
<rect x="42.0692" y="147.5" width="49.9308" height="5" rx="2.5" fill="#244D68"/>
<rect y="185" width="100" height="40" rx="4" fill="url(#paint4_linear_10459_149486)"/>
<circle cx="18.8824" cy="205" r="10.8824" fill="#244D68"/>
<rect x="42.0692" y="202.5" width="49.9308" height="5" rx="2.5" fill="#244D68"/>
<path d="M100 150V150C106.175 150 111.817 153.5 114.561 159.032L115.041 160C118.078 166.125 124.325 170 131.162 170H140" stroke="#5796BF"/>
<path d="M100 205V205C106.175 205 111.817 201.5 114.561 195.968L115.041 195C118.078 188.875 124.325 185 131.162 185H140" stroke="#5796BF"/>
<rect x="140" y="157.5" width="100" height="40" rx="4" fill="url(#paint5_linear_10459_149486)"/>
<circle cx="158.882" cy="177.5" r="10.8824" fill="#244D68"/>
<rect x="182.069" y="175" width="49.9308" height="5" rx="2.5" fill="#244D68"/>
<path d="M240 43.7889V43.7889C251.046 43.7889 260 52.7432 260 63.7889V85C260 96.0457 268.954 105 280 105V105" stroke="#5796BF"/>
<path d="M240 181.211V181.211C251.046 181.211 260 172.257 260 161.211V140C260 128.954 268.954 120 280 120V120" stroke="#5796BF"/>
<rect x="280" y="92.5" width="100" height="40" rx="4" fill="url(#paint6_linear_10459_149486)"/>
<circle cx="298.882" cy="112.5" r="10.8824" fill="#244D68"/>
<rect x="322.069" y="110" width="49.9308" height="5" rx="2.5" fill="#244D68"/>
<defs>
<linearGradient id="paint0_linear_10459_149486" x1="5.76939e-07" y1="20" x2="100" y2="20" gradientUnits="userSpaceOnUse">
<stop stop-color="#0C2A3E"/>
<stop offset="1" stop-color="#091D2A"/>
</linearGradient>
<linearGradient id="paint1_linear_10459_149486" x1="5.76939e-07" y1="75" x2="100" y2="75" gradientUnits="userSpaceOnUse">
<stop stop-color="#0C2A3E"/>
<stop offset="1" stop-color="#091D2A"/>
</linearGradient>
<linearGradient id="paint2_linear_10459_149486" x1="140" y1="47.5" x2="240" y2="47.5" gradientUnits="userSpaceOnUse">
<stop stop-color="#0C2A3E"/>
<stop offset="1" stop-color="#091D2A"/>
</linearGradient>
<linearGradient id="paint3_linear_10459_149486" x1="5.76939e-07" y1="150" x2="100" y2="150" gradientUnits="userSpaceOnUse">
<stop stop-color="#0C2A3E"/>
<stop offset="1" stop-color="#091D2A"/>
</linearGradient>
<linearGradient id="paint4_linear_10459_149486" x1="5.76939e-07" y1="205" x2="100" y2="205" gradientUnits="userSpaceOnUse">
<stop stop-color="#0C2A3E"/>
<stop offset="1" stop-color="#091D2A"/>
</linearGradient>
<linearGradient id="paint5_linear_10459_149486" x1="140" y1="177.5" x2="240" y2="177.5" gradientUnits="userSpaceOnUse">
<stop stop-color="#0C2A3E"/>
<stop offset="1" stop-color="#091D2A"/>
</linearGradient>
<linearGradient id="paint6_linear_10459_149486" x1="280" y1="112.5" x2="380" y2="112.5" gradientUnits="userSpaceOnUse">
<stop stop-color="#0C2A3E"/>
<stop offset="1" stop-color="#091D2A"/>
</linearGradient>
</defs>
</svg>
