<svg width="18" height="18" viewBox="0 0 18 18" fill="none" xmlns="http://www.w3.org/2000/svg"><path opacity="0.2" d="M13.5 2H4V7.5L5 10L8 11.5L11 10.5L13.5 8V2Z" fill="#ffd700"></path><path fill-rule="evenodd" clip-rule="evenodd" d="M3.4822 2.27035C3.4822 1.76723 3.89006 1.35938 4.39318 1.35938H13.0073C13.5076 1.35938 13.9183 1.76262 13.9183 2.26855V2.27573V2.28293V2.29013V2.29734V2.30457V2.31179V2.31903V2.32628V2.33353V2.34079V2.34806V2.35533V2.36262V2.36991V2.37721V2.38452V2.39183V2.39916V2.40649V2.41383V2.42118V2.42853V2.4359V2.44327V2.45065V2.45804V2.46542V2.47283V2.48023V2.48765V2.49508V2.50251V2.50995V2.5174V2.52485V2.53231V2.53978V2.54726V2.55474V2.56224V2.56974V2.57725V2.58476V2.59228V2.59981V2.60734V2.61489V2.62244V2.63V2.63756V2.64513V2.65271V2.6603V2.66789V2.67549V2.68311V2.69072V2.69834V2.70597V2.71361V2.72125V2.7289V2.73656V2.74422V2.75189V2.75957V2.76726V2.77495V2.78265V2.79036V2.79807V2.80579V2.81351V2.82125V2.82899V2.83673V2.84449V2.85224V2.86001V2.86778V2.87556V2.88335V2.89115V2.89894V2.90675V2.91456V2.92238V2.9302V2.93345H14.2095C15.3527 2.93345 16.2795 3.86018 16.2795 5.00336V6.032C16.2795 6.82984 15.8209 7.55665 15.1008 7.9002L13.636 8.59904C13.5898 8.62107 13.542 8.6353 13.4939 8.64232C12.7561 10.3528 11.1296 11.59 9.19613 11.7722V13.165H10.5367C10.9845 13.165 11.4204 13.3102 11.7786 13.5789L12.6182 14.2085C13.6044 14.9483 13.0813 16.5177 11.8484 16.5177H5.55212C4.31928 16.5177 3.79611 14.9483 4.7824 14.2085L5.6219 13.5789C5.9802 13.3102 6.41598 13.165 6.86385 13.165H8.20446V11.7722C6.27097 11.59 4.64449 10.3528 3.90669 8.64232C3.85859 8.6353 3.81071 8.62107 3.76454 8.59904L2.29972 7.9002C1.57963 7.55665 1.12109 6.82984 1.12109 6.032V5.00336C1.12109 3.86018 2.04782 2.93345 3.191 2.93345H3.4822V2.27035ZM12.9266 6.57759C12.9266 8.9112 11.0353 10.8029 8.70185 10.8038H8.70022C6.36609 10.8038 4.47387 8.91162 4.47387 6.57743V2.35104H12.9266V2.35533V2.36262V2.36991V2.37721V2.38452V2.39183V2.39916V2.40649V2.41383V2.42118V2.42853V2.4359V2.44327V2.45065V2.45804V2.46542V2.47283V2.48023V2.48765V2.49508V2.50251V2.50995V2.5174V2.52485V2.53231V2.53978V2.54726V2.55474V2.56224V2.56974V2.57725V2.58476V2.59228V2.59981V2.60734V2.61489V2.62244V2.63V2.63756V2.64513V2.65271V2.6603V2.66789V2.67549V2.68311V2.69072V2.69834V2.70597V2.71361V2.72125V2.7289V2.73656V2.74422V2.75189V2.75957V2.76726V2.77495V2.78265V2.79036V2.79807V2.80579V2.81351V2.82125V2.82899V2.83673V2.84449V2.85224V2.86001V2.86778V2.87556V2.88335V2.89115V2.89894V2.90675V2.91456V2.92238V2.9302V2.93804V2.94587V2.95372V2.96157V2.96943V2.97729V2.98516V2.99304V3.00092V3.00881V3.01671V3.02461V3.03252V3.04043V3.04835V3.05627V3.06421V3.07215V3.08009V3.08804V3.096V3.10396V3.11193V3.1199V3.12788V3.13587V3.14386V3.15186V3.15987V3.16788V3.1759V3.18391V3.19195V3.19998V3.20802V3.21607V3.22411V3.23217V3.24023V3.2483V3.25638V3.26445V3.27254V3.28063V3.28873V3.29683V3.30493V3.31305V3.32117V3.32929V3.33742V3.34556V3.35369V3.36184V3.36999V3.37815V3.38631V3.39447V3.40265V3.41083V3.41901V3.4272V3.43539V3.44359V3.45179V3.46V3.46822V3.47643V3.48466V3.49289V3.50112V3.50936V3.5176V3.52586V3.53411V3.54237V3.55063V3.55891V3.56718V3.57545V3.58374V3.59203V3.60032V3.60862V3.61693V3.62523V3.63354V3.64187V3.65018V3.65851V3.66684V3.67518V3.68352V3.69187V3.70022V3.70857V3.71693V3.72529V3.73366V3.74203V3.75041V3.75879V3.76718V3.77557V3.78396V3.79237V3.80077V3.80917V3.81759V3.826V3.83443V3.84285V3.85128V3.85971V3.86815V3.87659V3.88504V3.89349V3.90194V3.9104V3.91886V3.92733V3.9358V3.94427V3.95275V3.96123V3.96972V3.97821V3.9867V3.9952V4.0037V4.01221V4.02072V4.02923V4.03775V4.04627V4.0548V4.06332V4.07186V4.08039V4.08894V4.09748V4.10602V4.11457V4.12313V4.13169V4.14025V4.14881V4.15738V4.16595V4.17453V4.18311V4.19169V4.20027V4.20887V4.21746V4.22606V4.23466V4.24325V4.25186V4.26047V4.26908V4.27769V4.28631V4.29494V4.30356V4.31219V4.32082V4.32946V4.33809V4.34674V4.35538V4.36403V4.37267V4.38133V4.38999V4.39864V4.40731V4.41597V4.42464V4.43331V4.44198V4.45065V4.45934V4.46802V4.4767V4.48539V4.49408V4.50277V4.51147V4.52017V4.52887V4.53757V4.54628V4.55499V4.5637V4.57241V4.58113V4.58985V4.59857V4.60729V4.61602V4.62475V4.63348V4.64221V4.65095V4.65968V4.66843V4.67717V4.68591V4.69466V4.70342V4.71216V4.72092V4.72967V4.73844V4.7472V4.75596V4.76472V4.77349V4.78226V4.79103V4.79981V4.80858V4.81736V4.82614V4.83492V4.8437V4.85249V4.86128V4.87007V4.87886V4.88765V4.89644V4.90524V4.91404V4.92284V4.93164V4.94045V4.94925V4.95806V4.96687V4.97568V4.98449V4.9933V5.00212V5.01093V5.01975V5.02858V5.0374V5.04621V5.05504V5.06387V5.07269V5.08152V5.09035V5.09918V5.10802V5.11685V5.12569V5.13452V5.14336V5.1522V5.16104V5.16988V5.17873V5.18757V5.19642V5.20526V5.21411V5.22296V5.2318V5.24066V5.24951V5.25836V5.26721V5.27607V5.28492V5.29378V5.30264V5.3115V5.32036V5.32921V5.33808V5.34694V5.35581V5.36467V5.37353V5.3824V5.39126V5.40013V5.40899V5.41786V5.42673V5.4356V5.44447V5.45334V5.46221V5.47108V5.47995V5.48882V5.49769V5.50657V5.51544V5.52432V5.53319V5.54206V5.55094V5.55981V5.56869V5.57757V5.58645V5.59532V5.6042V5.61307V5.62195V5.63083V5.63971V5.64858V5.65746V5.66634V5.67521V5.6841V5.69297V5.70185V5.71073V5.71961V5.72849V5.73736V5.74624V5.75512V5.764V5.77287V5.78176V5.79063V5.79951V5.80838V5.81726V5.82614V5.83501V5.84389V5.85277V5.86164V5.87052V5.87939V5.88826V5.89714V5.90601V5.91488V5.92375V5.93262V5.9415V5.95037V5.95924V5.96811V5.97698V5.98585V5.99472V6.00358V6.01244V6.02131V6.03017V6.03904V6.0479V6.05677V6.06563V6.07449V6.08335V6.09221V6.10107V6.10993V6.11879V6.12764V6.1365V6.14535V6.1542V6.16305V6.1719V6.18075V6.1896V6.19845V6.20729V6.21614V6.22499V6.23383V6.24267V6.25151V6.26035V6.26919V6.27803V6.28686V6.2957V6.30453V6.31336V6.32219V6.33102V6.33985V6.34868V6.3575V6.36632V6.37515V6.38397V6.39278V6.4016V6.41041V6.41923V6.42804V6.43685V6.44566V6.45447V6.46328V6.47208V6.48088V6.48968V6.49848V6.50728V6.51607V6.52487V6.53366V6.54245V6.55124V6.56002V6.56881V6.57759ZM13.8545 7.39603L14.6738 7.00517C15.0489 6.82621 15.2878 6.44761 15.2878 6.032V5.00336C15.2878 4.40786 14.805 3.92512 14.2095 3.92512H13.9183V3.92733V3.9358V3.94427V3.95275V3.96123V3.96972V3.97821V3.9867V3.9952V4.0037V4.01221V4.02072V4.02923V4.03775V4.04627V4.0548V4.06332V4.07186V4.08039V4.08894V4.09748V4.10602V4.11457V4.12313V4.13169V4.14025V4.14881V4.15738V4.16595V4.17453V4.18311V4.19169V4.20027V4.20887V4.21746V4.22606V4.23466V4.24325V4.25186V4.26047V4.26908V4.27769V4.28631V4.29494V4.30356V4.31219V4.32082V4.32946V4.33809V4.34674V4.35538V4.36403V4.37267V4.38133V4.38999V4.39864V4.40731V4.41597V4.42464V4.43331V4.44198V4.45065V4.45934V4.46802V4.4767V4.48539V4.49408V4.50277V4.51147V4.52017V4.52887V4.53757V4.54628V4.55499V4.5637V4.57241V4.58113V4.58985V4.59857V4.60729V4.61602V4.62475V4.63348V4.64221V4.65095V4.65968V4.66843V4.67717V4.68591V4.69466V4.70342V4.71216V4.72092V4.72967V4.73844V4.7472V4.75596V4.76472V4.77349V4.78226V4.79103V4.79981V4.80858V4.81736V4.82614V4.83492V4.8437V4.85249V4.86128V4.87007V4.87886V4.88765V4.89644V4.90524V4.91404V4.92284V4.93164V4.94045V4.94925V4.95806V4.96687V4.97568V4.98449V4.9933V5.00212V5.01093V5.01975V5.02858V5.0374V5.04621V5.05504V5.06387V5.07269V5.08152V5.09035V5.09918V5.10802V5.11685V5.12569V5.13452V5.14336V5.1522V5.16104V5.16988V5.17873V5.18757V5.19642V5.20526V5.21411V5.22296V5.2318V5.24066V5.24951V5.25836V5.26721V5.27607V5.28492V5.29378V5.30264V5.3115V5.32036V5.32921V5.33808V5.34694V5.35581V5.36467V5.37353V5.3824V5.39126V5.40013V5.40899V5.41786V5.42673V5.4356V5.44447V5.45334V5.46221V5.47108V5.47995V5.48882V5.49769V5.50657V5.51544V5.52432V5.53319V5.54206V5.55094V5.55981V5.56869V5.57757V5.58645V5.59532V5.6042V5.61307V5.62195V5.63083V5.63971V5.64858V5.65746V5.66634V5.67521V5.6841V5.69297V5.70185V5.71073V5.71961V5.72849V5.73736V5.74624V5.75512V5.764V5.77287V5.78176V5.79063V5.79951V5.80838V5.81726V5.82614V5.83501V5.84389V5.85277V5.86164V5.87052V5.87939V5.88826V5.89714V5.90601V5.91488V5.92375V5.93262V5.9415V5.95037V5.95924V5.96811V5.97698V5.98585V5.99472V6.00358V6.01244V6.02131V6.03017V6.03904V6.0479V6.05677V6.06563V6.07449V6.08335V6.09221V6.10107V6.10993V6.11879V6.12764V6.1365V6.14535V6.1542V6.16305V6.1719V6.18075V6.1896V6.19845V6.20729V6.21614V6.22499V6.23383V6.24267V6.25151V6.26035V6.26919V6.27803V6.28686V6.2957V6.30453V6.31336V6.32219V6.33102V6.33985V6.34868V6.3575V6.36632V6.37515V6.38397V6.39278V6.4016V6.41041V6.41923V6.42804V6.43685V6.44566V6.45447V6.46328V6.47208V6.48088V6.48968V6.49848V6.50728V6.51607V6.52487V6.53366V6.54245V6.55124V6.56002V6.56881V6.57759C13.9183 6.85604 13.8965 7.12939 13.8545 7.39603ZM3.4822 6.57743C3.4822 6.85594 3.50403 7.12935 3.54604 7.39605L2.72672 7.00517C2.35162 6.82621 2.11276 6.44761 2.11276 6.032V5.00336C2.11276 4.40786 2.5955 3.92512 3.191 3.92512H3.4822V6.57743ZM6.2169 14.3722C6.40355 14.2323 6.63055 14.1566 6.86385 14.1566H8.7003H10.5367C10.77 14.1566 10.997 14.2323 11.1836 14.3722L12.0232 15.0019C12.247 15.1698 12.1283 15.526 11.8484 15.526H5.55212C5.27227 15.526 5.15352 15.1698 5.3774 15.0019L6.2169 14.3722Z" fill="#ffd700"></path><path d="M8.58859 4.82975C8.64533 4.75727 8.75498 4.75727 8.81171 4.82975L9.20895 5.33732C9.22524 5.35816 9.24706 5.37402 9.27192 5.38309L9.8774 5.60403C9.96389 5.63558 9.99782 5.7399 9.94639 5.81624L9.58642 6.35089C9.57161 6.37284 9.56326 6.39849 9.56233 6.42494L9.53931 7.06907C9.53606 7.16104 9.4473 7.22552 9.35883 7.20022L8.73911 7.02307C8.71361 7.0158 8.68669 7.0158 8.66119 7.02307L8.04147 7.20022C7.953 7.22552 7.86425 7.16104 7.86099 7.06907L7.83797 6.42494C7.83705 6.39849 7.82869 6.37284 7.81388 6.35089L7.45391 5.81624C7.40248 5.7399 7.43641 5.63558 7.5229 5.60403L8.12838 5.38309C8.15325 5.37402 8.17506 5.35816 8.19136 5.33732L8.58859 4.82975Z" fill="#ffd700"></path></svg>