<svg width="17" height="13" viewBox="0 0 17 13" fill="none" xmlns="http://www.w3.org/2000/svg"><path d="M12.5508 4.60938C12.5508 4.46848 12.4948 4.33335 12.3952 4.23373C12.2956 4.1341 12.1604 4.07813 12.0195 4.07812H9.89453C9.75363 4.07812 9.61851 4.1341 9.51888 4.23372C9.41925 4.33335 9.36328 4.46848 9.36328 4.60938C9.36328 4.75027 9.41925 4.8854 9.51888 4.98503C9.61851 5.08465 9.75363 5.14062 9.89453 5.14062H12.0195C12.1604 5.14062 12.2956 5.08465 12.3952 4.98502C12.4948 4.8854 12.5508 4.75027 12.5508 4.60938Z" fill="#ffd700"></path><path d="M6.70703 4.07812H6.17578V3.54688C6.17578 3.40598 6.11981 3.27085 6.02018 3.17122C5.92055 3.0716 5.78543 3.01562 5.64453 3.01562C5.50363 3.01562 5.36851 3.0716 5.26888 3.17122C5.16925 3.27085 5.11328 3.40598 5.11328 3.54688V4.07812H4.58203C4.44113 4.07812 4.30601 4.1341 4.20638 4.23372C4.10675 4.33335 4.05078 4.46848 4.05078 4.60938C4.05078 4.75027 4.10675 4.8854 4.20638 4.98503C4.30601 5.08465 4.44113 5.14062 4.58203 5.14062H5.11328V5.67188C5.11328 5.81277 5.16925 5.9479 5.26888 6.04753C5.36851 6.14715 5.50363 6.20312 5.64453 6.20312C5.78543 6.20312 5.92055 6.14715 6.02018 6.04753C6.11981 5.9479 6.17578 5.81277 6.17578 5.67188V5.14062H6.70703C6.84793 5.14062 6.98305 5.08465 7.08268 4.98503C7.18231 4.8854 7.23828 4.75027 7.23828 4.60938C7.23828 4.46848 7.18231 4.33335 7.08268 4.23372C6.98305 4.1341 6.84793 4.07812 6.70703 4.07812Z" fill="#ffd700"></path><path d="M16.2332 9.50605C16.2326 9.50314 16.2321 9.50022 16.2315 9.4973L15.1458 3.89109C15.1449 3.88688 15.1436 3.88293 15.1427 3.87877C14.9747 2.96143 14.4907 2.13191 13.7747 1.5343C13.0588 0.936684 12.1561 0.608738 11.2235 0.607422H11.2219L5.37884 0.624672C4.44146 0.622811 3.53356 0.952236 2.81547 1.55478C2.09739 2.15732 1.61531 2.99421 1.45436 3.91768C1.45351 3.92248 1.45274 3.92735 1.45202 3.93214L0.370004 9.49691C0.36942 9.49996 0.368869 9.50301 0.368318 9.50605C0.280085 10.0067 0.353738 10.5225 0.578579 10.9784C0.803421 11.4343 1.16775 11.8067 1.61865 12.0415C2.06955 12.2763 2.58356 12.3613 3.08602 12.284C3.58849 12.2068 4.05326 11.9714 4.41284 11.6121C4.42247 11.6025 4.43168 11.5926 4.44047 11.5823L7.14513 8.59245L9.45936 8.58321L12.1602 11.5814C12.1692 11.5919 12.1787 11.6021 12.1886 11.6121C12.5482 11.9715 13.013 12.2069 13.5155 12.2842C14.0179 12.3614 14.532 12.2765 14.9829 12.0417C15.4338 11.8069 15.7982 11.4345 16.023 10.9785C16.2478 10.5225 16.3214 10.0067 16.2332 9.50605ZM6.90635 7.53092C6.83247 7.53122 6.75947 7.54692 6.692 7.57702C6.62454 7.60713 6.56409 7.65097 6.51453 7.70576L3.65147 10.8707C3.4507 11.0671 3.19285 11.1947 2.91496 11.2354C2.63708 11.276 2.35346 11.2276 2.10485 11.0969C1.85625 10.9663 1.65545 10.7602 1.53131 10.5083C1.40717 10.2564 1.36607 9.97157 1.41392 9.69484L2.49967 4.11087C2.50175 4.10004 2.5035 4.08928 2.50493 4.07858C2.6278 3.4061 2.98308 2.79817 3.50869 2.36105C4.03429 1.92393 4.69679 1.68541 5.3804 1.68717L11.224 1.66992C11.6077 1.67009 11.9876 1.74584 12.342 1.89284C12.6965 2.03984 13.0185 2.2552 13.2897 2.52665C13.5609 2.79809 13.776 3.12029 13.9226 3.47486C14.0693 3.82942 14.1447 4.2094 14.1446 4.59311C14.1444 4.97682 14.0686 5.35673 13.9216 5.71116C13.7746 6.0656 13.5593 6.3876 13.2878 6.6588C13.0164 6.93 12.6942 7.14508 12.3396 7.29176C11.9851 7.43844 11.6051 7.51384 11.2214 7.51367L6.90635 7.53092ZM14.1095 11.2292C13.9017 11.2657 13.6882 11.2522 13.4867 11.1899C13.2851 11.1276 13.1013 11.0183 12.9503 10.8709L10.8843 8.57753L11.2235 8.57617C11.9009 8.57577 12.567 8.4027 13.1589 8.07329C13.7508 7.74389 14.2489 7.26903 14.6063 6.69358L15.1875 9.69464C15.2471 10.041 15.1671 10.3968 14.9651 10.6844C14.7631 10.9719 14.4555 11.1678 14.1095 11.2292Z" fill="#ffd700"></path></svg>