<svg width="18" height="18" viewBox="0 0 18 18" fill="none" xmlns="http://www.w3.org/2000/svg"><path opacity="0.2" d="M8.29735 5.41178C8.56652 4.92893 8.7011 4.6875 8.90234 4.6875C9.10358 4.6875 9.23816 4.92893 9.50733 5.41178L9.57696 5.5367C9.65339 5.67391 9.69164 5.74252 9.75128 5.78778C9.81092 5.83305 9.88515 5.84985 10.0337 5.88346L10.1689 5.91406C10.6916 6.03232 10.953 6.09145 11.0152 6.29139C11.0773 6.49133 10.8991 6.69968 10.5428 7.11636L10.4506 7.22416C10.3494 7.34257 10.2987 7.40177 10.2759 7.47501C10.2532 7.54825 10.2609 7.62722 10.2762 7.78525L10.2901 7.92905C10.3439 8.48502 10.3709 8.76297 10.2082 8.88657C10.0453 9.0101 9.80065 8.89748 9.31126 8.67216L9.18468 8.61386C9.04557 8.54983 8.97608 8.51781 8.90234 8.51781C8.8286 8.51781 8.75912 8.54983 8.62 8.61386L8.49342 8.67216C8.00403 8.89748 7.75937 9.0101 7.59653 8.88657C7.43378 8.76297 7.46071 8.48502 7.51457 7.92905L7.52853 7.78525C7.54383 7.62722 7.55148 7.54825 7.52874 7.47501C7.50593 7.40177 7.45531 7.34257 7.35405 7.22416L7.26186 7.11636C6.90553 6.69968 6.72737 6.49133 6.78955 6.29139C6.85172 6.09145 7.11306 6.03232 7.63577 5.91406L7.77099 5.88346C7.91953 5.84985 7.99376 5.83305 8.0534 5.78778C8.11305 5.74252 8.1513 5.67391 8.22772 5.5367L8.29735 5.41178Z" fill="#ffd700" stroke="#ffd700" stroke-width="1.0625"></path><path d="M13.862 6.8138C13.862 9.55222 11.6421 11.7721 8.90365 11.7721C6.16524 11.7721 3.94531 9.55222 3.94531 6.8138C3.94531 4.07539 6.16524 1.85547 8.90365 1.85547C11.6421 1.85547 13.862 4.07539 13.862 6.8138Z" stroke="#ffd700" stroke-width="1.0625"></path><g opacity="0.2"><path d="M5.60938 11.0625L5.15826 12.708C4.71319 14.3313 4.49065 15.143 4.78761 15.5874C4.89169 15.7431 5.0313 15.8681 5.19331 15.9506C5.65559 16.1859 6.36935 15.8141 7.79685 15.0703C8.27186 14.8228 8.50936 14.699 8.76167 14.6721C8.85524 14.6621 8.94945 14.6621 9.04302 14.6721C9.29533 14.699 9.53283 14.8228 10.0078 15.0703C11.4353 15.8141 12.1491 16.1859 12.6114 15.9506C12.7734 15.8681 12.913 15.7431 13.0171 15.5874C13.3141 15.143 13.0915 14.3313 12.6465 12.708L12.1953 11.0625" fill="#ffd700"></path><path d="M5.60938 11.0625L5.15826 12.708C4.71319 14.3313 4.49065 15.143 4.78761 15.5874C4.89169 15.7431 5.0313 15.8681 5.19331 15.9506C5.65559 16.1859 6.36935 15.8141 7.79685 15.0703C8.27186 14.8228 8.50936 14.699 8.76167 14.6721C8.85524 14.6621 8.94945 14.6621 9.04302 14.6721C9.29533 14.699 9.53283 14.8228 10.0078 15.0703C11.4353 15.8141 12.1491 16.1859 12.6114 15.9506C12.7734 15.8681 12.913 15.7431 13.0171 15.5874C13.3141 15.143 13.0915 14.3313 12.6465 12.708L12.1953 11.0625" stroke="#ffd700" stroke-width="1.0625" stroke-linecap="round"></path></g></svg>