<svg width="18" height="18" viewBox="0 0 18 18" fill="none" xmlns="http://www.w3.org/2000/svg"><path d="M1.91406 14.2292H3.96708L3.96712 11.6629L6.02013 11.6629V14.2292H8.07316V9.60984H6.02013V7.55682H12.1792V9.60984H10.1262L10.1262 14.2292H12.1792V11.6629L14.2322 11.6629V14.2292H16.2853L16.2853 9.60984H14.2322V5.5038H10.1262V2.9375H8.07316V5.5038H3.96712V9.60984H1.91406V14.2292Z" fill="white"></path><rect x="11.7656" y="12.4668" width="3.82353" height="2.29412" fill="white"></rect><path d="M13.6 10.9375C12.1646 10.9375 11 12.1021 11 13.5375C11 14.025 11.1354 14.4854 11.3792 14.8754C11.8287 15.6283 12.6521 16.1375 13.6 16.1375C14.5479 16.1375 15.3767 15.6283 15.8208 14.8754C16.0592 14.4854 16.2 14.025 16.2 13.5375C16.2 12.1021 15.0354 10.9375 13.6 10.9375ZM14.8892 13.1962L13.5025 14.4746C13.4267 14.545 13.3238 14.5829 13.2263 14.5829C13.1233 14.5829 13.0204 14.545 12.9392 14.4637L12.3 13.8246C12.1429 13.6675 12.1429 13.4075 12.3 13.2504C12.4571 13.0933 12.7171 13.0933 12.8742 13.2504L13.2371 13.6133L14.3367 12.595C14.4992 12.4433 14.7592 12.4542 14.9108 12.6167C15.0625 12.7846 15.0517 13.0446 14.8892 13.1962Z" fill="#444444"></path></svg>