<svg class="f--icon-small" width="1em" height="1em" viewBox="0 0 24 24" fill="#ffd700"><path fill-rule="evenodd" fill="" d="m20.122 9.88-.442-.442a1.5 1.5 0 0 1-.439-1.06v-.621a3 3 0 0 0-3-3h-.621a1.5 1.5 0 0 1-1.06-.439l-.442-.442a3 3 0 0 0-4.24 0l-.442.442a1.5 1.5 0 0 1-1.06.439h-.619a3 3 0 0 0-3 3v.621a1.5 1.5 0 0 1-.439 1.06l-.442.442a3 3 0 0 0 0 4.24l.442.442a1.5 1.5 0 0 1 .439 1.06v.621a3 3 0 0 0 3 3h.621a1.5 1.5 0 0 1 1.06.439l.442.442a3 3 0 0 0 4.24 0l.442-.442a1.5 1.5 0 0 1 1.06-.439h.621a3 3 0 0 0 3-3v-.621a1.5 1.5 0 0 1 .439-1.06l.442-.442a3 3 0 0 0-.002-4.24Zm-4.592.65-4 4a.748.748 0 0 1-1.06 0l-2-2a.75.75 0 0 1 1.06-1.06L11 12.939l3.47-3.469a.75.75 0 0 1 1.06 1.06Z"></path></svg>