<svg width="125" height="45" viewBox="0 0 125 45" fill="none" xmlns="http://www.w3.org/2000/svg">
<path fill-rule="evenodd" clip-rule="evenodd" d="M8.69113 15.5532L6.5 17.7232V21.9841V26.245H9.21171H11.9234V28.9297V31.6144H16.2593H20.5953L22.7864 29.4445L24.9775 27.2745V23.0142V18.754L22.2815 18.7378L19.5856 18.7215L19.5691 16.0524L19.5527 13.3833H15.2175H10.8822L8.69113 15.5532ZM30.7793 25.1816V31.6144L34.1689 31.6139C36.1605 31.6137 37.7276 31.5872 37.9685 31.5498C38.7865 31.4227 39.5801 30.8769 39.9165 30.2099C40.1853 29.677 40.2372 29.343 40.238 28.1402C40.2386 27.1869 40.219 26.9441 40.1141 26.6079C39.8742 25.8388 39.4132 25.3491 38.6367 25.0383L38.2644 24.8893L38.6176 24.7293C39.297 24.4213 39.7772 23.7745 39.9307 22.9605C40.0318 22.4244 39.9673 20.9262 39.8262 20.5321C39.5604 19.7897 39.0118 19.2137 38.2997 18.929C37.9369 18.7839 37.9367 18.7839 34.3581 18.7663L30.7793 18.7488V25.1816ZM43.0766 25.1836V31.6144H44.5586H46.0405V25.1836V18.7527H44.5586H43.0766V25.1836ZM48.3739 20.0941V21.4354L50.1239 21.4521L51.8739 21.4687L51.89 26.5427L51.9062 31.6167L53.372 31.5999L54.8378 31.5832L54.854 26.5103L54.8701 21.4374H56.18H57.4899L57.9139 21.0144L58.3378 20.5914V19.6721V18.7527H53.3559H48.3739V20.0941ZM60.6712 25.1836V31.6144H62.1532H63.6351V29.0858V26.5571H64.5812H65.5272L66.8038 29.0858L68.0804 31.6144H69.4523H70.8243V30.8751V30.1358L69.4688 27.5504C68.7233 26.1285 68.1132 24.9323 68.113 24.8923C68.1128 24.8523 68.4707 24.1639 68.9085 23.3626C69.3463 22.5613 69.9138 21.5215 70.1697 21.0518L70.6351 20.1979V19.4753V18.7527H69.3468H68.0583L66.7891 21.2189L65.5198 23.6851H64.5775H63.6351V21.2189V18.7527H62.1532H60.6712V25.1836ZM73.3623 25.168L73.3784 31.5832L74.8446 31.5999L76.3108 31.6167V29.3367V27.0566H77.336H78.3612L79.5116 29.3355L80.6619 31.6144H82.0179H83.3739V30.8367C83.3739 30.0939 83.3658 30.0456 83.1946 29.7597C83.096 29.5951 82.6956 28.9266 82.305 28.2741C81.9143 27.6217 81.5407 26.9999 81.4748 26.8925L81.355 26.6971L81.6986 26.5306C82.2173 26.2794 82.6459 25.864 82.8844 25.3814L83.0901 24.965L83.11 23.0749C83.1231 21.8353 83.1054 21.0678 83.0587 20.8448C82.9013 20.0946 82.3745 19.3887 81.7274 19.0611C81.1308 18.7592 81.0558 18.7542 77.083 18.7535L73.3463 18.7527L73.3623 25.168ZM88.4189 18.7763C88.4189 18.7901 87.8072 20.9889 87.0596 23.6626C86.3119 26.3363 85.6025 28.879 85.483 29.3131C85.2912 30.0097 85.2658 30.1909 85.2658 30.8583V31.6144H86.5856H87.9055L87.9993 31.2866C88.0509 31.1063 88.2124 30.53 88.3582 30.0058L88.6234 29.0529L90.6474 29.0693L92.6714 29.0858L93.0191 30.3501L93.3668 31.6144H94.6767H95.9865V30.804V29.9937L95.3519 27.7291C95.0029 26.4836 94.6061 25.0712 94.4701 24.5904C94.3341 24.1097 93.9135 22.6065 93.5355 21.2501L92.8482 18.7839L90.6336 18.7675C89.4155 18.7585 88.4189 18.7624 88.4189 18.7763ZM98.4459 25.1836V31.6144H99.9279H101.41V29.3355V27.0566H103.239H105.068V25.6831V24.3095H103.239H101.41V22.8735V21.4374H103.729H106.048L106.472 21.0144L106.896 20.5914V19.6721V18.7527H102.671H98.4459V25.1836ZM108.536 20.0951V21.4374H110.27H112.004L112.02 26.5103L112.036 31.5832L113.502 31.5999L114.968 31.6167L114.984 26.5427L115 21.4687L116.324 21.4517L117.648 21.4348L118.074 21.0164L118.5 20.5979V19.6753V18.7527H113.518H108.536V20.0951ZM19.1757 22.4988V25.8704H15.7387H12.3018V22.4988V19.1273H15.7387H19.1757V22.4988ZM36.5439 21.3775C36.9197 21.5642 36.991 21.7465 36.991 22.5218C36.991 23.2854 36.9344 23.4507 36.5989 23.6686C36.4532 23.7632 36.2399 23.7817 35.0863 23.7998L33.7432 23.8207V22.5284V21.236L35.0518 21.2612C36.0317 21.28 36.4065 21.3093 36.5439 21.3775ZM79.7625 21.5908C80.0936 21.7891 80.1577 22.0047 80.1577 22.9205C80.1577 23.6588 80.1452 23.7474 80.0139 23.9404C79.7706 24.2977 79.715 24.3075 77.9347 24.3085L76.3108 24.3095V22.9151C76.3108 22.1481 76.3321 21.4996 76.3581 21.4738C76.3841 21.448 77.1149 21.4363 77.982 21.4477C79.4131 21.4667 79.5774 21.4799 79.7625 21.5908ZM91.3162 24.1825C91.6616 25.4347 91.9356 26.4678 91.925 26.4783C91.9144 26.4887 91.3264 26.4897 90.6182 26.4804L89.3305 26.4635L89.9507 24.2158C90.6301 21.7539 90.6303 21.7532 90.6645 21.8433C90.6776 21.8776 90.9708 22.9303 91.3162 24.1825ZM36.8856 26.3896C37.1975 26.5581 37.2748 26.8084 37.2748 27.6498C37.2748 28.5507 37.2007 28.7592 36.82 28.9303C36.5784 29.0389 36.4001 29.0519 35.1464 29.0532L33.7432 29.0546V27.6456V26.2367L35.2095 26.2565C36.4829 26.2736 36.7033 26.2911 36.8856 26.3896Z" fill="#B6C1E1"/>
</svg>
