<svg width="125" height="45" viewBox="0 0 125 45" fill="none" xmlns="http://www.w3.org/2000/svg">
<path fill-rule="evenodd" clip-rule="evenodd" d="M113.024 20.4268V13.1184C113.024 12.51 113.031 12.5027 113.618 12.5027C114.545 12.4991 115.472 12.4991 116.395 12.5027C116.968 12.5027 116.982 12.5172 116.982 13.0858V28.3218C116.982 28.6025 116.981 28.8829 116.98 29.1632C116.978 29.91 116.976 30.6559 116.989 31.4038C116.996 31.7768 116.881 31.9217 116.493 31.9108C115.609 31.8891 114.726 31.8927 113.846 31.9108C113.484 31.918 113.353 31.7768 113.36 31.4291C113.363 31.2912 113.344 31.1532 113.322 30.9889C113.309 30.8987 113.296 30.8007 113.284 30.6903C113.232 30.7303 113.185 30.7664 113.14 30.8001C113.023 30.8883 112.929 30.9593 112.843 31.038C110.239 33.421 105.914 32.4287 104.267 29.4952C102.706 26.7211 103.032 23.5232 104.89 21.0786C106.671 18.7355 110.159 18.3588 112.618 20.1443C112.703 20.2016 112.787 20.2609 112.901 20.3409L113.024 20.4268ZM110.351 22.5852C108.489 22.5816 107.323 23.7767 107.323 25.6817C107.323 27.5939 108.489 28.8143 110.322 28.818C112.194 28.8216 113.35 27.6192 113.35 25.6708C113.35 23.7948 112.176 22.5852 110.351 22.5852Z" fill="#B6C1E1"/>
<path d="M60.7532 22.8206V14.3135C60.7532 13.716 60.7605 13.7087 61.3616 13.7087H72.3495C72.9833 13.7087 72.9942 13.7196 72.9942 14.3715C72.9966 14.9117 72.9958 15.4504 72.995 15.9897V15.9909L72.9945 16.3339C72.9943 16.4897 72.9942 16.6456 72.9942 16.8015C72.9942 17.4498 72.9797 17.4643 72.3459 17.4643H65.5265C64.9289 17.4643 64.9253 17.4679 64.9253 18.0691C64.9253 18.2456 64.9259 18.422 64.9267 18.5985L64.9277 18.7895V18.7911C64.9306 19.3904 64.9336 19.9892 64.918 20.5861C64.9072 20.97 65.0412 21.0823 65.4178 21.0823C66.9919 21.0714 68.564 21.0728 70.1371 21.0741H70.1391C70.6644 21.0746 71.1901 21.075 71.7158 21.075C72.3314 21.075 72.3314 21.0786 72.3314 21.7088C72.3314 21.8065 72.3313 21.9043 72.331 22.002C72.3305 22.1568 72.3298 22.3117 72.3291 22.4665C72.3261 23.0973 72.3232 23.7277 72.3387 24.3562C72.3495 24.7509 72.2155 24.8849 71.8172 24.8813C70.8017 24.8745 69.787 24.8749 68.7723 24.8753C67.6448 24.8758 66.5173 24.8764 65.3889 24.8668C64.976 24.8632 64.8384 24.9755 64.842 25.4028C64.8529 26.4006 64.852 27.3992 64.851 28.3979C64.8501 29.3965 64.8492 30.3952 64.8601 31.3929C64.8637 31.8239 64.7406 31.9833 64.2951 31.9724C63.5995 31.9545 62.9039 31.9582 62.2096 31.962H62.2063C61.9184 31.9636 61.6308 31.9651 61.3435 31.9651C60.7822 31.9651 60.7496 31.9362 60.7496 31.3784C60.7532 28.521 60.7532 25.6708 60.7532 22.8206Z" fill="#B6C1E1"/>
<path d="M93.6662 20.3869C93.5648 20.4811 93.4634 20.5752 93.257 20.7708C93.257 20.7511 93.2569 20.7317 93.2569 20.7127L93.2567 20.6877C93.2566 20.6595 93.2563 20.6321 93.2561 20.6054L93.2553 20.545L93.2543 20.4695C93.2515 20.265 93.2492 20.1006 93.2642 19.9378C93.2859 19.5648 93.1375 19.4236 92.7572 19.4308C91.8301 19.4525 90.9066 19.4525 89.9794 19.4308C89.5883 19.4199 89.4905 19.5829 89.4905 19.9451C89.4978 23.7803 89.5014 27.612 89.4905 31.4436C89.4905 31.8203 89.6209 31.9579 89.9939 31.9543C90.5674 31.9477 91.1396 31.949 91.7121 31.9503C92.094 31.9512 92.476 31.9521 92.8586 31.9506C93.4127 31.947 93.4381 31.9217 93.4381 31.3531C93.4392 30.7973 93.4385 30.2416 93.4379 29.6859C93.4365 28.4634 93.4351 27.241 93.4525 26.0185C93.4634 25.3557 93.4888 24.6821 93.63 24.0375C93.8582 22.9981 94.6621 22.52 95.879 22.5925C96.7953 22.6468 97.3566 23.2226 97.4906 24.2656C97.5341 24.6097 97.563 24.9573 97.563 25.3014C97.5712 26.8197 97.5732 28.338 97.5753 29.8563C97.5759 30.3625 97.5766 30.8686 97.5775 31.3748C97.5775 31.9688 97.5848 31.976 98.1896 31.976C98.4808 31.976 98.7717 31.975 99.0625 31.974H99.0649C99.7424 31.9718 100.419 31.9695 101.098 31.9796C101.442 31.9869 101.598 31.8818 101.59 31.5124C101.569 30.5415 101.553 29.5705 101.537 28.5995C101.506 26.7384 101.476 24.8773 101.409 23.0162C101.358 21.5205 100.783 20.2565 99.3557 19.5358C97.5268 18.6123 95.1547 18.9709 93.6662 20.3869Z" fill="#B6C1E1"/>
<path d="M83.0332 30.77C82.1713 31.574 81.2623 32.1824 80.1396 32.2621C79.3175 32.3201 78.4483 32.3092 77.6516 32.11C75.9892 31.6971 74.9861 30.3535 74.9173 28.4667C74.8359 26.2965 74.8067 24.1264 74.7775 21.9562C74.769 21.3232 74.7605 20.6903 74.7507 20.0574C74.7434 19.5033 74.8195 19.4453 75.3844 19.4453C75.7169 19.444 76.0488 19.4455 76.3807 19.4469H76.3815C76.9893 19.4495 77.5968 19.4521 78.2057 19.4381C78.6185 19.4272 78.7598 19.5648 78.7561 19.9849C78.738 21.879 78.738 23.7731 78.7598 25.6672C78.767 26.272 78.8358 26.8804 78.9408 27.4744C79.0821 28.2711 79.6289 28.7419 80.3858 28.8107C81.4542 28.9085 82.2148 28.5971 82.4791 27.8076C82.7 27.1448 82.8449 26.4314 82.8666 25.736C82.9039 24.4571 82.9003 23.1781 82.8967 21.8991C82.895 21.313 82.8933 20.7268 82.8956 20.1407C82.8992 19.4562 82.921 19.4417 83.6054 19.4417C83.8504 19.4417 84.0951 19.4425 84.3397 19.4433H84.3416C84.9931 19.4455 85.6437 19.4476 86.2963 19.4344C86.6766 19.4272 86.8395 19.5286 86.8359 19.9451C86.825 23.7912 86.825 27.6374 86.8323 31.4871C86.8323 31.842 86.7091 31.976 86.3542 31.9688C85.4416 31.9543 84.5326 31.9507 83.6199 31.9688C83.2324 31.976 83.055 31.8384 83.0694 31.4472C83.0718 31.3025 83.0606 31.1563 83.0494 31.0105C83.0474 30.985 83.0455 30.9592 83.0436 30.9337L83.0409 30.8969C83.0379 30.8545 83.0353 30.8122 83.0332 30.77Z" fill="#B6C1E1"/>
<path d="M23.7071 16.4875C23.8536 16.3749 24.0032 16.26 24.1571 16.1424C24.118 16.1078 24.0795 16.0734 24.0415 16.0393C23.995 15.9974 23.9492 15.956 23.904 15.9149C23.8477 15.8637 23.7924 15.8131 23.7378 15.7632C23.4349 15.4863 23.1545 15.2301 22.8533 15.0016C20.8252 13.4479 18.5183 13.017 16.0411 13.4009C13.9188 13.7304 11.9994 14.5815 10.587 16.2076C8.31625 18.8224 7.4688 21.8681 8.35608 25.2833C8.97176 27.6518 10.1777 29.651 12.2783 31.0199C13.6327 31.9036 15.1393 32.3201 16.7328 32.4577C19.6917 32.7112 22.2123 31.8348 24.2078 29.5857C24.407 29.3612 24.4251 29.22 24.1643 29.0353C23.632 28.6622 23.1104 28.2711 22.5962 27.8727C22.3608 27.6917 22.2231 27.7243 22.024 27.9452C19.4599 30.8352 14.7156 30.6758 12.3326 27.6337C10.4313 25.2036 10.2936 21.535 11.9994 18.8188C13.8066 15.9396 17.1928 15.0125 20.2132 16.5806C20.485 16.7218 20.7527 16.8713 21.0201 17.0208L21.0212 17.0213C21.3093 17.1823 21.5972 17.3431 21.89 17.4933C22.0095 17.5548 22.2268 17.591 22.3209 17.5259C22.779 17.2011 23.2263 16.8572 23.7071 16.4875Z" fill="#B6C1E1"/>
<path fill-rule="evenodd" clip-rule="evenodd" d="M32.1572 19.3982C35.862 19.4236 38.6543 22.2484 38.6289 25.9497C38.6036 29.651 35.7534 32.3563 31.9073 32.3273C28.3509 32.302 25.555 29.4228 25.5731 25.8121C25.5948 22.1796 28.4776 19.3729 32.1572 19.3982ZM32.1246 21.7269C29.7814 21.7233 28.1988 23.382 28.1879 25.8519C28.177 28.2965 29.7959 30.0203 32.0992 30.0131C34.4207 30.0059 36.0576 28.3001 36.0612 25.8772C36.0685 23.4508 34.4388 21.7341 32.1246 21.7269Z" fill="#B6C1E1"/>
<path d="M49.2016 20.9841C49.1719 21.0195 49.1421 21.0549 49.1122 21.0901C49.078 21.1302 49.0435 21.17 49.0084 21.209C48.9613 21.1873 48.9142 21.1656 48.8599 21.1402C48.8599 21.0302 48.8595 20.9206 48.8591 20.8112V20.8104C48.8583 20.5922 48.8575 20.3745 48.8599 20.1551C48.8635 19.9052 48.7549 19.7821 48.4978 19.7857C47.9509 19.793 47.4004 19.793 46.8499 19.7857C46.5711 19.7821 46.4588 19.9089 46.4697 20.1805C46.4769 20.3833 46.4745 20.5861 46.4721 20.7889C46.4709 20.8903 46.4697 20.9917 46.4697 21.0931C46.4697 21.7192 46.4699 22.3452 46.4702 22.971L46.4706 23.6794C46.4719 26.2601 46.4733 28.8401 46.4624 31.4219C46.4624 31.842 46.6001 31.9941 47.0129 31.9688C47.4439 31.9434 47.8821 31.9398 48.3131 31.9688C48.7549 32.0014 48.8853 31.8311 48.8817 31.3966C48.8635 29.5858 48.8599 27.7786 48.8853 25.9714C48.8998 25.0153 48.9867 24.0592 49.4611 23.1937C50.0514 22.1144 51.29 21.5458 52.6083 21.745C53.8287 21.9297 54.5531 22.6359 54.7848 23.889C54.8319 24.1425 54.8355 24.4069 54.8355 24.6676C54.8374 25.7813 54.8383 26.8949 54.8392 28.0086C54.8401 29.1222 54.841 30.2358 54.8428 31.3495C54.8464 31.9289 54.8681 31.9507 55.4621 31.9543C55.5526 31.9543 55.6432 31.954 55.7337 31.9537L55.9401 31.9527C56.2588 31.951 56.5775 31.9494 56.8962 31.9543C57.1787 31.9615 57.3127 31.8529 57.3127 31.5487C57.3089 30.6135 57.3091 29.6779 57.3092 28.7421C57.3095 26.9745 57.3098 25.2064 57.2837 23.4399C57.2693 22.4186 56.8926 21.4879 56.1864 20.7201C54.5494 18.9383 51.4638 18.8622 49.5842 20.5644C49.4463 20.6928 49.3241 20.8384 49.202 20.9837L49.2016 20.9841Z" fill="#B6C1E1"/>
<path d="M43.2348 26.8227L43.234 27.3775V27.3786C43.2318 28.7252 43.2297 30.0727 43.2428 31.4183C43.2465 31.8384 43.1052 31.9905 42.6924 31.9651C42.2759 31.9398 41.8522 31.9434 41.4357 31.9651C41.0373 31.9869 40.9105 31.8311 40.9142 31.4364C40.925 29.7014 40.9237 27.9664 40.9223 26.2315V26.2291C40.9219 25.6507 40.9214 25.0722 40.9214 24.4938C40.9214 24.0894 40.9226 23.6846 40.9238 23.2798C40.9267 22.2671 40.9297 21.2537 40.9142 20.2421C40.9069 19.8364 41.0518 19.6988 41.4429 19.7169C41.8775 19.7387 42.3121 19.7387 42.7467 19.7169C43.127 19.6988 43.2465 19.8509 43.2465 20.2239C43.2324 21.6826 43.2336 23.1456 43.2349 24.608V24.6094C43.2352 25.0272 43.2356 25.4452 43.2356 25.8628C43.2356 26.1827 43.2353 26.5026 43.2348 26.8227Z" fill="#B6C1E1"/>
<path d="M42.1165 13.6508C41.0952 13.6472 40.313 14.4222 40.3202 15.4217C40.3275 16.3959 41.1097 17.142 42.1202 17.1311C43.1342 17.1202 43.8332 16.4104 43.8259 15.3964C43.8187 14.3859 43.1016 13.6544 42.1165 13.6508Z" fill="#B6C1E1"/>
</svg>
