<svg width="75" height="45" viewBox="0 0 75 45" fill="none" xmlns="http://www.w3.org/2000/svg">
<path fill-rule="evenodd" clip-rule="evenodd" d="M39.718 17.729C39.7135 17.7251 39.7107 17.7226 39.7086 17.7207C39.7125 17.7242 39.718 17.729 39.718 17.729ZM57.4315 16.1609C57.4402 16.158 57.4441 16.1566 57.4315 16.1609V16.1609ZM25.8852 8.61299L27.3725 8.47872C27.6542 8.45325 27.8437 8.25408 27.8437 7.98318V7.3037C27.8437 7.08562 27.6978 6.87875 27.3725 6.90817L25.8852 7.04238C25.5599 7.07173 25.4144 7.30491 25.4144 7.523V8.20248C25.4144 8.47344 25.6035 8.6384 25.8852 8.61299ZM53.6772 14.424C54.1991 14.8234 54.8411 14.9928 55.5858 14.9256C56.6173 14.8325 57.3986 14.6621 57.9791 14.4053C58.1798 14.3143 58.2954 14.146 58.2954 13.9434V13.3593C58.296 12.9773 57.9764 12.8879 57.7502 12.9648C57.2031 13.1453 56.4956 13.2728 55.5858 13.3549C55.3371 13.3773 55.1241 13.3099 54.9524 13.1523C54.7801 12.9939 54.6923 12.7941 54.6923 12.5563V9.73021C54.6923 9.49345 54.78 9.27682 54.9521 9.08839C55.1248 8.8999 55.3377 8.79377 55.5858 8.7714C56.4945 8.6894 57.2222 8.68934 57.7468 8.77055C58.005 8.81185 58.2954 8.65714 58.2954 8.27816V7.69384C58.2954 7.50177 58.1922 7.35652 57.9924 7.28757C57.4158 7.13535 56.6284 7.10666 55.5858 7.20079C54.8418 7.26792 54.194 7.55835 53.6617 8.06317C53.1381 8.55774 52.8609 9.19216 52.8609 9.89547V12.7215C52.8609 13.4364 53.1353 14.0085 53.6772 14.424ZM29.689 17.2629L30.5785 17.1826C30.8601 17.1572 31.0496 16.9578 31.0496 16.687V11.8511C31.0496 11.6247 31.1392 11.4058 31.3099 11.2083C31.4815 11.0209 31.6944 10.9147 31.9434 10.8922L33.1393 10.7844C33.3789 10.7628 33.5845 10.8329 33.7569 11.0004C33.93 11.1587 34.0169 11.3552 34.0169 11.5833V16.4192C34.0169 16.69 34.207 16.8551 34.4887 16.8297L35.3931 16.7481C35.4379 16.744 35.4813 16.73 35.5223 16.7084C35.7918 16.565 35.8487 16.3825 35.8487 16.254V11.418C35.8487 11.1907 35.9382 10.9719 36.1093 10.7752C36.2808 10.5877 36.4938 10.4816 36.7425 10.4592L37.9381 10.3513C38.1799 10.3295 38.3874 10.3996 38.5715 10.5659C38.7447 10.7242 38.8319 10.9206 38.8319 11.1488V15.9848C38.8319 16.2555 39.0216 16.4207 39.3033 16.3953L40.1921 16.3151C40.4737 16.2896 40.6632 16.0902 40.6632 15.8195V10.9835C40.6632 10.2635 40.3873 9.69497 39.8472 9.29623C39.3246 8.89499 38.6818 8.72652 37.938 8.79365L36.7425 8.90154C36.0375 8.96516 35.4307 9.21781 34.933 9.65367C34.4375 9.30745 33.8353 9.1639 33.1393 9.22673L31.9434 9.33468C31.2062 9.40114 30.56 9.68497 30.019 10.1832C29.4953 10.678 29.2182 11.312 29.2182 12.0164V16.8524C29.2182 17.1231 29.4075 17.2883 29.689 17.2629ZM39.7391 17.7469C39.8213 17.824 39.9052 17.9255 39.9912 18.0516C40.0772 18.1778 40.166 18.3093 40.2577 18.4464L43.5297 23.1096V18.1316C43.5297 17.8082 43.5994 17.5598 43.7388 17.3865C43.7425 17.382 43.7466 17.378 43.7503 17.3736L39.718 17.729C39.725 17.7351 39.7323 17.7406 39.7391 17.7469ZM27.0814 9.77345L26.1767 9.85514C25.8514 9.88449 25.7056 10.1185 25.7056 10.3368V17.1694C25.7056 17.4401 25.8951 17.6053 26.1767 17.5799L27.0814 17.4983C27.3627 17.4729 27.5522 17.2735 27.5522 17.0027V10.1701C27.5522 9.95181 27.4067 9.74404 27.0814 9.77345ZM41.5768 9.04606C41.6825 8.98833 41.7699 8.90967 41.8404 8.8204L43.6394 10.6674L42.5664 11.0292C42.5322 10.9255 42.4707 10.8321 42.38 10.7625C42.1145 10.5589 41.7157 10.6238 41.487 10.908C41.259 11.1922 41.2882 11.5877 41.5533 11.7914C41.8179 11.9949 42.2181 11.9292 42.4455 11.6452C42.5084 11.5674 42.5499 11.4814 42.5738 11.3924L43.6503 11.892C43.6502 11.9133 43.6471 11.9341 43.6471 11.9553C43.6471 14.2515 45.5154 15.9445 47.8201 15.7365C50.1251 15.5285 51.9936 13.4983 51.9936 11.202C51.9936 8.90579 50.125 7.21298 47.8201 7.42099C46.9564 7.49898 46.1536 7.83302 45.488 8.34129L44.5788 7.71361C44.6459 7.60899 44.6893 7.48873 44.6956 7.36016C44.7134 6.98883 44.4267 6.69961 44.0546 6.71446C43.6835 6.73072 43.3675 7.04529 43.3493 7.41741C43.3318 7.78869 43.6184 8.07791 43.99 8.06172C44.0916 8.05783 44.1882 8.02969 44.2767 7.98567L44.4755 9.22939L42.017 8.39794C42.0333 8.26148 42.0152 8.12236 41.9546 7.99604C41.7772 7.62749 41.3205 7.50013 40.9345 7.71118C40.5486 7.92223 40.3795 8.39284 40.557 8.76133C40.7339 9.12987 41.1917 9.25772 41.5768 9.04606ZM48.7465 12.9958C49.0526 12.9682 49.2996 13.1938 49.2996 13.4972C49.2996 13.802 49.0526 14.0712 48.7465 14.0989C48.4405 14.1265 48.1933 13.9018 48.1933 13.5971C48.1934 13.2936 48.4405 13.0235 48.7465 12.9958ZM46.8218 13.1696C47.1281 13.1419 47.3756 13.3674 47.3756 13.6709C47.3756 13.9755 47.1282 14.2449 46.8218 14.2725C46.5159 14.3002 46.2687 14.0754 46.2687 13.7708C46.2687 13.4673 46.5158 13.1971 46.8218 13.1696ZM51.0572 16.7278C51.043 16.7273 51.0367 16.7271 51.0348 16.727C51.0379 16.7271 51.0481 16.7275 51.0572 16.7278ZM49.7928 18.1301L48.6697 18.2225V23.9028L49.959 23.7967C50.2416 23.7735 50.4632 23.7476 50.6237 23.7192C50.7841 23.6908 50.9503 23.6391 51.1222 23.564C51.2941 23.489 51.443 23.3911 51.5692 23.2703C52.1384 22.7439 52.423 21.8947 52.423 20.7225C52.423 19.8967 52.2977 19.2884 52.0477 18.898C51.7974 18.5076 51.4889 18.2713 51.1222 18.1892C50.7556 18.1071 50.3122 18.0873 49.7928 18.1301ZM31.6051 23.3828L34.1149 23.1763L32.8484 19.8267L31.6051 23.3828ZM61.744 17.634C61.6624 17.634 61.6595 17.692 61.6595 17.692C61.6596 17.6991 61.6602 17.7062 61.6602 17.7133C61.6602 17.9151 61.5885 18.1027 61.4453 18.2762C61.302 18.4498 61.1234 18.5453 60.9095 18.5629C60.7147 18.5789 60.5665 18.5426 60.4654 18.4538C60.3641 18.3652 60.2543 18.2153 60.1359 18.0043C59.983 17.701 59.7997 17.4697 59.5858 17.3102C59.3718 17.1509 59.028 17.0906 58.5543 17.1296C58.1149 17.1658 57.7607 17.2911 57.4913 17.5053C57.222 17.7198 57.0873 17.962 57.0873 18.2322C57.0873 18.3997 57.1332 18.5406 57.2249 18.6548C57.3166 18.7691 57.4426 18.8634 57.6031 18.9377C57.7636 19.0121 57.9259 19.0673 58.0902 19.1032C58.2544 19.1391 58.5256 19.1892 58.9039 19.2531C59.3775 19.3246 59.8064 19.4111 60.1903 19.5127C60.5743 19.6144 60.9009 19.7492 61.1701 19.9173C61.4395 20.0855 61.6495 20.3089 61.8004 20.5877C61.8089 20.6033 61.8162 20.62 61.8243 20.6361V17.6921C61.8243 17.6919 61.8137 17.634 61.744 17.634ZM47.6228 17.0063C47.5888 17.0169 47.5558 17.0282 47.5246 17.0408L47.6228 17.0322V17.0063ZM51.0711 16.7282C51.0671 16.7281 51.0651 16.728 51.0618 16.7279C51.067 16.7281 51.0711 16.7282 51.0711 16.7282ZM60.4855 24.0781C59.9812 24.348 59.3833 24.5114 58.6919 24.5682C57.8629 24.6364 57.1792 24.5366 56.6405 24.2689C56.2585 24.0757 55.948 23.8016 55.7093 23.4463C55.4705 23.0911 55.3512 22.7365 55.3512 22.3825C55.3512 22.1769 55.4228 21.9951 55.5659 21.8368C55.7092 21.6785 55.8916 21.5902 56.1132 21.5719C56.2928 21.5572 56.4446 21.6018 56.5688 21.7057C56.6928 21.8097 56.7989 21.9704 56.8868 22.1876C56.9936 22.4453 57.1093 22.6585 57.2334 22.8271C57.3576 22.9959 57.5323 23.1289 57.7578 23.2264C57.9831 23.3239 58.2792 23.3576 58.646 23.3275C59.1502 23.2859 59.5599 23.1352 59.875 22.8752C60.1903 22.6152 60.3478 22.3102 60.3478 21.96C60.3478 21.6823 60.2628 21.4638 60.0929 21.3046C59.9228 21.1454 59.7032 21.0312 59.4339 20.962C59.1645 20.8928 58.8044 20.8254 58.3537 20.7597C57.75 20.6687 57.2449 20.5455 56.838 20.3906C56.4312 20.2357 56.1083 20.0053 55.8697 19.6996C55.6308 19.3938 55.5114 18.9993 55.5114 18.5159C55.5114 18.0554 55.6375 17.636 55.8897 17.2575C56.1418 16.879 56.5066 16.574 56.9841 16.3425C57.1179 16.2777 57.259 16.2206 57.406 16.1698L51.071 16.7282C51.3029 16.7357 51.5172 16.7561 51.7124 16.7904C52.1249 16.8631 52.4993 17.0321 52.8354 17.2975C53.7102 17.9715 54.1476 19.0697 54.1476 20.592C54.1476 21.0943 54.1036 21.5566 54.0159 21.9786C53.928 22.4007 53.7924 22.7858 53.6091 23.1338C53.4256 23.4819 53.1907 23.7991 52.9042 24.0852C52.6787 24.3056 52.4323 24.4876 52.165 24.6314C51.8975 24.7752 51.6101 24.8845 51.3025 24.9591C50.995 25.0339 50.6483 25.0872 50.2625 25.1189L48.0449 25.3014C47.7355 25.3269 47.5024 25.2995 47.3459 25.2191C47.1892 25.1388 47.087 25.0158 47.0392 24.8504C46.9914 24.685 46.9676 24.4672 46.9676 24.1969V18.0599C46.9676 17.6945 47.0497 17.4233 47.214 17.2462C47.2936 17.1604 47.3974 17.0922 47.5244 17.0409L44.8638 17.2755C44.8697 17.2813 44.8761 17.2864 44.8819 17.2925C45.0231 17.4427 45.0938 17.6794 45.0938 18.0029V24.5851C45.0938 25.3197 44.7882 25.7121 44.177 25.7623C44.0242 25.775 43.8867 25.7643 43.7645 25.7307C43.6422 25.6969 43.5276 25.6369 43.4207 25.5506C43.3136 25.4643 43.2144 25.3612 43.1228 25.2411C43.031 25.1211 42.9394 24.9984 42.8477 24.8727L39.6559 20.2599V25.1638C39.6559 25.4835 39.5814 25.7313 39.4325 25.9072C39.2835 26.083 39.0924 26.1807 38.8595 26.1998C38.6188 26.2196 38.4258 26.1527 38.2807 25.999C38.1354 25.8454 38.0629 25.6108 38.0629 25.2949V18.8381C38.0629 18.5641 38.0934 18.3467 38.1546 18.1855C38.2066 18.0582 38.2838 17.9454 38.3852 17.8465L33.6704 18.2621C33.7332 18.3139 33.7888 18.3725 33.8369 18.4379C33.9343 18.5708 34.0164 18.7153 34.0833 18.8715C34.1501 19.0278 34.2351 19.2368 34.3382 19.4985L36.533 24.7184C36.7049 25.1154 36.7909 25.407 36.7909 25.5936C36.7909 25.7876 36.7096 25.9722 36.5473 26.1474C36.385 26.3224 36.1892 26.4194 35.96 26.4383C35.8262 26.4493 35.7116 26.4349 35.6162 26.3952C35.5207 26.3555 35.4405 26.2975 35.3755 26.2209C35.3105 26.1445 35.2409 26.0246 35.1664 25.8613C35.0918 25.6982 35.0278 25.554 34.9744 25.429L34.5733 24.4116L31.1581 24.6925L30.7569 25.7988C30.6002 26.2304 30.4665 26.524 30.3558 26.6796C30.245 26.835 30.0636 26.9234 29.8114 26.9441C29.5974 26.9617 29.4084 26.8992 29.2442 26.7567C29.0799 26.6142 28.9978 26.4439 28.9978 26.2461C28.9978 26.1319 29.0168 26.0123 29.055 25.8873C29.0932 25.7625 29.1563 25.5879 29.2442 25.3638L31.393 19.7521C31.454 19.5911 31.5276 19.3977 31.6136 19.1717C31.6996 18.9459 31.7912 18.7566 31.8886 18.6039C31.9345 18.532 31.9874 18.466 32.0468 18.4052L26.534 18.8912C26.5808 18.9049 26.6267 18.9195 26.6713 18.9361C26.9348 19.0248 27.1678 19.1635 27.3703 19.3524C27.5728 19.5412 27.7265 19.7675 27.8316 20.0309C27.9367 20.2944 27.9892 20.5783 27.9892 20.8828C27.9892 21.5069 27.8124 22.0201 27.4591 22.4221C27.1057 22.8242 26.57 23.1327 25.8518 23.3479C26.1535 23.4829 26.4421 23.6952 26.7171 23.9846C26.9922 24.274 27.2376 24.5859 27.4534 24.9201C27.6692 25.2546 27.8374 25.5585 27.9577 25.8321C28.0781 26.1058 28.1382 26.2959 28.1382 26.4023C28.1382 26.5128 28.1028 26.6251 28.0322 26.7394C27.9614 26.8537 27.865 26.9472 27.7428 27.0201C27.6205 27.0929 27.4792 27.136 27.3188 27.1492C27.1277 27.1649 26.9672 27.1333 26.8374 27.0546C26.7074 26.9759 26.5958 26.8717 26.5022 26.7425C26.4085 26.6132 26.2816 26.4219 26.1211 26.1687L25.4392 25.0944C25.1947 24.6998 24.976 24.4019 24.7832 24.2008C24.5902 23.9997 24.3943 23.8675 24.1958 23.8038C23.9971 23.7402 23.7468 23.7209 23.4451 23.7457L22.8492 23.7947V26.4836C22.8492 26.8375 22.7709 27.1047 22.6143 27.285C22.4576 27.4654 22.2533 27.566 22.0011 27.5867C21.7298 27.609 21.5198 27.5387 21.3708 27.3759C21.2218 27.2132 21.1474 26.9624 21.1474 26.6236V20.1841C21.1474 19.8187 21.2294 19.5475 21.3937 19.3703C21.403 19.3603 21.4138 19.3513 21.4238 19.3417L18.0605 19.6382C18.1412 19.6673 18.2192 19.7007 18.2937 19.7395C18.4923 19.8412 18.668 19.9762 18.8209 20.1443C18.9736 20.3126 19.0902 20.5028 19.1704 20.715C19.2506 20.9272 19.2908 21.1552 19.2908 21.3987C19.2908 22.236 18.8704 22.8833 18.0301 23.3406C19.1341 23.5999 19.6861 24.2358 19.6861 25.2481C19.6861 25.7162 19.5658 26.1477 19.3251 26.5423C19.0844 26.9371 18.7597 27.2406 18.351 27.4531C18.0951 27.5807 17.8009 27.6801 17.4685 27.7512C17.1362 27.8224 16.7484 27.8761 16.3053 27.9125L13.7381 28.1237C13.3675 28.1542 13.1029 28.0932 12.9445 27.9406C12.9292 27.9259 12.9149 27.9099 12.901 27.8933V28.2247C12.901 28.2247 12.9328 28.2858 12.9946 28.3019C15.1 28.8518 52.0387 38.5 52.0387 38.5L61.8243 23.1351V22.6639C61.7711 22.7912 61.7086 22.9154 61.6344 23.036C61.3727 23.4611 60.9897 23.8083 60.4855 24.0781ZM61.8379 22.6316C61.8344 22.6399 61.8306 22.649 61.8264 22.6592C61.8287 22.6536 61.833 22.6433 61.8379 22.6316ZM65.1005 7.01691C64.5777 6.61573 63.9353 6.44726 63.1913 6.51433C62.2598 6.59839 61.5579 6.72004 61.094 6.88021C60.763 7.00617 60.7274 7.25258 60.7274 7.3524V7.96335C60.7274 8.08185 60.7589 8.17955 60.8201 8.25366C60.8987 8.34748 61.016 8.39224 61.1509 8.38005C61.1732 8.37805 61.2274 8.36852 61.2493 8.36197C61.6087 8.25281 62.2621 8.15584 63.1914 8.07196C63.4309 8.05037 63.6368 8.1206 63.8093 8.28799C63.9827 8.44621 64.0697 8.6427 64.0697 8.87085V9.27494L61.9958 9.46209C61.2504 9.52935 60.6034 9.81887 60.071 10.3236C59.5401 10.8265 59.2706 11.4385 59.2706 12.1429C59.2706 12.8568 59.5451 13.4294 60.0867 13.8456C60.609 14.2448 61.2511 14.4142 61.9958 14.3471L65.4454 14.0358C65.7137 14.0116 65.9013 13.8079 65.9013 13.5416V8.70553C65.9013 8.00222 65.6242 7.4179 65.1005 7.01691ZM64.0696 12.5891L61.9957 12.7763C61.747 12.7987 61.5342 12.7312 61.3625 12.5736C61.1895 12.4152 61.1019 12.2155 61.1019 11.9776C61.1019 11.7493 61.1895 11.537 61.3625 11.3487C61.5342 11.1612 61.747 11.055 61.9957 11.0326L64.0696 10.8454V12.5891ZM22.8492 22.5788L24.3734 22.4535C24.7822 22.4198 25.126 22.3564 25.4049 22.2629C25.6837 22.1696 25.8967 22.0322 26.0438 21.8507C26.1908 21.6693 26.2644 21.4301 26.2644 21.1332C26.2644 20.9011 26.2051 20.7014 26.0868 20.5341C25.9683 20.3669 25.804 20.2482 25.5939 20.1779C25.3953 20.1106 25.0037 20.1009 24.4192 20.1489L22.8491 20.2781V22.5788H22.8492ZM17.5143 24.3821C17.2164 24.2164 16.7713 24.1578 16.1792 24.2065L14.4086 24.3521V26.7954L16.2365 26.6451C17.3864 26.5505 17.9614 26.0903 17.9614 25.2644C17.9613 24.842 17.8123 24.5479 17.5143 24.3821ZM17.8812 18.3286L18.7706 18.2483C19.0522 18.2229 19.2412 18.0235 19.2412 17.7528V12.9168C19.2412 12.6905 19.3307 12.4716 19.5018 12.2739C19.6733 12.0865 19.8862 11.9804 20.1349 11.958L21.3312 11.85C21.5707 11.8284 21.776 11.8987 21.9488 12.0661C22.1218 12.2243 22.209 12.4208 22.209 12.6489V17.4849C22.209 17.7556 22.3985 17.9208 22.6802 17.8955L23.5852 17.8137C23.8533 17.7896 24.0408 17.5858 24.0408 17.3196V12.4836C24.0408 11.7636 23.7647 11.1952 23.2247 10.7964C22.7022 10.3951 22.0652 10.2262 21.3312 10.2924L20.1349 10.4003C19.3984 10.4669 18.7518 10.7507 18.2108 11.2489C17.6871 11.7437 17.41 12.3778 17.41 13.0821V17.9181C17.4101 18.1887 17.5996 18.354 17.8812 18.3286ZM18.0605 19.6382C18.0569 19.637 18.055 19.6363 18.0523 19.6353C18.0569 19.6369 18.0605 19.6382 18.0605 19.6382ZM14.4085 23.1361L15.9672 23.008C16.3912 22.9731 16.7187 22.9062 16.9499 22.8072C17.181 22.7083 17.3577 22.5416 17.48 22.3069C17.5754 22.1392 17.6232 21.9564 17.6232 21.7585C17.6232 21.336 17.4723 21.0679 17.1706 20.9537C16.8688 20.8396 16.4084 20.808 15.7896 20.8589L14.4086 20.9725V23.1361H14.4085ZM15.73 18.0697V13.2337C15.73 12.5304 15.453 11.9461 14.929 11.5451C14.4061 11.1439 13.7634 10.9755 13.0198 11.0425C12.0882 11.1266 11.3863 11.2482 10.9221 11.4084C10.5913 11.5344 10.5558 11.7808 10.5558 11.8806V12.4915C10.5558 12.61 10.5873 12.7077 10.6482 12.7819C10.7268 12.8757 10.8444 12.9204 10.9793 12.9082C11.0015 12.9062 11.0558 12.8967 11.0775 12.8902C11.4374 12.7809 12.0905 12.684 13.0198 12.6002C13.259 12.5786 13.4652 12.6488 13.638 12.8162C13.8108 12.9745 13.898 13.1709 13.898 13.399V13.8032L11.8243 13.9903C11.0792 14.0575 10.4319 14.3471 9.89986 14.8517C9.36828 15.3547 9.09875 15.9667 9.09875 16.6711C9.09875 17.3849 9.37351 17.9581 9.91537 18.3737C10.4374 18.773 11.0796 18.9423 11.8243 18.8751L15.2739 18.5638C15.5425 18.5396 15.73 18.3359 15.73 18.0697ZM13.898 17.1173L11.8242 17.3045C11.5755 17.3269 11.3623 17.2595 11.1911 17.1018C11.0177 16.9435 10.9305 16.7437 10.9305 16.5058C10.9305 16.2775 11.0177 16.0652 11.1911 15.8769C11.3623 15.6894 11.5755 15.5832 11.8242 15.5608L13.898 15.3736V17.1173Z" fill="#B6C1E1"/>
</svg>
