<svg width="85" height="45" viewBox="0 0 85 45" fill="none" xmlns="http://www.w3.org/2000/svg">
<path d="M53.3448 9.71614C53.7699 10.1682 54.7076 10.3537 56.1755 10.1636C56.8359 10.0781 57.4886 9.93254 58.1216 9.79134C58.4016 9.72889 58.6777 9.66729 58.9489 9.61214C57.301 11.1602 55.1198 11.5209 52.9252 11.8839C52.8291 11.8998 52.7329 11.9157 52.6368 11.9317C53.0209 12.5578 54.3121 13.0635 57.5783 13.959C57.2805 13.998 56.9828 14.0406 56.685 14.0832C54.8336 14.3482 52.9795 14.6135 51.0897 14.0222C51.8607 15.4909 53.1845 16.2435 54.5101 16.9972C54.7979 17.1608 55.0858 17.3244 55.3681 17.4955C53.2685 17.6977 51.5243 16.761 49.6566 15.6857C50.5573 17.5537 50.433 19.3997 50.272 21.2672C50.0065 20.834 49.777 20.3786 49.5467 19.9215C49.0303 18.8966 48.5096 17.8634 47.5704 17.0551C47.5183 17.5313 47.4911 18.0091 47.4641 18.4853C47.3897 19.797 47.3159 21.0964 46.7228 22.3146C46.7 22.0851 46.6794 21.8553 46.6588 21.6256C46.6121 21.1038 46.5653 20.582 46.4924 20.0638C46.3863 19.3079 46.0564 18.6366 45.5905 18.0002C44.6645 19.5693 45.0104 21.1233 45.5984 22.7289C44.7366 22.2867 44.3914 21.6612 43.5355 19.0908C43.0625 19.7067 42.9235 20.3832 43.0947 21.0549C43.2498 21.6631 43.5019 22.2831 43.8583 22.7957C44.2254 23.3236 44.6225 23.8305 45.0228 24.3414C45.3677 24.7817 45.715 25.225 46.0473 25.6872C45.6561 25.4418 45.2652 25.1966 44.7712 24.8865L45.632 27.4261C45.6037 27.4423 45.5755 27.4586 45.5473 27.4749L45.5156 27.4932L44.0813 25.8537L43.9966 25.8845C44.2265 26.7791 44.4562 27.6738 44.6859 28.5685L44.7082 28.6553L44.6678 28.6732C44.6434 28.6841 44.619 28.6949 44.5946 28.7056L43.2388 26.4226C43.1246 27.1388 43.0149 27.8278 42.9073 28.5032C42.8008 29.1711 42.6965 29.8259 42.5921 30.4806C42.5757 30.4805 42.5593 30.4804 42.5429 30.4804C42.5188 30.4803 42.4946 30.4802 42.4705 30.4801C42.34 29.6532 42.2095 28.8263 42.0742 27.9696L41.8286 26.414L40.4673 28.7047L40.3545 28.6541L41.0689 25.8885L40.9966 25.8413L39.5465 27.4939C39.5076 27.4713 39.4686 27.4489 39.4297 27.4265L39.427 27.4249C39.5984 26.9261 39.7697 26.4273 39.9518 25.8974L40.3048 24.87C40.018 25.0572 39.7647 25.2226 39.5258 25.3785C39.3416 25.4988 39.1661 25.6134 38.9905 25.728L38.9161 25.6502C39.0077 25.5437 39.1009 25.4383 39.1941 25.333C39.3985 25.102 39.6028 24.8709 39.7906 24.6272C39.9174 24.4626 40.0453 24.2987 40.1734 24.1348C40.6472 23.5281 41.1215 22.9207 41.5381 22.2764C42.0557 21.4757 42.1816 20.5733 41.8491 19.6482C41.8059 19.5281 41.7433 19.4148 41.6607 19.2652C41.6158 19.1839 41.5649 19.0918 41.508 18.982C41.2616 20.5478 40.7266 21.7958 39.5437 22.7015C40.0386 21.1372 40.4065 19.5917 39.48 18.0198C38.4973 19.2407 38.4178 20.6903 38.3376 22.1542C38.3347 22.2073 38.3318 22.2603 38.3288 22.3134C37.7432 21.1181 37.6736 19.8414 37.6031 18.5486C37.5761 18.0521 37.5489 17.5533 37.4923 17.0558C36.5445 17.8606 36.0212 18.9051 35.4993 19.9471C35.2769 20.391 35.0548 20.8344 34.8002 21.2586C34.6315 19.4085 34.492 17.5716 35.3152 15.7926C33.5412 16.7663 31.7832 17.6961 29.6803 17.4962C29.9524 17.3334 30.2293 17.1771 30.5061 17.0208C31.8485 16.263 33.1892 15.5062 33.9713 14.0157C32.102 14.61 30.2612 14.3461 28.4158 14.0815C28.1273 14.0401 27.8386 13.9988 27.5497 13.9606C27.7565 13.9005 27.9636 13.8419 28.1707 13.7832C29.6546 13.363 31.133 12.9443 32.4296 12.0077C32.2204 11.9654 32.011 11.9243 31.8017 11.8832C29.7229 11.4752 27.6623 11.0708 26.0512 9.51434C27.9154 10.203 29.7917 10.5145 31.8736 9.82873C31.531 9.59491 31.181 9.38228 30.8362 9.17283C29.7244 8.49748 28.667 7.85511 28.0885 6.64143C28.607 6.84371 29.116 7.04232 29.6201 7.23903C30.1533 7.4471 30.6811 7.65304 31.2088 7.85892L31.339 7.69218C30.482 6.73828 29.8518 5.66631 29.5515 4.39396C29.7693 4.54153 29.9764 4.70626 30.1847 4.87195C30.7188 5.29683 31.2608 5.72803 32.0127 5.89244C31.3987 4.83287 30.8434 3.81146 30.7513 2.5L32.9014 4.903C32.9192 4.76451 32.9303 4.62694 32.9412 4.49331C32.992 3.86669 33.0358 3.32661 33.7182 3.18388C34.1492 3.09371 34.4502 3.41764 34.6826 3.75732C34.6731 3.77323 34.6657 3.78867 34.6593 3.80232C34.6474 3.82711 34.6385 3.84598 34.6246 3.85106C33.8451 4.13181 33.831 4.20027 34.3498 4.83811C34.4481 4.95881 34.5473 5.15513 34.5192 5.29014C34.1149 7.23849 35.2789 9.38601 37.1335 10.1135C37.6993 10.3356 38.2554 10.5899 38.7947 10.8702C39.6381 11.3088 40.1166 11.9705 39.9542 12.9762C39.9339 13.1021 39.9351 13.2324 39.9365 13.3605C39.942 13.8666 40.1639 14.1484 40.531 14.1231C40.9675 14.093 41.1924 13.7588 41.123 13.1882C41.0659 13.2326 41.012 13.2744 40.96 13.3148C40.8878 13.3709 40.8193 13.4241 40.7507 13.4774C40.7025 13.475 40.6541 13.4723 40.6059 13.47C40.6397 12.8533 40.6736 12.2367 40.7084 11.6003C40.6481 11.6414 40.5701 11.6943 40.4577 11.7709C40.1839 10.8582 40.4456 10.1069 41.0956 9.44827C40.4399 9.30252 40.4356 9.30396 39.344 10.0145C39.4559 9.61238 39.7991 9.17419 40.2648 9.03083C40.4727 8.96688 40.6883 8.92806 40.9078 8.88854C41.1582 8.84345 41.4138 8.79745 41.6688 8.71215C41.1595 8.67017 40.6502 8.62819 40.0324 8.57714C40.4239 8.24534 40.8465 8.1733 41.2471 8.21529C42.4743 8.34362 43.5336 8.93661 44.5515 9.57565C45.0207 9.87024 44.9944 10.5842 44.6438 11.1035C44.5829 11.0631 44.52 11.0101 44.4571 10.9572C44.3191 10.841 44.1817 10.7253 44.0684 10.7454C43.7395 10.8042 43.4249 10.9501 43.1137 11.0943C43.0474 11.1251 42.9812 11.1558 42.9151 11.1855C42.8865 11.1984 42.9111 11.3938 42.9521 11.4861C43.2708 12.2038 43.5973 12.9182 43.9265 13.6314C44.0715 13.9451 44.2927 14.1889 44.6695 14.1107C45.0894 14.0236 45.1235 13.671 45.1297 13.3178C45.1318 13.1944 45.1285 13.0695 45.1253 12.9446C45.1172 12.6342 45.109 12.3232 45.1833 12.034C45.3248 11.4837 45.7618 11.1175 46.2637 10.8652C46.3223 10.8357 46.3808 10.806 46.4395 10.7764C46.8675 10.5597 47.2982 10.3417 47.749 10.1875C49.5142 9.58376 50.2956 8.23055 50.5804 6.51096C50.6202 6.27085 50.595 6.02078 50.5696 5.76967C50.5536 5.61141 50.5375 5.45273 50.5377 5.29586C50.538 5.15441 50.5912 4.98624 50.6782 4.87652C51.2445 4.16282 51.2457 4.15066 50.3531 3.79643C50.6031 3.42814 50.9075 3.08918 51.3483 3.18698C52.0966 3.35302 52.1019 3.98593 52.1076 4.65483C52.108 4.69895 52.1084 4.74323 52.109 4.78754C52.6772 4.4297 53.0719 3.9441 53.4734 3.45024C53.7297 3.13491 53.9888 2.81623 54.2975 2.52528C54.2349 3.77581 53.683 4.76321 53.1007 5.80495C53.0817 5.83882 53.0628 5.87275 53.0438 5.90675C53.8924 5.69334 54.4865 5.18941 55.1245 4.64816C55.2824 4.51426 55.4429 4.37808 55.6106 4.24345C55.2075 5.6093 54.6267 6.72206 53.7708 7.71746C54.902 7.56337 55.9176 7.14951 56.9116 6.62784C56.3559 7.88399 55.278 8.53349 54.2012 9.18233C53.9123 9.35641 53.6234 9.53045 53.3448 9.71614Z" fill="#B6C1E1"/>
<path d="M29.8815 34.5629C29.8858 34.9768 29.5626 35.3066 29.1517 35.3077C28.7365 35.3087 28.4165 34.9886 28.4156 34.571C28.4149 34.1532 28.7332 33.8263 29.1434 33.8236C29.5525 33.8208 29.8773 34.1462 29.8815 34.5629Z" fill="#B6C1E1"/>
<path d="M26.7741 39.4257C27.1309 39.4801 27.4818 39.4656 27.8086 39.2847C27.8196 39.2787 27.8341 39.2788 27.8486 39.279C27.8553 39.2791 27.862 39.2791 27.8683 39.2786C27.8676 39.299 27.8745 39.3244 27.865 39.3393C27.5614 39.8101 27.1663 40.1658 26.6054 40.2916C26.2079 40.3808 25.8215 40.3358 25.4704 40.1158C25.2001 39.9465 25.0595 39.6982 25.0609 39.3742C25.0641 38.5726 25.0666 37.7708 25.067 36.9689C25.067 36.9342 25.0525 36.8934 25.0313 36.8656C24.9655 36.7793 24.8973 36.6949 24.8291 36.6105C24.7979 36.5718 24.7667 36.5332 24.7357 36.4943C24.6756 36.4191 24.6761 36.4188 24.7546 36.3694C25.2764 36.0413 25.7674 35.6721 26.2293 35.2641C26.248 35.2476 26.2663 35.2305 26.2845 35.2134C26.311 35.1885 26.3374 35.1637 26.3654 35.1406C26.3818 35.127 26.4071 35.1239 26.4282 35.116C26.4305 35.1227 26.4334 35.1295 26.4364 35.1363C26.4428 35.151 26.4491 35.1656 26.4483 35.1799C26.4373 35.375 26.4252 35.57 26.4131 35.765C26.4082 35.8425 26.4034 35.92 26.3987 35.9975C26.3979 36.009 26.3981 36.0206 26.3983 36.0352C26.3984 36.0422 26.3985 36.0499 26.3985 36.0586L27.8113 36.012C27.7998 36.045 27.7894 36.077 27.7794 36.1082C27.7583 36.1732 27.7386 36.2343 27.7117 36.2922C27.5777 36.5805 27.5752 36.5804 27.2637 36.5751L27.2609 36.5751L26.4799 36.5616C26.4551 36.5613 26.4302 36.5616 26.397 36.5616V36.6519C26.397 36.9098 26.3969 37.1677 26.3969 37.4256C26.3969 37.9415 26.3969 38.4573 26.397 38.9732C26.397 39.2438 26.5073 39.385 26.7741 39.4257Z" fill="#B6C1E1"/>
<path d="M34.1441 39.0069C34.1504 39.0003 34.1566 38.9937 34.1628 38.9871C34.1707 38.9882 34.1786 38.9894 34.1865 38.9908C34.1859 38.9999 34.186 39.0092 34.1861 39.0185C34.1863 39.0386 34.1864 39.0587 34.1799 39.0763C34.0524 39.4231 33.8342 39.7025 33.5462 39.9316C32.6095 40.6767 31.1176 40.3394 30.6392 39.2665C30.2663 38.4304 30.3632 37.6195 30.9129 36.8903C31.4004 36.2437 32.0742 35.9254 32.8856 35.9228C33.2347 35.9216 33.5714 35.9953 33.8595 36.2103C34.0333 36.34 34.1364 36.5119 34.1071 36.7372C34.0809 36.9394 33.9243 37.0992 33.7228 37.1452C33.5157 37.1924 33.317 37.1191 33.2029 36.941C33.1605 36.8746 33.1279 36.802 33.0953 36.7294C33.085 36.7065 33.0747 36.6836 33.0641 36.6609C33.0492 36.629 33.0357 36.5963 33.0222 36.5637C33.0046 36.5209 32.9869 36.4781 32.966 36.437C32.8719 36.2516 32.7331 36.1873 32.5289 36.2332C32.2491 36.2958 32.0761 36.4879 31.9487 36.7276C31.7591 37.084 31.7196 37.4695 31.7492 37.865C31.7722 38.1706 31.8453 38.4625 31.995 38.7335C32.3812 39.432 33.1994 39.5497 33.6918 39.3424C33.8495 39.276 33.9856 39.1793 34.101 39.0532C34.1152 39.0376 34.1296 39.0223 34.1441 39.0069Z" fill="#B6C1E1"/>
<path d="M29.7718 39.5785C29.7721 39.6803 29.7776 39.7831 29.7924 39.8837C29.8131 40.0234 29.8577 40.0616 29.9995 40.0886C30.0266 40.0938 30.0533 40.1007 30.0819 40.1073V40.2289H28.1235V40.1071C28.1655 40.0974 28.2095 40.0876 28.2533 40.0771C28.3359 40.0573 28.3917 40.007 28.4027 39.9224C28.4172 39.8115 28.4306 39.6993 28.4311 39.5876C28.4325 39.1945 28.4327 38.8016 28.4328 38.4086C28.433 38.0406 28.4331 37.6726 28.4343 37.3046C28.4349 37.1547 28.403 37.0177 28.322 36.8906C28.2863 36.8346 28.2532 36.7769 28.2201 36.7191C28.1961 36.6772 28.1721 36.6353 28.1471 36.5941C28.1178 36.546 28.1201 36.5201 28.1808 36.5008C28.7059 36.334 29.2196 36.1378 29.7223 35.9126C29.7855 35.8842 29.8053 35.8965 29.8036 35.9559C29.8001 36.0786 29.796 36.2014 29.7918 36.3241C29.7819 36.6198 29.7719 36.9155 29.7701 37.2112C29.7661 37.8652 29.7683 38.5191 29.7705 39.173C29.7709 39.3082 29.7714 39.4434 29.7718 39.5785Z" fill="#B6C1E1"/>
<path d="M21.7738 39.5906C21.7992 39.7329 21.8567 39.7882 21.9981 39.8115C22.0153 39.8142 22.0325 39.8168 22.0472 39.8198C22.0731 39.8873 22.0481 39.9122 21.9845 39.9278L21.8753 39.9547C21.417 40.0678 20.9587 40.1809 20.5025 40.3022C20.3593 40.3403 20.363 40.3195 20.3766 40.2419C20.3786 40.2305 20.3808 40.2178 20.3828 40.204C20.3993 40.0905 20.4073 39.9759 20.4158 39.8545C20.4195 39.8009 20.4234 39.746 20.4281 39.6893C20.3942 39.7126 20.3764 39.7237 20.36 39.7364C20.0544 39.9712 19.7271 40.1646 19.355 40.276C18.681 40.4778 18.1604 40.1053 18.0439 39.4409C18.0224 39.3185 18.0145 39.1923 18.014 39.0679C18.0119 38.5089 18.0122 37.95 18.0125 37.3911C18.0126 37.2044 18.0126 37.0176 18.0126 36.8309C18.0126 36.5881 17.9446 36.4974 17.7127 36.4261C17.6861 36.4178 17.647 36.4045 17.6404 36.3847C17.626 36.3409 17.6271 36.2966 17.6979 36.2905C18.2486 36.2431 18.7866 36.1294 19.3159 35.9728C19.3869 35.952 19.3944 35.9619 19.3933 36.0438C19.3909 36.233 19.3884 36.4223 19.3858 36.6116C19.377 37.2698 19.3681 37.928 19.3654 38.5862C19.3646 38.766 19.3885 38.9485 19.4249 39.1249C19.4915 39.4487 19.6756 39.6031 20.0034 39.6237C20.0821 39.6287 20.1613 39.6245 20.2406 39.6203C20.2839 39.618 20.3272 39.6157 20.3704 39.6149C20.41 39.6141 20.4258 39.5974 20.4225 39.5588C20.4214 39.545 20.4217 39.5311 20.4221 39.5172C20.4222 39.5106 20.4224 39.504 20.4224 39.4975V36.8621C20.4224 36.8581 20.4224 36.8541 20.4224 36.8501C20.4225 36.8413 20.4225 36.8325 20.4224 36.8238C20.4209 36.5887 20.3566 36.4972 20.1288 36.4318C20.0549 36.4106 20.0333 36.3775 20.0549 36.3054C20.1212 36.2958 20.1873 36.2872 20.2533 36.2787C20.399 36.2598 20.5435 36.2411 20.6858 36.2117C20.9628 36.1544 21.238 36.0881 21.5131 36.0219C21.5772 36.0065 21.6413 35.991 21.7054 35.9757C21.7912 35.9552 21.7965 35.9572 21.7957 36.0453C21.7848 37.1864 21.7744 38.3277 21.7644 39.4688C21.7641 39.5094 21.7667 39.5506 21.7738 39.5906Z" fill="#B6C1E1"/>
<path d="M16.7763 39.6069L16.777 39.6095C16.8433 39.8761 17.0203 40.0188 17.2876 40.0573C17.3782 40.0703 17.4692 40.0801 17.5648 40.0919V40.2294H14.4372V40.0964C14.4782 40.0908 14.5192 40.0859 14.5602 40.0811C14.6507 40.0703 14.7409 40.0595 14.8297 40.0418C15.0653 39.9948 15.1785 39.8751 15.1764 39.6362C15.1739 39.3536 15.1511 39.0707 15.124 38.7891C15.0875 38.4099 15.0457 38.0312 15.0039 37.6524C14.9897 37.5238 14.9755 37.3953 14.9615 37.2667C14.9333 37.0068 14.9048 36.7469 14.8762 36.487C14.8504 36.2523 14.8246 36.0176 14.7991 35.7829C14.7809 35.6156 14.7634 35.4483 14.7458 35.281C14.7362 35.1895 14.7266 35.098 14.7169 35.0065C14.7152 34.9918 14.7123 34.9774 14.6967 34.9584C14.6939 34.9649 14.6909 34.9713 14.6879 34.9778C14.6814 34.9919 14.6749 35.0061 14.6697 35.0208C14.3326 35.9691 13.9958 36.9175 13.6589 37.8659L13.2763 38.9432C13.1283 39.3597 12.9803 39.7762 12.8308 40.1923C12.8249 40.2089 12.8113 40.2226 12.7977 40.2364C12.7914 40.2428 12.7852 40.2491 12.7796 40.2558C12.7738 40.2492 12.7671 40.2429 12.7604 40.2366C12.7462 40.2233 12.732 40.2099 12.7259 40.1935C12.3923 39.3097 12.06 38.4254 11.7277 37.541L11.6382 37.3027C11.3469 36.5276 11.0557 35.7524 10.7642 34.9773C10.7606 34.9675 10.7564 34.958 10.7507 34.9453C10.7458 34.9344 10.7397 34.9212 10.7319 34.9035C10.7267 34.9476 10.7218 34.9896 10.717 35.0302C10.7062 35.1213 10.6964 35.205 10.6871 35.2888C10.6264 35.8418 10.5659 36.3947 10.506 36.9476C10.4526 37.4397 10.3993 37.932 10.3477 38.4242C10.3425 38.4732 10.3373 38.5222 10.3321 38.5712C10.3045 38.8317 10.2768 39.0923 10.2583 39.3536C10.2499 39.4713 10.2657 39.5929 10.287 39.7099C10.3112 39.8424 10.4002 39.9398 10.527 39.9755C10.674 40.0169 10.8262 40.041 10.9777 40.0649L11.0126 40.0705C11.0728 40.08 11.134 40.0823 11.1972 40.0847C11.2263 40.0858 11.2559 40.0869 11.2859 40.0887V40.2295H8.95935V40.1005C8.98694 40.0972 9.01452 40.0943 9.04205 40.0913C9.1034 40.0848 9.16449 40.0784 9.22478 40.0676C9.51045 40.0165 9.70524 39.8521 9.77987 39.5729C9.83688 39.3595 9.87274 39.1396 9.90385 38.9206C9.95281 38.5751 9.99675 38.2288 10.0407 37.8826C10.0552 37.7683 10.0697 37.654 10.0844 37.5396C10.1333 37.1592 10.1817 36.7786 10.2301 36.3981L10.2586 36.1734C10.2694 36.089 10.2806 36.0046 10.2919 35.9203C10.3208 35.7037 10.3498 35.4871 10.3697 35.2697C10.3848 35.1057 10.384 34.9373 10.3648 34.7737C10.3291 34.4692 10.1668 34.3117 9.86309 34.2633C9.7865 34.2511 9.70914 34.2434 9.63006 34.2356C9.5925 34.2319 9.55456 34.2282 9.51612 34.2239V34.0869C9.55374 34.0869 9.59146 34.0869 9.62924 34.0869C9.71736 34.087 9.80581 34.0871 9.89419 34.0867C10.0094 34.0862 10.1246 34.0856 10.2398 34.0851C10.814 34.0826 11.3882 34.08 11.9625 34.0748C12.0267 34.0743 12.0548 34.0907 12.0765 34.152C12.4328 35.1581 12.791 36.1636 13.1492 37.169C13.2117 37.3447 13.2743 37.5203 13.3369 37.696C13.3487 37.7291 13.3614 37.7617 13.3786 37.8072C13.3924 37.776 13.4028 37.7567 13.4098 37.7363C13.8224 36.5363 14.2349 35.3362 14.6466 34.1357C14.6602 34.0957 14.6734 34.0735 14.7244 34.0738C15.343 34.0773 15.9616 34.079 16.5802 34.0807C16.743 34.0812 16.9057 34.0816 17.0684 34.0821H17.1336V34.2242C17.0972 34.228 17.0605 34.2313 17.0238 34.2347C16.9429 34.2421 16.8615 34.2495 16.7809 34.2623C16.4433 34.3161 16.2695 34.4986 16.2677 34.8415C16.2662 35.1339 16.291 35.4272 16.3186 35.7188C16.3479 36.0299 16.3834 36.3404 16.4189 36.651C16.4338 36.7816 16.4488 36.9123 16.4632 37.043C16.4781 37.1771 16.4929 37.3112 16.5077 37.4453C16.5417 37.7524 16.5756 38.0596 16.6101 38.3668C16.647 38.6964 16.6839 39.0261 16.7244 39.3552C16.7349 39.4399 16.7557 39.5238 16.7763 39.6069Z" fill="#B6C1E1"/>
<path d="M65.9636 34.5771C65.9616 34.9869 65.6365 35.3097 65.2275 35.3077C64.8154 35.3057 64.494 34.9796 64.4953 34.5647C64.4963 34.1518 64.8229 33.8234 65.2324 33.8237C65.6437 33.8239 65.9656 34.1557 65.9636 34.5771Z" fill="#B6C1E1"/>
<path d="M24.0972 39.5657C24.0972 39.6625 24.1031 39.7597 24.1126 39.8561C24.1276 40.0086 24.1774 40.0596 24.3279 40.0898C24.3449 40.0931 24.3618 40.0971 24.3804 40.1015C24.389 40.1036 24.3979 40.1057 24.4074 40.1079V40.2292H22.4496V40.1076C22.4567 40.1058 22.4638 40.104 22.471 40.1022C22.4854 40.0984 22.5 40.0947 22.5148 40.0916C22.6892 40.0551 22.7357 40.0043 22.7466 39.823C22.7549 39.6853 22.7598 39.5474 22.76 39.4096C22.7603 38.8121 22.7603 38.2146 22.7603 37.617C22.7604 36.662 22.7604 35.7069 22.7618 34.7518C22.7621 34.5661 22.7221 34.3996 22.6035 34.2531C22.554 34.192 22.51 34.1261 22.4661 34.0604C22.4575 34.0475 22.4489 34.0347 22.4403 34.0219C22.4295 34.0057 22.4221 33.9872 22.4149 33.9692C22.4116 33.9612 22.4084 33.9533 22.405 33.9457C22.4976 33.9191 22.5893 33.8932 22.6802 33.8674C22.8934 33.8071 23.1027 33.7479 23.3106 33.684C23.4902 33.6288 23.668 33.568 23.8457 33.5073C23.9139 33.484 23.9821 33.4607 24.0504 33.4377C24.1294 33.411 24.1414 33.4197 24.1391 33.4996C24.1346 33.6507 24.1293 33.8019 24.1239 33.953C24.1113 34.3096 24.0987 34.6662 24.0976 35.0228C24.0935 36.2099 24.0948 37.397 24.0962 38.5841C24.0966 38.9113 24.097 39.2385 24.0972 39.5657Z" fill="#B6C1E1"/>
<path d="M41.3496 34.5707C41.3485 34.9851 41.0238 35.3091 40.6112 35.3077C40.199 35.3063 39.8803 34.9811 39.8814 34.563C39.8826 34.1495 40.2085 33.823 40.6192 33.8236C41.0261 33.8242 41.3508 34.1563 41.3496 34.5707Z" fill="#B6C1E1"/>
<path d="M65.8577 39.6952C65.8581 39.7586 65.8644 39.8227 65.8733 39.8857C65.8905 40.0075 65.9415 40.0599 66.0611 40.0858C66.0833 40.0905 66.1055 40.0949 66.1292 40.0996C66.14 40.1017 66.151 40.1039 66.1625 40.1062V40.2292H64.2073V40.1063C64.216 40.1046 64.2248 40.1028 64.2337 40.1011C64.2582 40.0962 64.2832 40.0913 64.3081 40.0856C64.4292 40.0584 64.4802 40.009 64.4933 39.8844C64.506 39.7629 64.5123 39.6401 64.5126 39.5178C64.5133 39.1798 64.5133 38.8418 64.5133 38.5038C64.5133 38.0986 64.5132 37.6933 64.5146 37.288C64.515 37.1456 64.4835 37.0168 64.4071 36.8963C64.3686 36.8355 64.3329 36.7729 64.2972 36.7103C64.276 36.6732 64.2549 36.636 64.233 36.5991C64.2033 36.5487 64.2075 36.5224 64.2703 36.4986C64.7438 36.3203 65.216 36.1388 65.6882 35.9572L65.8048 35.9124C65.8722 35.8865 65.8873 35.8951 65.8865 35.9645C65.8842 36.1637 65.8818 36.3629 65.8794 36.5621C65.8709 37.282 65.8624 38.002 65.8555 38.722C65.8529 39.0047 65.8548 39.2873 65.8568 39.5699L65.8577 39.6952Z" fill="#B6C1E1"/>
<path fill-rule="evenodd" clip-rule="evenodd" d="M60.9303 36.4411C61.191 36.2318 61.4693 36.0531 61.7968 35.9674C62.5258 35.7768 63.2979 36.1579 63.6052 36.8531C63.8092 37.3144 63.8429 37.7947 63.7698 38.2854C63.6908 38.8152 63.4801 39.2884 63.086 39.6567C62.4178 40.2809 61.6399 40.485 60.7531 40.2141C60.7312 40.2073 60.7095 40.2003 60.6874 40.194C60.6846 40.1931 60.6814 40.1935 60.6759 40.1941C60.6726 40.1944 60.6684 40.1949 60.663 40.1952C60.6626 40.2024 60.6622 40.2093 60.6617 40.216C60.6607 40.2306 60.6598 40.2443 60.6598 40.2581C60.6599 40.3595 60.66 40.4609 60.66 40.5623C60.6603 41.0125 60.6606 41.4628 60.6627 41.913C60.6632 41.9943 60.6704 42.0766 60.6849 42.1566C60.7065 42.2746 60.7577 42.3158 60.8777 42.3256C61.0175 42.3371 61.1573 42.3471 61.3036 42.3581V42.5H59.0117V42.3806C59.0142 42.3796 59.0166 42.3785 59.0189 42.3774C59.0237 42.3751 59.0282 42.373 59.0329 42.3722C59.2591 42.3308 59.3052 42.2795 59.313 42.0477C59.3184 41.8871 59.3205 41.7262 59.3205 41.5653C59.3207 41.13 59.3206 40.6947 59.3206 40.2595C59.3205 39.29 59.3204 38.3205 59.3224 37.351C59.3228 37.1665 59.2897 36.9982 59.1829 36.8446C59.1473 36.7933 59.1169 36.7383 59.0866 36.6833C59.07 36.6533 59.0535 36.6233 59.0361 36.5939C59.0071 36.5449 59.014 36.5188 59.0738 36.5006C59.5959 36.3411 60.1027 36.1409 60.6005 35.9173C60.6809 35.8811 60.6952 35.8906 60.6909 35.9769C60.6805 36.1834 60.6708 36.3898 60.661 36.5964C60.6604 36.6073 60.6605 36.6181 60.6607 36.6332C60.6608 36.6415 60.6609 36.651 60.6609 36.6624C60.6912 36.6375 60.7203 36.6134 60.7486 36.59C60.8116 36.5379 60.8706 36.4891 60.9303 36.4411ZM62.1395 39.5044C62.265 39.2458 62.3186 38.9683 62.341 38.6846C62.3712 38.3029 62.3603 37.9242 62.2242 37.5599C62.1044 37.2394 61.9171 36.9732 61.6029 36.8141C61.3223 36.6721 61.0271 36.6817 60.7275 36.7285C60.6725 36.7371 60.6583 36.7597 60.6586 36.8132C60.6603 37.096 60.6601 37.3788 60.6599 37.6615C60.6599 37.7516 60.6598 37.8416 60.6598 37.9317C60.6598 38.0312 60.6598 38.1308 60.6598 38.2304C60.6597 38.4296 60.6597 38.6288 60.6598 38.8279C60.66 39.0967 60.6754 39.3638 60.7692 39.6194C60.9016 39.9802 61.2149 40.1378 61.5847 40.0293C61.8581 39.9489 62.0208 39.7485 62.1395 39.5044Z" fill="#B6C1E1"/>
<path d="M68.1551 39.0003C68.1553 39.2343 68.2501 39.3669 68.4812 39.4133C68.8691 39.4912 69.248 39.4679 69.621 39.253C69.621 39.2657 69.6222 39.2777 69.6232 39.2888C69.6253 39.3101 69.627 39.3279 69.6194 39.3396C69.2982 39.8369 68.8783 40.2024 68.2773 40.308C67.9257 40.3698 67.5838 40.3233 67.2704 40.1439C66.9723 39.9733 66.8135 39.7152 66.8149 39.366C66.8181 38.5694 66.8214 37.7726 66.822 36.976C66.822 36.9369 66.8054 36.8914 66.7817 36.8601C66.686 36.734 66.5863 36.6111 66.4848 36.4897C66.4433 36.4401 66.4379 36.4119 66.5014 36.3722C67.078 36.0111 67.6201 35.6039 68.1189 35.1402C68.1292 35.1305 68.1448 35.1265 68.1604 35.1224C68.1677 35.1205 68.1751 35.1186 68.1819 35.1161C68.1888 35.1382 68.2028 35.1607 68.2015 35.1825C68.1874 35.4424 68.171 35.7021 68.1557 35.9621C68.1542 35.9898 68.1556 36.0178 68.1556 36.0586C68.625 36.0433 69.0857 36.0281 69.5562 36.0126C69.5181 36.2247 69.4306 36.4027 69.297 36.5579C69.2829 36.5743 69.2463 36.5766 69.2201 36.5763C68.969 36.5732 68.718 36.5693 68.467 36.5653C68.3913 36.5641 68.3156 36.5629 68.2399 36.5617C68.2237 36.5615 68.2076 36.5616 68.1889 36.5617C68.1786 36.5617 68.1675 36.5617 68.1551 36.5617L68.1551 37.4324C68.155 37.955 68.155 38.4776 68.1551 39.0003Z" fill="#B6C1E1"/>
<path d="M75.7529 39.889C75.7723 40.021 75.8198 40.0624 75.9494 40.0876C75.9791 40.0935 76.0087 40.1001 76.0408 40.1073V40.2295H74.0837V40.1079L74.1291 40.0971C74.1583 40.0902 74.1873 40.0833 74.2164 40.0763C74.2998 40.0562 74.354 40.0038 74.3634 39.9197C74.3779 39.7882 74.3918 39.6556 74.3919 39.5234C74.393 38.5279 74.3931 37.5324 74.3932 36.5369C74.3932 35.9233 74.3933 35.3096 74.3936 34.696C74.3937 34.5506 74.3568 34.4196 74.2704 34.3019C74.204 34.2115 74.1398 34.1192 74.0765 34.0265C74.0593 34.0013 74.0492 33.9713 74.0416 33.9552C74.1768 33.9135 74.3112 33.8721 74.445 33.8309C74.7915 33.7242 75.1339 33.6188 75.476 33.5126C75.5229 33.4981 75.5689 33.481 75.615 33.4638C75.6406 33.4543 75.6663 33.4448 75.6921 33.4357C75.7588 33.4121 75.7749 33.4233 75.7718 33.4938C75.7154 34.8064 75.7222 36.1195 75.729 37.4326C75.7327 38.1421 75.7364 38.8516 75.7301 39.5611C75.729 39.6703 75.7372 39.7808 75.7529 39.889Z" fill="#B6C1E1"/>
<path fill-rule="evenodd" clip-rule="evenodd" d="M36.6311 35.9319C37.3685 35.8753 38.0214 36.0914 38.5559 36.6076C39.3639 37.3875 39.404 38.6733 38.6542 39.5163C38.1661 40.0653 37.5412 40.3154 36.8022 40.3345C36.0374 40.304 35.3739 40.0309 34.892 39.4028C34.3042 38.6366 34.3358 37.538 34.9568 36.7927C35.392 36.2703 35.9555 35.9837 36.6311 35.9319ZM37.2904 39.9158C37.4487 39.7362 37.5324 39.5197 37.5815 39.2915C37.7415 38.5497 37.7313 37.8066 37.5731 37.0661C37.5184 36.8105 37.4318 36.5651 37.2664 36.3561C37.0271 36.0532 36.6496 36.0367 36.3839 36.3173C36.2564 36.4519 36.1813 36.6166 36.1261 36.7904C35.9969 37.1965 35.9701 37.6158 35.9701 38.0383C35.9705 38.5073 36.0064 38.8598 36.0955 39.223C36.1535 39.4596 36.2325 39.6884 36.3825 39.8847C36.6277 40.2052 37.024 40.2176 37.2904 39.9158Z" fill="#B6C1E1"/>
<path fill-rule="evenodd" clip-rule="evenodd" d="M73.1942 39.1542C73.2109 39.474 73.4779 39.6084 73.7617 39.4506C73.7814 39.4396 73.8004 39.4277 73.8196 39.4157C73.8284 39.4102 73.8372 39.4047 73.8462 39.3992C73.9332 39.5624 73.6296 40.0245 73.3207 40.1941C73.0466 40.3446 72.7605 40.3295 72.4756 40.2303C72.1817 40.1281 71.9996 39.9083 71.8805 39.6342C71.8429 39.674 71.8062 39.7143 71.7696 39.7544C71.6886 39.8432 71.6084 39.9312 71.521 40.0115C71.1678 40.3364 70.695 40.3891 70.3074 40.1445C69.9949 39.9473 69.8826 39.6441 69.8838 39.2873C69.8847 39.0193 70.0026 38.8149 70.2371 38.6959C70.4745 38.5755 70.7187 38.4682 70.9627 38.3609C71.0103 38.34 71.0578 38.3191 71.1052 38.2981C71.3402 38.1942 71.5777 38.0956 71.815 37.9971L71.8372 37.9879C71.8812 37.9697 71.8982 37.9467 71.8975 37.8978C71.8955 37.7398 71.8958 37.5817 71.8961 37.4236C71.8962 37.3672 71.8963 37.3107 71.8963 37.2543C71.8963 36.8891 71.6815 36.6322 71.3196 36.5788C71.2154 36.5633 71.1051 36.5617 71.0012 36.5775C70.855 36.5996 70.7774 36.6963 70.7609 36.845C70.7377 37.0531 70.7716 37.2569 70.8134 37.4598C70.8185 37.4845 70.8242 37.5092 70.8332 37.551C70.7726 37.5627 70.7127 37.5744 70.6533 37.5859C70.517 37.6125 70.3833 37.6385 70.2493 37.6636C70.2058 37.6719 70.1617 37.6771 70.1176 37.6824C70.1034 37.684 70.0891 37.6857 70.0749 37.6875C69.9817 37.6992 69.9431 37.6728 69.96 37.5797L69.965 37.5518C69.987 37.4286 70.01 37.3 70.0679 37.1931C70.4024 36.5754 70.8983 36.1386 71.586 35.9644C72.0517 35.8464 72.5 35.9403 72.8998 36.2117C73.1256 36.365 73.239 36.5879 73.2333 36.8647C73.2284 37.1071 73.223 37.3496 73.2177 37.592C73.2111 37.8907 73.2045 38.1894 73.1987 38.4881C73.1976 38.5402 73.1962 38.5923 73.1948 38.6445C73.1901 38.8146 73.1854 38.9848 73.1942 39.1542ZM71.8814 38.9221C71.882 38.8447 71.8827 38.7673 71.8828 38.69C71.8831 38.6031 71.8831 38.5162 71.883 38.4276C71.883 38.3269 71.8829 38.2241 71.883 38.1163C71.8382 38.1504 71.7952 38.1837 71.7531 38.2162C71.6637 38.2853 71.5787 38.3509 71.4913 38.413C71.2435 38.5888 71.1576 38.8254 71.2058 39.1206C71.254 39.4159 71.4996 39.5977 71.7904 39.548C71.8479 39.5382 71.8838 39.5235 71.8822 39.4481C71.8786 39.2729 71.88 39.0975 71.8814 38.9221Z" fill="#B6C1E1"/>
<path d="M41.2444 39.7488C41.2446 39.7718 41.2458 39.7948 41.2484 39.8176C41.271 40.0164 41.3036 40.0524 41.4989 40.0959C41.5097 40.0983 41.5205 40.1008 41.5327 40.1036L41.547 40.1069V40.2291H39.5942V40.1077C39.6091 40.1041 39.6248 40.1001 39.6409 40.0962C39.6532 40.0933 39.6657 40.0904 39.6782 40.0878C39.8178 40.059 39.8684 40.0095 39.8808 39.8689C39.892 39.7421 39.8977 39.6142 39.898 39.4869C39.8987 39.1491 39.8987 38.8113 39.8987 38.4735C39.8986 38.0732 39.8986 37.6729 39.8998 37.2727C39.9003 37.1378 39.8667 37.0168 39.7965 36.9029C39.7395 36.8102 39.6854 36.7156 39.6313 36.6211L39.6226 36.6059C39.6129 36.5889 39.6058 36.5704 39.6007 36.5572C39.5989 36.5523 39.5972 36.5481 39.5959 36.545L39.8017 36.4636C40.28 36.2743 40.7538 36.0868 41.2281 35.9001C41.2395 35.8955 41.2567 35.906 41.2653 35.908C41.2627 36.0175 41.2595 36.1267 41.2564 36.2355C41.2495 36.4703 41.2427 36.7037 41.2421 36.9372C41.2404 37.6398 41.2418 38.3424 41.2432 39.0451C41.2436 39.2796 41.2441 39.5142 41.2444 39.7488Z" fill="#B6C1E1"/>
<path d="M46.0719 39.6578C46.0721 39.7315 46.0788 39.8057 46.0877 39.8789C46.1035 40.0081 46.1559 40.0613 46.2843 40.0873C46.3048 40.0915 46.3253 40.0957 46.347 40.1003L46.3769 40.1065V40.2292H44.4219V40.1062C44.442 40.1021 44.4627 40.0981 44.4836 40.0939C44.4967 40.0912 44.51 40.0885 44.5231 40.0855C44.6441 40.0582 44.6945 40.0087 44.7081 39.884C44.7205 39.77 44.7271 39.655 44.7273 39.5404L44.7275 39.4188C44.7282 38.8924 44.729 38.3661 44.7228 37.8397C44.7201 37.602 44.6839 37.3672 44.5923 37.1444C44.4537 36.8076 44.1932 36.6561 43.8324 36.7041C43.5871 36.7366 43.5869 36.7366 43.5871 36.9829L43.5872 37.2617C43.5874 38.06 43.5877 38.8583 43.5891 39.6565C43.5892 39.7329 43.5958 39.8096 43.6055 39.8853C43.6209 40.0061 43.6737 40.0597 43.7927 40.0855C43.8251 40.0924 43.8574 40.0985 43.893 40.1056V40.2289H41.9396V40.106C41.9477 40.1044 41.956 40.1027 41.9644 40.1011C41.9888 40.0962 42.0142 40.0911 42.0394 40.0855C42.1611 40.0582 42.2126 40.009 42.2253 39.8849C42.2381 39.7583 42.2444 39.6305 42.2447 39.5031C42.2455 39.1603 42.2455 38.8175 42.2454 38.4747C42.2454 38.0769 42.2453 37.6792 42.2466 37.2814C42.2469 37.1415 42.2141 37.0154 42.1398 36.8972C42.0951 36.8263 42.0535 36.7535 42.0119 36.6806C41.9979 36.656 41.9838 36.6314 41.9696 36.6068C41.929 36.5363 41.9352 36.5256 42.0084 36.4977C42.5175 36.3037 43.0265 36.1089 43.535 35.9132C43.6079 35.8851 43.6219 35.8926 43.6177 35.9699C43.6062 36.1889 43.5947 36.408 43.582 36.6474C43.5965 36.6369 43.6089 36.628 43.6199 36.6201C43.6381 36.607 43.6527 36.5965 43.6669 36.5857C43.9573 36.3637 44.2536 36.1515 44.5961 36.0145C44.856 35.9106 45.1202 35.8778 45.3857 35.9873C45.7636 36.1435 45.9604 36.446 46.0388 36.8333C46.062 36.9475 46.0681 37.0666 46.0686 37.1833C46.0703 37.6825 46.0706 38.1816 46.0709 38.6807C46.0711 39.0064 46.0713 39.3321 46.0719 39.6578Z" fill="#B6C1E1"/>
<path d="M54.2055 38.574C54.242 38.519 54.2784 38.464 54.3165 38.4106C54.332 38.3888 54.3442 38.3647 54.3575 38.3384C54.3642 38.3251 54.3713 38.3112 54.3792 38.2967L54.4743 38.3376C54.4651 38.3643 54.4561 38.3907 54.4472 38.4167C54.4267 38.4764 54.4067 38.5346 54.3862 38.5927C54.293 38.857 54.2003 39.1215 54.1047 39.385C54.0923 39.4191 54.0684 39.4526 54.0414 39.4772C53.4892 39.984 52.8353 40.2576 52.0908 40.318C51.4289 40.3716 50.7973 40.2536 50.2092 39.9463C49.3396 39.4923 48.7908 38.7841 48.6408 37.8097C48.474 36.7269 48.7559 35.7693 49.5503 34.9906C50.0371 34.5135 50.6283 34.2249 51.2907 34.0815C52.2076 33.8829 53.0854 34.0013 53.9242 34.4199C53.9659 34.4407 53.9839 34.4672 53.9898 34.5117C54.0359 34.8628 54.083 35.2138 54.13 35.5649L54.1637 35.8163C54.1655 35.8294 54.1667 35.8426 54.168 35.8558C54.1706 35.8835 54.1732 35.9112 54.1807 35.9374C54.2 36.0053 54.1763 36.0444 54.1108 36.0617C54.081 35.9977 54.052 35.9337 54.0231 35.87C53.9587 35.7279 53.8948 35.5871 53.8236 35.4502C53.6526 35.121 53.4405 34.8212 53.13 34.607C52.5401 34.1998 51.6985 34.2352 51.1103 34.6899C50.7058 35.0025 50.4652 35.4229 50.3428 35.9106C50.1474 36.6883 50.1777 37.4571 50.508 38.1947C50.8012 38.8498 51.2824 39.3134 52.0008 39.4619C52.7227 39.611 53.3921 39.4847 53.9289 38.9392C54.0352 38.8312 54.1204 38.7026 54.2055 38.574Z" fill="#B6C1E1"/>
<path fill-rule="evenodd" clip-rule="evenodd" d="M58.1021 39.1389C58.1095 39.4463 58.3264 39.5882 58.6151 39.4755C58.6483 39.4626 58.6797 39.4452 58.7128 39.427C58.7289 39.4181 58.7453 39.409 58.7625 39.4001C58.8266 39.6398 58.4772 40.1048 58.1333 40.2398C57.8642 40.3454 57.596 40.3169 57.3356 40.2104C57.0708 40.1019 56.9037 39.8939 56.788 39.6234C56.7774 39.6362 56.7674 39.648 56.7579 39.6594C56.7397 39.6811 56.7232 39.7008 56.7069 39.7206C56.5538 39.907 56.3909 40.0823 56.1712 40.1926C55.5404 40.5094 54.8231 40.081 54.7928 39.3755C54.7789 39.0526 54.8993 38.8107 55.19 38.6705C55.4266 38.5564 55.6677 38.4514 55.9086 38.3464C55.9712 38.3191 56.0338 38.2918 56.0964 38.2644C56.3111 38.1701 56.5269 38.0786 56.7437 37.9899C56.7928 37.9698 56.8069 37.9436 56.8062 37.8931C56.8043 37.7397 56.8046 37.5863 56.8048 37.4329C56.8049 37.3693 56.8051 37.3057 56.805 37.242C56.8046 36.8941 56.592 36.6388 56.2481 36.5798C56.1656 36.5657 56.0804 36.5613 55.9968 36.563C55.7935 36.5671 55.6633 36.6853 55.6693 36.8876C55.6734 37.0308 55.6921 37.1736 55.7107 37.3163C55.7188 37.3781 55.7269 37.4399 55.7338 37.5016C55.7345 37.5082 55.7359 37.5146 55.7378 37.5229C55.7394 37.5299 55.7413 37.5383 55.7436 37.5492C55.6927 37.5595 55.6422 37.5699 55.592 37.5802C55.4789 37.6035 55.3672 37.6266 55.2552 37.6477C55.1724 37.6633 55.0886 37.6743 55.0051 37.6853L54.983 37.6882C54.8912 37.7003 54.8584 37.6783 54.8719 37.5856L54.8745 37.5679C54.8911 37.4537 54.9086 37.3334 54.9602 37.2338C55.3051 36.5674 55.83 36.1087 56.5721 35.9492C56.9978 35.8577 57.4108 35.9515 57.78 36.1893C58.0271 36.3486 58.1523 36.5835 58.146 36.8804C58.1387 37.2297 58.1303 37.579 58.122 37.9283C58.1156 38.1939 58.1093 38.4595 58.1034 38.7252C58.1003 38.8631 58.0988 39.0011 58.1021 39.1389ZM56.7925 38.9688C56.7937 38.8724 56.7948 38.776 56.7955 38.6797C56.7964 38.553 56.7962 38.4263 56.796 38.2939C56.7959 38.2354 56.7958 38.1759 56.7958 38.1147C56.7518 38.1481 56.7095 38.1809 56.6681 38.2129C56.5779 38.2827 56.4924 38.3489 56.404 38.4111C56.1696 38.5756 56.0794 38.798 56.1092 39.0795C56.1439 39.4047 56.4099 39.61 56.7184 39.5448C56.7695 39.5339 56.7891 39.5157 56.7889 39.4601C56.7885 39.2963 56.7905 39.1326 56.7925 38.9688Z" fill="#B6C1E1"/>
</svg>
