<svg width="125" height="45" viewBox="0 0 125 45" fill="none" xmlns="http://www.w3.org/2000/svg">
<path d="M6.5 14.2987V19.7804H28.7572V14.2987H6.5Z" fill="#B6C1E1"/>
<path d="M6.5 25.2196V30.7013H28.7572V25.2196H6.5Z" fill="#B6C1E1"/>
<path d="M40.8927 14.2987C39.156 14.2987 37.9681 14.7196 37.169 15.3429C36.2314 16.0567 35.8318 17.0209 35.8318 17.9798C35.8318 18.8056 36.1035 19.5354 36.5031 20.1161C37.1477 21.027 38.9962 22.0232 40.3547 22.7104C40.5286 22.7974 40.7012 22.8821 40.8715 22.9657L40.8721 22.9659C41.964 23.5019 42.9602 23.9908 43.5776 24.7188C44.0464 25.2728 44.2915 25.8375 44.2915 26.7272C44.2915 27.7287 43.8493 28.4905 43.1621 29.0286C42.4696 29.5666 41.5053 29.8649 40.4825 29.8649C38.1279 29.8649 36.8866 29.167 36.1728 26.4342L35.379 26.6419C35.672 27.6168 35.9277 28.5704 36.1301 29.9448C37.4193 30.4136 38.9802 30.696 40.2748 30.696C42.2565 30.696 43.7375 30.1153 44.6697 29.2736C45.5168 28.5171 45.927 27.4996 45.927 26.3436C45.927 25.2515 45.4315 24.2393 44.9627 23.7066C44.1525 22.7839 43.1142 22.2643 41.764 21.5887C41.5162 21.4647 41.2579 21.3355 40.9886 21.1975C39.5875 20.4836 38.7192 19.9935 38.1439 19.4395C37.723 19.04 37.3927 18.3048 37.3927 17.6815C37.3927 16.9943 37.6537 16.4136 38.1865 15.9662C38.8098 15.4334 39.7101 15.1298 40.8234 15.1298C43.4498 15.1298 43.9133 15.9342 44.3821 18.2249L45.1758 18.0171C44.9734 17.0156 44.7656 15.833 44.6324 14.922C43.4764 14.4852 42.3151 14.2987 40.8927 14.2987Z" fill="#B6C1E1"/>
<path fill-rule="evenodd" clip-rule="evenodd" d="M72.691 14.5917V15.263C74.3584 15.263 74.4916 15.3748 74.4916 16.9783V28.0643C74.4916 29.6412 74.3584 29.7371 72.691 29.7371V30.3657H79.9308C82.2428 30.3657 83.5426 29.8277 84.4056 28.9859C85.2953 28.1389 85.6629 27.0415 85.6629 25.9334C85.6629 24.7081 85.0396 23.8345 84.2405 23.2165C83.2869 22.4814 82.0084 22.0925 80.5594 22.0445V22.0019C81.9604 21.7995 82.9034 21.3467 83.5693 20.7447C84.395 20.0095 84.656 19.0346 84.656 18.1929C84.656 17.0582 84.0807 16.1793 83.2336 15.5986C82.0297 14.7942 80.7192 14.597 78.6735 14.597L72.691 14.5917ZM76.7877 15.4707H78.9239C80.4794 15.4707 81.4757 15.7957 82.1043 16.3071C82.589 16.7066 82.9406 17.6016 82.9406 18.3581C82.9406 19.4235 82.5784 20.2066 81.9391 20.7447C81.1347 21.4106 79.8721 21.7089 78.3432 21.7089H76.1271V16.2218C76.1218 15.6199 76.2123 15.4707 76.7877 15.4707ZM76.1218 22.54H78.8813C80.7032 22.54 81.9498 22.8596 82.7329 23.4616C83.532 24.0636 83.9475 24.9106 83.9475 25.8908C83.9475 27.0468 83.6012 27.8885 83.0685 28.4425C82.312 29.2203 81.2998 29.5293 79.723 29.5293H76.9635C76.2763 29.5293 76.1271 29.3748 76.1271 28.4425C76.1218 28.4425 76.1218 22.54 76.1218 22.54Z" fill="#B6C1E1"/>
<path d="M61.1842 15.8489C61.7116 15.3375 62.4627 14.97 63.4429 14.97C64.3539 14.97 64.876 15.2203 65.3288 15.5134C65.9734 15.9342 66.293 16.4935 66.293 16.8931C66.293 17.3406 66.0693 17.5643 65.6644 17.5643C65.1448 17.5643 64.9147 17.1041 64.6737 16.6217L64.6629 16.6001C64.4178 16.11 64.1355 15.6359 63.4483 15.6359C63.0061 15.6359 62.6705 15.801 62.3615 16.1366C61.914 16.6694 61.6476 17.4844 61.6476 19.0666V20.3611H64.4498V21.075H61.6476V28.3627C61.6476 29.6998 61.7382 29.8277 63.4056 29.8277V30.371H58.4247V29.8277C59.9802 29.8277 60.0974 29.6785 60.0974 28.32V21.0803H58.4673V20.3665H60.0974V18.9867C60.0974 17.6336 60.449 16.6054 61.1842 15.8489Z" fill="#B6C1E1"/>
<path d="M110.887 14.97C110.067 15.4814 109.3 15.7318 108.208 15.8916V16.3497C109.412 16.3497 109.545 16.5255 109.545 17.8147V28.3573C109.545 29.6465 109.497 29.8223 108.208 29.8223V30.3657H112.352V29.8223C111.127 29.8223 111.095 29.6465 111.095 28.3573V26.0133L112.31 24.7561L115.948 30.3604H118.5V29.817C117.834 29.8383 117.317 29.7584 116.827 28.9806L113.439 23.8345L115.783 21.5757C116.295 21.0856 116.646 20.9258 117.291 20.9045V20.3611H113.988V20.9045C115.059 20.9045 114.92 21.2668 114.323 21.8261L111.143 24.9212H111.1V15.0925L110.887 14.97Z" fill="#B6C1E1"/>
<path d="M65.4087 20.5742C66.8097 20.441 67.758 19.8977 68.0457 17.5643H68.6263V20.3611H70.9703V21.075H68.6263V28.2774C68.6263 29.3162 68.9353 29.8649 69.7131 29.8649C70.2298 29.8649 70.6454 29.6572 71.0928 29.3216L71.4285 29.8223C70.8531 30.3337 70.1659 30.6161 69.255 30.6161C68.1256 30.6161 67.0815 30.094 67.0815 28.3573V21.075H65.4087V20.5742Z" fill="#B6C1E1"/>
<path fill-rule="evenodd" clip-rule="evenodd" d="M52.3996 20.1161C50.9772 20.1161 49.9171 20.5263 49.054 21.3307C48.1644 22.1937 47.7169 23.5894 47.7169 25.3474C47.7169 27.3718 48.2283 28.7089 49.0967 29.5293C49.9863 30.3071 51.0677 30.6161 52.3996 30.6161C53.8006 30.6161 54.8554 30.2858 55.7451 29.4867C56.5921 28.661 57.1248 27.3505 57.1248 25.3421C57.1248 23.5841 56.6134 22.2363 55.7451 21.368C54.8767 20.5476 53.8859 20.1161 52.3996 20.1161ZM52.3569 20.8246C53.2945 20.8246 54.0617 21.1229 54.5731 21.7462C55.1697 22.524 55.4947 23.6321 55.4947 25.3421C55.4947 27.1427 55.0898 28.2667 54.5305 28.9806C54.0191 29.556 53.3318 29.9448 52.3942 29.9448C51.4566 29.9448 50.7268 29.5613 50.2207 28.9806C49.6667 28.2667 49.2991 27.1427 49.2991 25.3421C49.2991 23.6267 49.6241 22.524 50.2207 21.7462C50.7534 21.1229 51.4673 20.8246 52.3569 20.8246Z" fill="#B6C1E1"/>
<path fill-rule="evenodd" clip-rule="evenodd" d="M88.6728 20.7447C89.2481 20.4091 90.0046 20.1161 91.1819 20.1161C92.519 20.1161 93.3021 20.3718 93.8668 21.0004C94.4422 21.645 94.618 22.2416 94.618 23.2165V28.4479C94.618 29.4494 94.847 29.8702 95.2892 29.8702C95.5076 29.8702 95.6994 29.817 95.8752 29.7051L96.003 30.2485C95.6248 30.4243 95.2466 30.5415 94.6659 30.5415C93.8881 30.5415 93.4033 30.1419 93.2009 29.4121H93.1157C92.3592 30.126 91.4909 30.6267 90.0206 30.6267C89.3067 30.6267 88.5502 30.4243 87.9696 29.9555C87.4368 29.5346 87.0906 28.922 87.0906 28.075C87.0906 27.0521 87.4954 26.2531 88.4703 25.6085C89.2268 25.0971 90.3508 24.6229 91.7732 24.3139L93.0677 24.0209V23.0567C93.0677 22.5453 92.9825 21.8847 92.6895 21.5065C92.3592 21.059 91.8371 20.8353 91.102 20.8353C90.4307 20.8353 89.9939 21.0217 89.5944 21.336C89.3014 21.5544 89.1256 21.9327 88.9231 22.4228C88.8113 22.7318 88.5982 22.9662 88.1294 22.9662C87.7032 22.9662 87.5008 22.6305 87.5008 22.2949C87.5008 21.7569 87.9589 21.1655 88.6728 20.7447ZM90.6758 29.7797C91.7679 29.7797 92.5031 29.1617 93.0624 28.6077V24.6762L93.0571 24.6776L93.0564 24.6778L93.0558 24.678C92.1038 24.944 90.9989 25.2527 90.175 25.763C89.3067 26.2318 88.71 26.8337 88.71 27.8566C88.71 28.4372 88.8326 28.906 89.1682 29.2363C89.5038 29.5506 90.0099 29.7797 90.6758 29.7797Z" fill="#B6C1E1"/>
<path d="M99.3805 20.1161C98.6454 20.6488 97.8889 20.8832 96.914 21.0377V21.5385C98.0913 21.5171 98.2085 21.6716 98.2085 22.9608V28.3573C98.2085 29.6945 98.1073 29.8223 96.914 29.8223V30.3657H100.803V29.8223C99.7587 29.8223 99.7161 29.6945 99.7161 28.3573V23.0035C100.606 21.7782 101.629 20.9098 102.561 20.9098C103.158 20.9098 103.568 21.0803 103.855 21.368C104.276 21.8155 104.356 22.508 104.356 23.3763V28.3573C104.356 29.6945 104.298 29.8223 103.227 29.8223V30.3657H106.993V29.8223C105.992 29.8223 105.906 29.6465 105.906 28.3999V23.2964C105.906 22.1191 105.624 21.32 105.113 20.8299C104.623 20.3611 103.935 20.1161 102.976 20.1161C101.751 20.1161 100.606 20.8246 99.7108 21.9593H99.6682L99.583 20.2439L99.3805 20.1161Z" fill="#B6C1E1"/>
</svg>
