<svg width="90" height="45" viewBox="0 0 90 45" fill="none" xmlns="http://www.w3.org/2000/svg">
<path fill-rule="evenodd" clip-rule="evenodd" d="M11.0831 31.3221C11.9835 30.818 12.7142 30.2039 13.2644 29.3318C12.1807 29.0854 11.2958 28.5573 10.5779 27.7595C9.89791 27.0071 9.25552 25.5441 9.32603 24.9443C9.32984 24.9453 9.33382 24.946 9.33779 24.9466C9.34678 24.9481 9.35574 24.9496 9.36246 24.9544C9.40469 24.9839 9.44576 25.0149 9.48683 25.0462C10.1118 25.5224 10.7855 25.9114 11.5306 26.1683C12.5829 26.5313 13.6387 26.5782 14.6968 26.1923C14.7526 26.1722 14.8061 26.1466 14.87 26.1195C14.8402 26.0811 14.8316 26.0617 14.8165 26.052C14.728 25.9943 14.639 25.9374 14.5499 25.8805L14.547 25.8786C14.3925 25.78 14.2379 25.6812 14.0862 25.5782C12.1807 24.2845 11.0285 22.5895 11.2268 20.183C11.2679 19.6825 11.3822 19.1958 11.5647 18.6759C12.3555 19.8235 13.3903 20.6297 14.6162 21.2973C14.5767 21.1861 14.5554 21.1222 14.5314 21.059C14.4574 20.8656 14.3803 20.6732 14.3032 20.4808L14.3025 20.4792C14.1375 20.0674 13.9725 19.6558 13.8382 19.2342C13.3152 17.5914 13.1889 15.9227 13.6418 14.2416C14.2144 12.1164 15.4752 10.4581 17.1838 9.11255C17.1878 9.10946 17.192 9.10657 17.1963 9.10381C17.2006 9.10111 17.205 9.09854 17.2096 9.09601C17.2211 9.08974 17.2339 9.08378 17.2485 9.07698C17.2555 9.07371 17.2629 9.07025 17.2708 9.06647C17.2753 9.0643 17.28 9.06201 17.2849 9.05961C17.2896 9.05724 17.2946 9.05474 17.2997 9.05211C17.3012 9.08345 17.303 9.11155 17.3047 9.13761L17.3047 9.13821L17.3049 9.14164C17.3057 9.154 17.3064 9.1659 17.3071 9.17747C17.3078 9.18884 17.3084 9.19989 17.3089 9.21075C17.3097 9.22859 17.3101 9.24591 17.3101 9.26327C17.3099 9.35199 17.3102 9.44072 17.3105 9.52944C17.3113 9.79558 17.3121 10.0616 17.3004 10.3272C17.2958 10.4322 17.2528 10.5558 17.1854 10.6348C15.3714 12.7592 14.7115 15.1978 15.1703 17.9475C15.7712 21.5488 18.455 24.3732 22.0288 25.147C22.3797 25.223 22.7349 25.2791 23.0933 25.3357L23.0938 25.3357C23.2612 25.3621 23.4293 25.3887 23.598 25.4174L23.5928 25.4339L23.5842 25.4615C23.5705 25.5058 23.5552 25.5552 23.5379 25.6038C23.3725 26.0699 23.3392 26.5484 23.412 27.0342C23.5325 27.8374 23.9045 28.5278 24.4209 29.1353C25.5705 30.4879 26.6526 31.8916 27.6863 33.3345C28.1323 33.9574 28.5896 34.5722 29.047 35.187L29.0477 35.188C29.3022 35.53 29.5566 35.8721 29.8091 36.2155C29.918 36.3635 30.0579 36.4348 30.2318 36.4925C30.5272 36.5906 30.8155 36.7104 31.1035 36.8301L31.1041 36.8304C31.1721 36.8586 31.2401 36.8869 31.3081 36.9149C31.3447 36.9299 31.3765 36.9573 31.4191 36.994C31.4423 37.0141 31.4689 37.037 31.5011 37.0621C31.4607 37.0621 31.4303 37.0623 31.406 37.0624C31.3879 37.0625 31.3732 37.0626 31.3602 37.0626C31.3468 37.0626 31.3352 37.0624 31.3236 37.0621C30.6274 37.04 29.9312 37.0183 29.2349 36.9951C29.2095 36.9943 29.1835 36.9953 29.1575 36.9962C29.0445 37.0006 28.9317 37.0049 28.8665 36.8622C28.8441 36.8132 28.8126 36.7657 28.7813 36.7185C28.7275 36.6375 28.6745 36.5575 28.6696 36.4736C28.6367 35.9075 28.3787 35.4519 28.0315 35.0315C27.5782 34.4829 27.0168 34.0613 26.4201 33.684C25.3078 32.9804 24.1063 32.4623 22.8766 32.0059C22.7413 31.956 22.691 31.9048 22.7088 31.7459C22.7696 31.2031 22.734 30.6642 22.5627 30.1404C22.505 29.9625 22.4325 29.935 22.2625 30.0226C22.0753 30.1187 21.9971 30.3062 22.0513 30.5515C22.1679 31.0768 22.171 31.6018 22.0257 32.1202C21.9792 32.2861 22.0253 32.3407 22.178 32.3945C23.3357 32.8014 24.4713 33.2609 25.5426 33.8649C26.2927 34.2876 27.0121 34.7545 27.572 35.4247C27.7882 35.6839 27.9773 35.9617 28.0362 36.3038C28.0618 36.4519 28.0817 36.601 28.1019 36.7529C28.1116 36.8257 28.1213 36.8991 28.1319 36.9734C28.1482 36.9699 28.15 36.9707 28.1453 36.9719C28.1424 36.9727 28.137 36.9737 28.1311 36.974C28.1293 36.9741 28.1275 36.9742 28.1257 36.9741C27.8193 36.969 27.5129 36.963 27.2066 36.9571C26.61 36.9454 26.0134 36.9338 25.4167 36.9284C24.6904 36.9217 23.9642 36.9182 23.238 36.9147C22.6155 36.9116 21.993 36.9086 21.3706 36.9036C21.2791 36.9028 21.1741 36.8819 21.0986 36.8339C20.8754 36.6921 20.6547 36.5464 20.434 36.4007C20.224 36.262 20.0139 36.1234 19.8018 35.9881C19.6487 35.8908 19.605 35.7727 19.6313 35.5979C19.7491 34.8134 19.708 34.0299 19.6069 33.2465C19.5953 33.1535 19.634 33.0276 19.6952 32.9559C20.309 32.2341 20.8204 31.4472 21.233 30.5956C21.2572 30.5457 21.2779 30.4939 21.3021 30.4329L21.3027 30.4315C21.3155 30.3992 21.3294 30.3644 21.3454 30.326C21.3074 30.3319 21.2742 30.3363 21.2443 30.3403L21.244 30.3403C21.1869 30.3479 21.1419 30.3538 21.099 30.3662C20.7665 30.4627 20.5248 30.6654 20.3527 30.9683C19.3527 32.7274 17.9475 34.0516 16.0905 34.8726C14.77 35.4565 13.3934 35.787 11.9363 35.682C11.7898 35.6715 11.6891 35.7238 11.6 35.8285C11.3694 36.0993 11.3303 36.5138 11.5058 36.8459L11.5224 36.8772C11.5333 36.8979 11.5448 36.9193 11.5575 36.9431L11.5717 36.9695L11.6034 37.0292C11.5264 37.0292 11.4504 37.0292 11.3754 37.0293L11.2056 37.0296C10.9108 37.0301 10.6289 37.0305 10.347 37.0284C10.1575 37.0272 10.1257 36.9772 10.204 36.8044L10.2497 36.7038C10.4502 36.2619 10.6508 35.8197 10.8619 35.3829C10.8933 35.3178 10.9859 35.2558 11.0595 35.2419C11.2088 35.2134 11.3595 35.1917 11.5102 35.17L11.5112 35.1699L11.5121 35.1697C11.7377 35.1373 11.9633 35.1049 12.1831 35.0497C13.3562 34.7548 14.3314 34.1446 15.03 33.1438C15.1734 32.9387 15.2876 32.7132 15.4017 32.4876C15.4538 32.3847 15.506 32.2816 15.5608 32.1807C15.2237 32.2522 14.9104 32.3433 14.6026 32.4328C14.4554 32.4755 14.3095 32.5179 14.1629 32.5576C13.1358 32.8358 12.0967 33.0199 11.0277 32.8521C9.96261 32.6855 9.15827 32.1504 8.67087 31.171C8.61662 31.0621 8.61779 30.9928 8.71853 30.9075C8.92561 30.7324 9.12636 30.5496 9.327 30.3669L9.38328 30.3157C9.42627 30.2765 9.4693 30.2375 9.5124 30.1985C9.61081 30.1094 9.70612 30.0164 9.81499 29.9137C9.12651 29.1206 8.45351 28.3446 7.76386 27.5491C7.75882 27.5615 7.7541 27.5724 7.74974 27.5823L7.7445 27.594L7.73359 27.6181L7.72976 27.6268L7.72606 27.6354C7.72071 27.6483 7.71697 27.6594 7.71504 27.6708C7.54185 28.6685 7.54611 29.6623 7.82546 30.6406C8.25165 32.133 9.1947 33.097 10.7421 33.412C11.5957 33.5855 12.4504 33.5263 13.3005 33.3725C13.5067 33.3352 13.7118 33.2908 13.9168 33.2465L13.9186 33.2461L13.9205 33.2457C14.0104 33.2263 14.1004 33.2069 14.1904 33.188C14.0928 33.3267 13.9862 33.4379 13.8684 33.5363C12.9576 34.298 11.8898 34.6192 10.7193 34.6413C10.5868 34.644 10.5097 34.6801 10.4527 34.8075C10.29 35.1727 10.123 35.5361 9.95613 35.8994C9.84852 36.1337 9.74092 36.3679 9.63445 36.6026L9.62637 36.6203C9.59393 36.6912 9.55765 36.7704 9.56587 36.8405C9.59377 37.0826 9.4659 37.1241 9.27024 37.1059C9.24945 37.1038 9.22842 37.1034 9.20727 37.1037C9.20119 37.1038 9.19511 37.104 9.18902 37.1042C9.17748 37.1046 9.16593 37.1052 9.15438 37.1058L9.14934 37.1061C9.13815 37.1067 9.12679 37.1073 9.11565 37.1078C8.55231 37.133 7.98858 37.1586 7.42523 37.1841L7.42639 37.2314C16.3717 37.5917 25.3167 37.5952 34.2624 37.2074C33.9026 37.1769 33.5425 37.1577 33.1826 37.1384L33.178 37.1382C32.967 37.1269 32.7561 37.1156 32.5453 37.102C32.4523 37.0958 32.3504 37.0319 32.2756 36.9679C32.2107 36.9125 32.1513 36.8484 32.0921 36.7845C31.9957 36.6805 31.8998 36.577 31.782 36.5127C31.3883 36.298 30.973 36.1194 30.555 35.9559C30.3918 35.892 30.2574 35.8234 30.1528 35.6824C29.981 35.4507 29.8074 35.2205 29.6338 34.9902L29.6328 34.9889C29.3991 34.6789 29.1654 34.3689 28.9362 34.0555C28.6701 33.6913 28.4099 33.3227 28.1467 32.95L28.1112 32.8998C28.0589 32.8257 28.0065 32.7515 27.9539 32.6772C27.9013 32.6029 27.8486 32.5284 27.7956 32.4538C27.8893 32.3771 27.9734 32.3089 28.0567 32.2403C29.4538 31.0881 30.0892 29.6259 29.8421 27.8142C29.8165 27.6278 29.8471 27.4829 29.9393 27.3244C30.4069 26.5193 30.4747 25.6758 30.1102 24.8184C29.9254 24.3841 29.7094 23.9629 29.4939 23.5423L29.4085 23.3756C29.226 23.0187 29.2772 22.7065 29.5379 22.4147C29.868 22.0459 30.2907 21.8119 30.7277 21.6007C31.1908 21.3771 31.6243 21.4105 32.0226 21.7584C32.0672 21.7971 32.1671 21.8103 32.2245 21.7894C32.496 21.6906 32.6627 21.3868 32.6131 21.0846C32.4585 20.1404 31.918 19.5007 31.0551 19.1098C30.9424 19.0587 30.8304 18.961 30.7653 18.856C30.3492 18.1834 29.8033 17.9134 29.0307 18.0699C28.6504 18.1469 28.2779 18.2661 27.9068 18.3848C27.8541 18.4017 27.8014 18.4185 27.7487 18.4353C27.1636 18.6208 26.6135 18.5426 26.1307 18.1834C25.8229 17.9545 25.55 17.6755 25.2799 17.3995L25.214 17.3322C25.1183 17.2346 25.0486 17.2113 24.9339 17.2652C24.634 17.4058 24.4883 17.6487 24.4759 17.9711C24.4484 18.6844 24.6015 19.3419 25.0931 19.8897C25.1001 19.8975 25.1063 19.9059 25.1125 19.915C25.1186 19.9241 25.1245 19.9339 25.131 19.9444L25.1311 19.9447L25.1322 19.9465C25.135 19.9511 25.1379 19.9558 25.1409 19.9606C25.1442 19.9659 25.1476 19.9713 25.1512 19.9769C25.0816 20.0165 25.0127 20.0557 24.944 20.0947L24.7468 20.2067C24.6428 20.2657 24.5382 20.3251 24.431 20.386C23.0858 18.5011 22.3167 16.4159 22.1524 14.118C21.9893 11.8328 22.3504 9.62863 23.2977 7.5C21.2497 7.74448 19.4822 8.52595 17.92 9.89092V7.90875C16.4918 8.71619 15.3659 9.78709 14.4647 11.0897C12.6248 13.7491 12.3555 16.6298 13.3125 19.6786C12.5182 19.0292 11.9056 18.2501 11.4876 17.2609C10.9243 18.4573 10.5573 19.6383 10.605 20.9188C10.6825 23.0083 11.7278 24.565 13.3675 25.8366C13.3491 25.8378 13.3321 25.8389 13.3163 25.84L13.2838 25.8424L13.2673 25.8436C13.2136 25.8476 13.1739 25.8506 13.1342 25.8506C12.6112 25.8513 12.1098 25.7367 11.624 25.5522C10.5159 25.1319 9.58641 24.4527 8.79098 23.5821C8.75781 23.5456 8.72008 23.5133 8.6744 23.4741L8.67348 23.4733C8.64897 23.4523 8.62218 23.4293 8.5926 23.4027C8.56315 26.2493 9.57594 28.4348 12.2547 29.6708C11.5484 30.4236 10.7034 30.9056 9.74487 31.2558C9.76252 31.2876 9.78554 31.3008 9.80731 31.3133L9.81312 31.3167C9.818 31.3195 9.82278 31.3224 9.82739 31.3256C10.4911 31.782 11.2191 32.0563 12.03 32.0764C13.4434 32.1113 14.7084 31.653 15.8576 30.8653C16.2268 30.6123 16.5608 30.2996 16.8781 29.9819C17.1373 29.7223 17.0637 29.3608 16.7503 29.1784C16.1149 30.0644 15.2365 30.6371 14.247 31.0493C13.2451 31.4666 12.2144 31.6456 11.0831 31.3221ZM30.3156 21.0473C30.3223 21.0489 30.329 21.0505 30.3356 21.052L30.3452 21.0541L30.35 21.0552C30.2353 21.1365 30.1199 21.2143 30.0055 21.2914C29.7551 21.4601 29.5096 21.6257 29.2865 21.8177C28.7351 22.2934 28.4713 22.9172 28.894 23.7003C29.0869 24.0575 29.2717 24.4197 29.4457 24.7867C29.6971 25.3175 29.8347 25.8669 29.6584 26.4538C29.641 26.5119 29.6181 26.5681 29.5887 26.651C29.4023 26.25 29.2307 25.8804 29.0582 25.5096C28.7603 25.6673 28.6642 25.9753 28.7746 26.2888C28.8142 26.4011 28.8559 26.513 28.8976 26.625C29.0136 26.9364 29.1298 27.2482 29.2004 27.5697C29.5844 29.3159 28.9401 30.8126 27.5127 31.8974C27.5001 31.9071 27.4853 31.9141 27.4661 31.9232C27.459 31.9266 27.4513 31.9302 27.4429 31.9344C27.4386 31.9365 27.4341 31.9388 27.4294 31.9412C27.4043 31.9097 27.3795 31.8787 27.3548 31.8478C27.3321 31.8196 27.3096 31.7915 27.2872 31.7634C27.1706 31.6172 27.0542 31.4709 26.9378 31.3245C26.8318 31.1913 26.7259 31.0581 26.6201 30.9248C26.0961 30.2656 25.5722 29.6063 25.042 28.9521C24.6576 28.4778 24.3074 27.9881 24.111 27.4031C23.8614 26.6596 23.9296 25.9556 24.3678 25.2965C24.4841 25.1218 24.6053 24.9501 24.7375 24.7584C21.5534 24.8816 18.9451 23.7991 17.092 21.1784C15.9304 19.536 15.4938 17.66 15.6581 15.6728C16.0029 11.5019 19.457 8.84366 22.3055 8.30473C22.2978 8.33118 22.2905 8.35653 22.2834 8.3811C22.2667 8.4393 22.2512 8.49309 22.2346 8.54649C21.1571 12.0122 21.2322 15.4182 22.7716 18.7452C23.1931 19.6561 23.7293 20.4988 24.3492 21.2876C24.6038 21.6115 24.9471 21.6635 25.2249 21.4159L25.0573 21.2036C24.9747 21.0989 24.8864 20.9872 24.7851 20.8587C24.8557 20.8248 24.9254 20.7913 24.9943 20.7581L24.9975 20.7565C25.243 20.6383 25.4789 20.5248 25.7161 20.4147C25.7433 20.4023 25.7921 20.4213 25.825 20.4376C26.5038 20.7731 27.2353 20.813 27.9738 20.8471C28.4972 20.8713 29.0199 20.9162 29.5424 20.9611L29.8162 20.9845C29.9214 20.9934 30.0266 21.0022 30.1319 21.0106C30.1618 21.0131 30.1915 21.0183 30.2207 21.0246C30.2422 21.0293 30.2634 21.0345 30.2844 21.0397L30.2852 21.0399L30.3031 21.0443L30.3156 21.0473ZM31.9414 20.8688L31.9528 20.907L31.9579 20.9238L31.965 20.9467L31.9707 20.9649C30.7057 20.3585 29.3973 20.2733 28.0772 20.2299C27.5774 20.2133 27.0687 20.1815 26.584 20.0703C25.7665 19.8824 25.2322 19.3737 25.1028 18.5093C25.0923 18.4392 25.0894 18.3681 25.0859 18.2807C25.0841 18.2358 25.0821 18.1863 25.0788 18.1307L25.1214 18.1667L25.1231 18.168C25.2252 18.2541 25.3004 18.3174 25.3752 18.381C25.8517 18.7859 26.3775 19.1129 27.018 19.1179C27.3035 19.1203 27.5906 19.0589 27.8762 18.9978C27.963 18.9792 28.0497 18.9607 28.1361 18.944C28.2355 18.9248 28.3334 18.8952 28.431 18.8656L28.4313 18.8655C28.5626 18.8257 28.6936 18.7859 28.8277 18.7719C29.3949 18.7127 29.8696 18.9285 30.288 19.3062C30.4461 19.4488 30.6328 19.572 30.8262 19.6615C31.3159 19.8886 31.6855 20.2245 31.894 20.7266C31.9114 20.7684 31.9244 20.812 31.9411 20.868L31.9414 20.8688ZM17.707 36.9258L17.7069 36.9265C17.6478 36.9265 17.5887 36.9264 17.5297 36.9262C17.4654 36.926 17.4012 36.9258 17.3369 36.9255H17.3339C17.0595 36.9245 16.7852 36.9234 16.5108 36.9277C15.2667 36.9466 14.0227 36.9687 12.7786 36.9931C12.6565 36.9955 12.5662 36.9761 12.4779 36.8719C12.4316 36.8172 12.3655 36.78 12.2988 36.7425C12.2807 36.7323 12.2626 36.7221 12.2448 36.7116C12.2344 36.7054 12.2242 36.6991 12.2141 36.6926C12.2082 36.6888 12.2023 36.6849 12.1964 36.6808L12.1882 36.6751L12.183 36.6713L12.1759 36.666C12.1712 36.6625 12.1666 36.6589 12.1621 36.6553C12.097 36.6022 12.0351 36.5282 12.0068 36.4507C11.9727 36.3577 12.0161 36.2926 12.1346 36.2965C13.8808 36.3511 15.4988 35.8885 17.0323 35.0842C17.0366 35.0819 17.0412 35.0801 17.0468 35.0784C17.0542 35.0761 17.0634 35.0738 17.0764 35.0706C17.0909 35.0671 17.1102 35.0624 17.1369 35.0551C17.1369 35.09 17.1371 35.1247 17.1375 35.1591C17.1378 35.1997 17.1384 35.2399 17.1389 35.2799L17.1389 35.2817C17.1412 35.4585 17.1435 35.6304 17.1323 35.8013C17.1242 35.9273 17.0808 36.0547 17.0308 36.1721C16.98 36.2919 17.0118 36.3596 17.1118 36.429C17.2549 36.5285 17.3951 36.6323 17.5353 36.7362C17.5965 36.7815 17.6578 36.8269 17.7193 36.8719C17.7154 36.8898 17.7112 36.9078 17.707 36.9258ZM20.0029 36.9014L19.9982 36.9133C19.9616 36.9133 19.925 36.9133 19.8883 36.9134L19.7153 36.9138C19.4426 36.9144 19.1697 36.9151 18.8971 36.9102C18.832 36.909 18.7596 36.8769 18.7049 36.8381C18.4051 36.6258 18.1059 36.412 17.8165 36.1857C17.7615 36.1431 17.729 36.0427 17.7259 35.9676C17.7115 35.596 17.7069 35.224 17.7084 34.8525C17.7088 34.7804 17.7301 34.6812 17.7797 34.6405C18.0916 34.3852 18.4096 34.1371 18.7274 33.8891C18.8056 33.8281 18.8837 33.7671 18.9618 33.706C18.9758 33.6948 18.9959 33.6917 19.0416 33.6731C19.0448 33.7035 19.0485 33.7335 19.0524 33.7632L19.0582 33.8061L19.0584 33.8074L19.0586 33.8086L19.0588 33.8099L19.0588 33.8105C19.0721 33.9071 19.0848 34.0005 19.0819 34.0935L19.0803 34.1442L19.0803 34.1449C19.0646 34.6485 19.0488 35.1528 19.0106 35.6549C18.9847 35.9978 19.1272 36.2411 19.3872 36.4309C19.5303 36.5354 19.6785 36.6333 19.8266 36.7312L19.8269 36.7314C19.8913 36.7739 19.9556 36.8164 20.0195 36.8595C20.0138 36.8733 20.0083 36.8874 20.0029 36.9014ZM8.41671 30.3643C8.39539 30.3597 8.37448 30.355 8.35355 30.3504C8.29621 29.916 8.23925 29.4817 8.1823 29.047C8.19771 29.0413 8.21287 29.0353 8.22818 29.0293L8.24119 29.0241L8.97463 29.8653C8.78246 30.0369 8.59958 30.2008 8.41671 30.3643Z" fill="#B6C1E1"/>
<path d="M54.9102 23.6642V28.2803C54.9842 28.2583 55.0547 28.2369 55.1227 28.2163C55.2827 28.1679 55.4291 28.1236 55.577 28.085C55.6905 28.0555 55.7292 27.9962 55.7292 27.88C55.727 26.3847 55.7271 24.8895 55.7272 23.3942L55.7273 22.3857L55.7272 22.3814L55.7271 22.379C55.7269 22.3747 55.7268 22.3704 55.7273 22.3663C55.7381 22.2516 55.6905 22.2036 55.5715 22.2074C55.372 22.2136 55.1713 22.2171 54.9718 22.2059C54.8427 22.1989 54.7761 22.2516 54.7129 22.3577C54.2532 23.1302 53.79 23.9003 53.3269 24.6703L53.0117 25.1946C52.9881 25.2339 52.9625 25.2717 52.9325 25.3159L52.9161 25.34C52.9065 25.3543 52.8964 25.3693 52.8858 25.3853C52.8699 25.3599 52.8552 25.3365 52.8413 25.3144L52.8391 25.3109L52.8376 25.3085L52.8357 25.3055L52.8344 25.3035C52.798 25.2455 52.7674 25.1968 52.7378 25.1474C52.6112 24.9377 52.4847 24.728 52.3582 24.5183L52.3511 24.5065L52.3499 24.5045C51.9197 23.7911 51.4895 23.0778 51.0562 22.3663C51.0175 22.3027 50.9431 22.2214 50.8811 22.2175C50.6847 22.2056 50.4875 22.2074 50.2854 22.2092H50.2851C50.2494 22.2095 50.2134 22.2098 50.1774 22.2101L50.1264 22.2104L50.0884 22.2105L50.0593 22.2105V28.2748C50.1147 28.2584 50.1674 28.2432 50.2183 28.2285L50.2213 28.2276C50.2698 28.2136 50.3166 28.2001 50.3625 28.1865C50.411 28.1722 50.4584 28.1578 50.5057 28.1427C50.5719 28.1216 50.6261 28.1065 50.6705 28.0942C50.7645 28.068 50.8143 28.0542 50.8402 28.0215C50.8695 27.9846 50.8686 27.9238 50.8668 27.7946L50.8667 27.794C50.8662 27.7532 50.8655 27.7053 50.8656 27.6495C50.8673 26.8591 50.8672 26.0688 50.867 25.2784C50.867 24.8177 50.8669 24.357 50.8672 23.8963C50.8672 23.8485 50.8705 23.8009 50.8739 23.7532L50.874 23.7523L50.876 23.7237L50.8771 23.7075L50.8775 23.6999L50.8784 23.6851C50.966 23.7522 51.0105 23.8223 51.0535 23.8932L51.6968 24.9603C52.0417 25.5325 52.3866 26.1046 52.7316 26.6766C52.8722 26.9102 52.9063 26.9102 53.0489 26.6731L54.1644 24.819C54.3642 24.4867 54.5641 24.1545 54.7641 23.8223C54.7874 23.7833 54.8128 23.7455 54.8382 23.7078C54.8504 23.6897 54.8626 23.6716 54.8745 23.6534C54.8865 23.6569 54.8981 23.6607 54.9102 23.6642Z" fill="#B6C1E1"/>
<path d="M41.7516 14.6287L41.7505 14.6293C41.6123 14.7105 41.483 14.7866 41.3534 14.8618C41.3239 14.879 41.2929 14.8936 41.26 14.9092C41.2445 14.9165 41.2287 14.9239 41.2124 14.932C41.1951 14.9089 41.1783 14.8857 41.1618 14.8627L41.1471 14.842L41.1335 14.8229C41.079 14.7461 41.0259 14.6713 40.9641 14.605C40.2984 13.8901 39.4755 13.7026 38.56 13.9599C37.6479 14.216 37.1024 14.8491 36.9447 15.7754C36.7126 17.1389 37.4987 18.2729 38.8257 18.5124C39.4588 18.6267 40.0745 18.5534 40.634 18.2043C41.0226 17.9618 41.274 17.6119 41.4003 17.1726C41.4105 17.1373 41.4162 17.1008 41.4232 17.0558L41.4233 17.0553C41.4269 17.0322 41.4309 17.0068 41.436 16.9781H39.214C39.2347 16.9375 39.2548 16.898 39.2743 16.8592L39.3138 16.7812C39.405 16.6005 39.4873 16.4374 39.5774 16.2787C39.5975 16.2431 39.6785 16.2272 39.7316 16.2272C40.1432 16.2256 40.5548 16.2255 40.9663 16.2253C41.3485 16.2252 41.7306 16.225 42.1128 16.2237C42.2388 16.2233 42.276 16.2733 42.281 16.3965C42.3453 18.0408 41.2105 19.2694 39.5627 19.3492C38.6549 19.393 37.8242 19.1939 37.1431 18.572C36.1687 17.6821 35.8746 16.5647 36.2252 15.3144C36.5673 14.0939 37.4123 13.3454 38.6599 13.1261C39.9249 12.9037 40.9923 13.2849 41.782 14.3345C41.8084 14.3699 41.8312 14.4086 41.8581 14.4541C41.873 14.4794 41.8892 14.5068 41.9079 14.5368L41.7516 14.6287Z" fill="#B6C1E1"/>
<path d="M41.959 23.5375C41.8667 23.4428 41.7806 23.3484 41.6969 23.2566C41.5239 23.067 41.3608 22.8882 41.1737 22.7402C40.1314 21.9184 38.5968 21.8793 37.4743 22.6193C36.3763 23.3434 35.8564 24.7204 36.1869 26.0307C36.5762 27.5763 38.0245 28.5576 39.6417 28.3732C41.3236 28.1811 42.3007 27.1028 42.2798 25.4658C42.2783 25.3415 42.2701 25.2617 42.1074 25.2632C41.6219 25.2675 41.1362 25.2674 40.6505 25.2673C40.3425 25.2673 40.0345 25.2672 39.7266 25.2682C39.6739 25.2682 39.5913 25.2802 39.5727 25.314C39.4841 25.475 39.4032 25.6404 39.3153 25.8204C39.2856 25.8811 39.2551 25.9435 39.2233 26.0079H41.4391C41.3717 26.4356 41.1896 26.7777 40.8854 27.0424C40.2547 27.5914 39.5061 27.6878 38.7211 27.5236C37.4631 27.2597 36.7421 26.147 36.9385 24.8169C37.0729 23.9064 37.7711 23.1586 38.6785 22.9533C39.656 22.732 40.5948 23.0749 41.121 23.8444C41.1303 23.858 41.1401 23.8713 41.1504 23.8847C41.162 23.8998 41.1743 23.9151 41.1873 23.9314L41.1881 23.9323C41.1986 23.9455 41.2097 23.9593 41.2213 23.9742L41.959 23.5375Z" fill="#B6C1E1"/>
<path d="M71.9748 26.0036H69.7528C69.7849 25.9403 69.8156 25.8788 69.8456 25.8188L69.8467 25.8166C69.9359 25.6382 70.0184 25.4732 70.1089 25.3124C70.1279 25.2787 70.2112 25.2682 70.265 25.2682C70.5816 25.2672 70.8982 25.2671 71.2148 25.267H71.2328C71.6974 25.2669 72.162 25.2668 72.6265 25.2636C72.7652 25.2628 72.797 25.314 72.8001 25.4438C72.838 27.1032 71.8613 28.1884 70.155 28.3748C68.5126 28.5542 67.0589 27.536 66.7009 25.9564C66.3867 24.5701 67.0047 23.1613 68.2216 22.4895C69.451 21.8107 71.0376 22.0191 71.9984 22.9936C72.1071 23.1038 72.2031 23.2266 72.3064 23.3587C72.3563 23.4224 72.4079 23.4884 72.4634 23.5561C72.4395 23.5701 72.416 23.5839 72.3927 23.5975L72.3001 23.652L72.2995 23.6524C72.1267 23.7542 71.9674 23.8481 71.8036 23.9331C71.7764 23.9471 71.6889 23.8948 71.6618 23.8525C70.9128 22.6906 69.1317 22.5767 68.1565 23.5151C67.4541 24.1912 67.2809 25.0385 67.5424 25.954C67.8001 26.856 68.4394 27.3814 69.3572 27.5453C70.0194 27.6634 70.6594 27.5821 71.2294 27.1927C71.6366 26.9141 71.8799 26.5244 71.9748 26.0036Z" fill="#B6C1E1"/>
<path d="M60.3739 32.8982C60.384 32.8949 60.3941 32.8918 60.4042 32.8888C60.4109 32.8868 60.4175 32.8849 60.4243 32.8831C60.4371 32.9002 60.45 32.9172 60.463 32.9342C60.4921 32.9722 60.5212 33.0103 60.5483 33.0497C60.7661 33.3659 60.9844 33.6819 61.2026 33.9978C61.882 34.9814 62.5614 35.9651 63.2298 36.9563C63.4022 37.2116 63.5754 37.3492 63.8958 37.3085C63.906 37.3072 63.9158 37.306 63.9252 37.3049L63.958 37.3011C64.146 37.2793 64.1492 37.279 64.1492 37.0497V31.5956C64.1492 31.5767 64.1487 31.5579 64.1482 31.539C64.1479 31.5283 64.1476 31.5176 64.1475 31.507C64.147 31.4785 64.1471 31.45 64.1496 31.4216C64.1612 31.2841 64.1116 31.2178 63.9632 31.2287C63.8284 31.2384 63.6908 31.243 63.5572 31.2275C63.3572 31.2047 63.3088 31.2837 63.31 31.4767C63.3161 32.4709 63.3154 33.4654 63.3147 34.4598L63.3144 35.0071C63.3143 35.1454 63.3142 35.2837 63.3142 35.422V35.6367C63.229 35.5902 63.1899 35.5402 63.1538 35.4879C63.0506 35.3383 62.9472 35.1889 62.8438 35.0394C62.7237 34.866 62.6036 34.6926 62.4835 34.5192L62.4822 34.5174L62.4815 34.5163L62.4786 34.5121C61.8043 33.5388 61.1301 32.5656 60.4688 31.5836C60.2902 31.3186 60.1081 31.1919 59.7842 31.2217C59.6002 31.2384 59.5483 31.281 59.549 31.4654C59.5541 32.9132 59.5537 34.3611 59.5532 35.809C59.5531 36.2307 59.5529 36.6524 59.5529 37.0741V37.3038C59.6232 37.2833 59.69 37.2625 59.7546 37.2425C59.8956 37.1987 60.026 37.1582 60.1589 37.1303C60.3305 37.0942 60.379 37.0098 60.3778 36.8374C60.3722 35.896 60.3729 34.9544 60.3735 34.0129L60.3739 32.8982Z" fill="#B6C1E1"/>
<path d="M60.6033 28.2694V22.4713C60.6033 22.2235 60.6059 22.2232 60.8082 22.2026C60.8248 22.2009 60.8427 22.1991 60.8621 22.197C61.1647 22.1636 61.3344 22.2861 61.501 22.5321C62.1762 23.5308 62.8624 24.5219 63.5487 25.5131C63.769 25.8312 63.9893 26.1494 64.2092 26.4678C64.2445 26.5189 64.2832 26.5681 64.3681 26.6111V26.3938C64.3681 26.0729 64.3683 25.7521 64.3685 25.4313C64.3693 24.4368 64.37 23.4423 64.3638 22.448C64.3627 22.2531 64.4154 22.1768 64.6141 22.2001C64.7416 22.2148 64.8725 22.2117 65.0008 22.2008C65.1596 22.1873 65.1968 22.2586 65.1964 22.4035C65.1933 24.2927 65.1933 26.1818 65.1964 28.0706C65.1968 28.2163 65.1531 28.2613 65.0008 28.2791C64.6618 28.3186 64.4576 28.1997 64.2631 27.9075C63.62 26.9435 62.9604 25.9903 62.3009 25.037C62.0653 24.6965 61.8296 24.3559 61.5948 24.0149C61.5525 23.9536 61.508 23.894 61.42 23.8471V24.0489C61.42 24.2026 61.4199 24.3564 61.4198 24.5101C61.4197 24.6693 61.4195 24.8286 61.4193 24.9879V24.9895C61.4182 25.9074 61.4171 26.8255 61.4254 27.7432C61.4274 27.9598 61.3789 28.0768 61.1527 28.114C61.0334 28.1334 60.9171 28.1707 60.7893 28.2116L60.7883 28.2119C60.7295 28.2308 60.6683 28.2504 60.6033 28.2694Z" fill="#B6C1E1"/>
<path d="M68.5331 15.0622V14.832C68.5471 14.8262 68.561 14.8204 68.5754 14.8142C68.5823 14.8231 68.5894 14.8319 68.5966 14.8407L68.6101 14.8571C68.6334 14.8856 68.6567 14.9142 68.6776 14.9444C68.898 15.264 69.1187 15.5833 69.3394 15.9026L69.3402 15.9038L69.3429 15.9077C70.0341 16.9078 70.7253 17.9079 71.4049 18.9157C71.568 19.1578 71.7323 19.2745 72.0279 19.2427C72.0486 19.2405 72.0676 19.2386 72.0852 19.2369C72.2921 19.2165 72.2944 19.2162 72.2944 18.9781V13.1672C72.2294 13.1672 72.1665 13.1683 72.1051 13.1693C71.9702 13.1717 71.8428 13.1739 71.7164 13.1641C71.532 13.1497 71.4746 13.2098 71.4758 13.3996C71.4819 14.4041 71.4812 15.4086 71.4805 16.4132L71.4802 16.8137C71.4801 17.0043 71.48 17.1948 71.48 17.3853V17.5887C71.3998 17.5472 71.3595 17.493 71.3212 17.4376C71.0879 17.0998 70.8541 16.7623 70.6203 16.4249C69.9469 15.453 69.2735 14.4811 68.6129 13.5004C68.4401 13.2435 68.2635 13.1304 67.9562 13.1594C67.7799 13.1761 67.7121 13.2071 67.7129 13.3992C67.7179 14.7498 67.7177 16.1006 67.7175 17.4513L67.7174 18.2315C67.7174 18.4911 67.7174 18.7507 67.7176 19.0102C67.7176 19.0553 67.7212 19.1003 67.7254 19.1515C67.7274 19.1765 67.7296 19.2029 67.7315 19.2315C67.7693 19.2204 67.8062 19.2093 67.8424 19.1983C67.869 19.1901 67.8953 19.1821 67.9213 19.174L67.922 19.1738C68.063 19.1304 68.1954 19.0897 68.3305 19.0606C68.4955 19.0249 68.5374 18.9389 68.5366 18.777C68.5319 17.8274 68.5323 16.8777 68.5328 15.9281C68.533 15.6395 68.5331 15.3508 68.5331 15.0622Z" fill="#B6C1E1"/>
<path fill-rule="evenodd" clip-rule="evenodd" d="M48.2177 19.2367L48.2137 19.2368C48.0086 19.2387 47.823 19.2404 47.6382 19.2284C47.5758 19.2241 47.5014 19.1427 47.4635 19.0784C47.0776 18.4306 46.6944 17.7809 46.3197 17.1265C46.2399 16.987 46.1516 16.9235 45.9857 16.93C45.6638 16.9432 45.3406 16.9413 45.0183 16.9308C44.8451 16.925 44.7808 16.9781 44.7835 17.1594C44.7881 17.4654 44.7876 17.7717 44.787 18.0779V18.0788C44.7864 18.3848 44.7858 18.6908 44.7905 18.9967C44.7932 19.1761 44.7498 19.2613 44.5553 19.2392C44.4907 19.2318 44.4187 19.2344 44.3475 19.237H44.3461C44.2093 19.2419 44.0758 19.2467 44.0043 19.1811C43.9327 19.1155 43.9437 18.9551 43.9543 18.8009C43.9564 18.771 43.9584 18.7414 43.9598 18.7127C43.961 18.6893 43.9617 18.6666 43.9617 18.6449C43.96 17.1255 43.9604 15.6064 43.9608 14.0872L43.9609 13.4229C43.9609 13.1679 43.9621 13.1656 44.2174 13.1672C44.4386 13.1685 44.6598 13.1682 44.8811 13.1679C45.4276 13.1672 45.974 13.1664 46.5192 13.1904C47.4007 13.2288 48.0845 13.8514 48.255 14.7142C48.417 15.5329 47.9912 16.3644 47.2147 16.7472L47.1975 16.7556C47.1847 16.7618 47.1716 16.7681 47.1574 16.7749L47.1161 16.7947C47.0956 16.8044 47.0727 16.8154 47.0462 16.8281C47.5119 17.6216 47.9729 18.4058 48.4607 19.2353C48.4167 19.2353 48.3738 19.2355 48.3317 19.2358C48.293 19.2361 48.255 19.2364 48.2177 19.2367ZM44.787 15.0509C44.787 15.1412 44.7874 15.2314 44.7877 15.3216C44.7887 15.5471 44.7896 15.7726 44.7847 15.9978C44.7816 16.1416 44.8377 16.1892 44.978 16.1873C45.2306 16.1842 45.4833 16.1843 45.736 16.1844H45.7391C45.9559 16.1845 46.1727 16.1846 46.3895 16.1827C46.4852 16.1819 46.5836 16.1691 46.675 16.1431C47.1853 15.999 47.5293 15.469 47.4642 14.9366C47.3949 14.3686 46.9664 13.9603 46.3867 13.9405C46.0943 13.9305 45.8016 13.9324 45.5089 13.9342C45.3245 13.9353 45.1402 13.9365 44.9559 13.9347C44.8312 13.9335 44.7831 13.9796 44.785 14.1044C44.7887 14.3325 44.7881 14.561 44.7874 14.7896L44.7871 14.917C44.787 14.9616 44.787 15.0063 44.787 15.0509Z" fill="#B6C1E1"/>
<path fill-rule="evenodd" clip-rule="evenodd" d="M52.4379 37.3091H52.439C52.5188 37.3083 52.6021 37.3074 52.6901 37.3074L52.618 37.1848C52.1552 36.3985 51.7153 35.6511 51.2678 34.8897C51.6533 34.7332 51.9571 34.5065 52.1744 34.1838C52.5835 33.5766 52.6386 32.9288 52.3069 32.2775C51.9605 31.5976 51.3767 31.2558 50.6169 31.2415C50.1054 31.2316 49.5936 31.234 49.0817 31.2363C48.8707 31.2373 48.6597 31.2383 48.4487 31.2384C48.1822 31.2384 48.1814 31.2392 48.1814 31.503V37.0361L48.1813 37.0407C48.1813 37.0433 48.1812 37.046 48.1811 37.0487L48.1806 37.0567L48.18 37.0643L48.1787 37.0786C48.1755 37.1125 48.1723 37.1463 48.1864 37.1694C48.2194 37.2233 48.2721 37.2953 48.3236 37.3015C48.4013 37.3112 48.4802 37.3095 48.5591 37.3078C48.629 37.3063 48.6989 37.3049 48.768 37.3112C48.9512 37.3283 49.0152 37.2667 49.0117 37.076C49.0037 36.6291 49.0052 36.1819 49.0067 35.7346C49.0072 35.5755 49.0077 35.4165 49.0078 35.2574C49.0078 34.9869 49.0082 34.9869 49.2875 34.9866C49.377 34.9866 49.4664 34.9873 49.5558 34.9881C49.7697 34.99 49.9836 34.9918 50.1973 34.9831C50.3604 34.9765 50.453 35.0319 50.5344 35.1741C50.9121 35.8347 51.2992 36.4898 51.6893 37.1431C51.73 37.2113 51.811 37.295 51.8788 37.3C52.057 37.3133 52.2365 37.3113 52.4379 37.3091ZM49.0087 33.4009C49.0082 33.3116 49.0078 33.2223 49.0078 33.133C49.0078 33.0428 49.0081 32.9526 49.0084 32.8625C49.0092 32.6369 49.01 32.4114 49.0059 32.1861C49.0036 32.0528 49.0528 32.0044 49.1864 32.0059C49.3865 32.008 49.5867 32.007 49.7869 32.006C50.0768 32.0046 50.3667 32.0032 50.6564 32.011C51.2531 32.0272 51.7021 32.5375 51.6917 33.1628C51.6816 33.758 51.2112 34.2411 50.627 34.2477C50.4015 34.2501 50.1761 34.2495 49.9507 34.249C49.6988 34.2483 49.447 34.2477 49.1953 34.2512C49.0516 34.2531 49.002 34.2024 49.0055 34.0609C49.0107 33.841 49.0097 33.6209 49.0087 33.4009Z" fill="#B6C1E1"/>
<path fill-rule="evenodd" clip-rule="evenodd" d="M76.0852 37.3039C76.0374 37.3039 75.9904 37.304 75.9442 37.3043L75.847 37.3049C75.6309 37.3063 75.4302 37.3076 75.2301 37.2973C75.1809 37.295 75.1244 37.2132 75.091 37.1562C74.6974 36.4906 74.3045 35.8242 73.9182 35.1539C73.8493 35.0338 73.771 34.9796 73.6284 34.9838C73.2867 34.9935 72.9446 34.9931 72.6029 34.9842C72.4521 34.9804 72.4006 35.028 72.4025 35.1818C72.4059 35.4896 72.4056 35.7975 72.4052 36.1054V36.1066C72.4048 36.4301 72.4044 36.7535 72.4084 37.0768C72.4103 37.245 72.3739 37.3314 72.186 37.3108C72.1212 37.3037 72.0491 37.3065 71.9778 37.3092H71.9774C71.8403 37.3145 71.7062 37.3197 71.6331 37.2543C71.5614 37.1901 71.5725 37.0294 71.5831 36.8751C71.5868 36.8209 71.5905 36.7674 71.5905 36.7192C71.589 35.365 71.5891 34.0108 71.5892 32.6565L71.5893 31.4976C71.5893 31.24 71.5901 31.2388 71.8404 31.2388L72.3213 31.2385C72.8705 31.238 73.4199 31.2376 73.969 31.2388C74.902 31.2411 75.659 31.8281 75.8632 32.7037C76.0624 33.5596 75.6439 34.4069 74.8179 34.8207C74.8013 34.8291 74.785 34.8381 74.7666 34.8483L74.7392 34.8637L74.7383 34.8642L74.7338 34.8667L74.7334 34.867L74.7275 34.8703C74.7112 34.8794 74.6929 34.8897 74.6718 34.9013L76.0852 37.3039ZM72.4056 33.1415C72.4056 33.2297 72.4062 33.3178 72.4067 33.4059C72.408 33.6209 72.4092 33.8359 72.4029 34.0505C72.3987 34.1989 72.4428 34.2547 72.599 34.2516C72.8687 34.2465 73.1385 34.2473 73.4082 34.2482C73.6094 34.2489 73.8105 34.2495 74.0116 34.2477C74.6083 34.2423 75.079 33.7599 75.0856 33.1543C75.0926 32.5247 74.6462 32.0261 74.043 32.0106C73.7532 32.0033 73.4633 32.0046 73.1734 32.006H73.1714C72.9717 32.0069 72.7719 32.0078 72.5722 32.0059C72.4475 32.0048 72.401 32.0485 72.4033 32.1745C72.4083 32.4163 72.4073 32.6581 72.4064 32.8999C72.4061 32.9804 72.4057 33.061 72.4056 33.1415Z" fill="#B6C1E1"/>
<path fill-rule="evenodd" clip-rule="evenodd" d="M48.406 28.2793L48.4762 28.2788C48.5032 28.2786 48.5303 28.2785 48.5577 28.2784C48.5783 28.2783 48.5991 28.2783 48.62 28.2783C48.6174 28.2685 48.6149 28.2593 48.6127 28.2507L48.6081 28.2326L48.6021 28.2086L48.6016 28.2067C48.5934 28.1736 48.5877 28.1506 48.5797 28.1288L48.083 26.7978C47.5319 25.3211 46.9808 23.8444 46.4328 22.3667C46.3856 22.2384 46.3178 22.2008 46.1907 22.207C46.0105 22.216 45.8284 22.221 45.6491 22.2059C45.4883 22.1923 45.4263 22.2628 45.374 22.4043C44.8701 23.7645 44.363 25.1237 43.8558 26.4829L43.8517 26.4939C43.6595 27.0091 43.4672 27.5244 43.2752 28.0396C43.2581 28.085 43.2449 28.1319 43.2294 28.1869C43.2213 28.2156 43.2125 28.2466 43.2023 28.2806C43.2791 28.2806 43.3528 28.2801 43.4245 28.2796C43.5868 28.2785 43.7383 28.2775 43.8897 28.2826C44.0105 28.2868 44.0749 28.2485 44.1155 28.128C44.1821 27.9313 44.2538 27.7363 44.3256 27.5412L44.3663 27.4303C44.4099 27.3114 44.4531 27.1925 44.4948 27.073C44.532 26.9653 44.5898 26.9234 44.706 26.9242C45.5061 26.9285 46.3065 26.9288 47.1066 26.9242C47.2302 26.9234 47.2891 26.966 47.329 27.083C47.4495 27.4368 47.5793 27.7878 47.7137 28.1365C47.7351 28.1923 47.7978 28.2694 47.8451 28.2721C48.0282 28.2821 48.2118 28.2807 48.4053 28.2793H48.406ZM46.9811 26.1427H44.8401C45.1915 25.1722 45.5382 24.2148 45.9055 23.2001C46.2083 24.0279 46.4974 24.8192 46.7886 25.6161L46.9811 26.1427Z" fill="#B6C1E1"/>
<path fill-rule="evenodd" clip-rule="evenodd" d="M46.787 37.3062C46.7142 37.3062 46.6431 37.3068 46.5731 37.3074H46.5723C46.3799 37.309 46.1966 37.3106 46.014 37.2992C45.9633 37.2961 45.8982 37.2097 45.8745 37.1485C45.7401 36.8002 45.613 36.4488 45.4902 36.0958C45.453 35.9892 45.3995 35.9447 45.2814 35.9451C44.4751 35.9497 43.6688 35.9497 42.8625 35.9451C42.7513 35.9443 42.7033 35.9885 42.6688 36.0869C42.6087 36.2589 42.5463 36.43 42.484 36.6012C42.4163 36.7871 42.3487 36.9731 42.2837 37.1601C42.2465 37.267 42.1911 37.3143 42.0745 37.3108C41.9189 37.3057 41.7631 37.3068 41.5959 37.3079C41.522 37.3084 41.4459 37.3089 41.3666 37.3089C41.3763 37.2778 41.3848 37.2493 41.3927 37.2228L41.3936 37.2195C41.41 37.1646 41.424 37.1174 41.441 37.0718C41.628 36.5705 41.8151 36.0693 42.0023 35.568C42.516 34.1923 43.0297 32.8165 43.5394 31.4395C43.596 31.2868 43.6715 31.2248 43.8331 31.2365C44.0063 31.2489 44.1818 31.2477 44.3554 31.2368C44.4972 31.2279 44.5588 31.2891 44.606 31.4166C45.1108 32.7768 45.6181 34.1362 46.1254 35.4956L46.1292 35.5056C46.3301 36.0442 46.5311 36.5828 46.732 37.1214C46.7456 37.1562 46.7555 37.1924 46.7675 37.2366C46.7733 37.2577 46.7796 37.2808 46.787 37.3062ZM45.1481 35.1733L44.0977 32.2992C44.09 32.2988 44.0821 32.2985 44.0743 32.2982L44.0644 32.2979L44.0508 32.2973L43.3158 34.3251C43.2139 34.6063 43.1114 34.8888 43.0082 35.1733H45.1481Z" fill="#B6C1E1"/>
<path d="M66.1292 33.8336C66.1291 33.9819 66.129 34.1303 66.129 34.2787L66.1292 35.0487C66.1294 35.7333 66.1297 36.418 66.1283 37.1028C66.1279 37.2237 66.1321 37.3124 66.2968 37.3116C67.3998 37.3066 68.5033 37.3077 69.6063 37.3104C69.7249 37.3108 69.7683 37.2632 69.764 37.15C69.7625 37.1085 69.7621 37.067 69.7621 37.0254C69.7622 36.9919 69.7625 36.9584 69.7629 36.9249C69.7633 36.8839 69.7638 36.843 69.7636 36.8021C69.7633 36.5336 69.7629 36.5328 69.5021 36.5328C69.324 36.5328 69.1458 36.5325 68.9676 36.5323C68.3587 36.5315 67.7498 36.5308 67.141 36.5356C66.9884 36.5371 66.9403 36.4883 66.9427 36.3368C66.948 36.0013 66.9471 35.6658 66.9461 35.3303L66.9456 35.1586C66.9454 35.0678 66.9453 34.977 66.9454 34.8862C66.9454 34.6332 66.9458 34.6328 67.1972 34.6328C67.3856 34.6328 67.5739 34.6325 67.7623 34.6322C68.2771 34.6313 68.792 34.6305 69.3069 34.6359C69.4611 34.6375 69.5153 34.5875 69.5029 34.4368C69.4928 34.3151 69.4924 34.1911 69.5029 34.0695C69.5169 33.9102 69.458 33.8575 69.296 33.8591C68.9631 33.8625 68.6302 33.8621 68.2973 33.8618C67.9205 33.8613 67.5437 33.8609 67.167 33.866C66.9849 33.8684 66.9376 33.8075 66.9415 33.6344C66.952 33.1768 66.9535 32.7188 66.9411 32.2613C66.9361 32.0726 66.9981 32.0199 67.1825 32.0222C67.5931 32.027 68.0037 32.0266 68.4144 32.0263C68.7715 32.026 69.1285 32.0257 69.4855 32.0288C69.6486 32.0303 69.7272 31.9904 69.7086 31.8134C69.6959 31.6925 69.6974 31.5681 69.7083 31.4465C69.7226 31.2861 69.6606 31.2353 69.5002 31.2361C68.4487 31.2415 67.3971 31.2419 66.3456 31.2357C66.1775 31.2345 66.124 31.2837 66.1255 31.455C66.131 32.1548 66.1303 32.8548 66.1295 33.5547L66.1292 33.8336Z" fill="#B6C1E1"/>
<path d="M80.6945 32.7936L80.6853 32.7777C80.6633 32.7398 80.6435 32.7056 80.6241 32.6712C80.2634 32.0292 79.5397 31.7557 78.8481 32.0044C78.5102 32.1257 78.2968 32.3562 78.258 32.7227C78.2189 33.0943 78.3793 33.3721 78.7109 33.5216C78.9417 33.6254 79.1804 33.712 79.4192 33.7987L79.42 33.799L79.4207 33.7992C79.5449 33.8443 79.6692 33.8894 79.7923 33.937C79.863 33.9644 79.9341 33.9911 80.0053 34.0178L80.0068 34.0184L80.0088 34.0191L80.0113 34.0201L80.0117 34.0203C80.2341 34.1039 80.4568 34.1876 80.6699 34.2911C81.2282 34.5623 81.5683 34.9935 81.5745 35.6402C81.5807 36.3132 81.2936 36.8219 80.7009 37.1435C79.8159 37.6235 78.1398 37.57 77.4087 36.4108C77.3472 36.3132 77.2958 36.2096 77.2413 36.0997C77.2145 36.0456 77.1868 35.9898 77.1569 35.9327L77.404 35.7904C77.5547 35.7036 77.7027 35.6183 77.8582 35.5286C77.8688 35.5494 77.8789 35.5686 77.8886 35.5869C77.9075 35.6227 77.9245 35.6549 77.9391 35.6882C78.1542 36.1803 78.5253 36.4805 79.0527 36.5786C79.4184 36.6468 79.7853 36.6448 80.1414 36.5216C80.5025 36.3969 80.7299 36.1512 80.7625 35.7614C80.7942 35.3814 80.6079 35.1059 80.2743 34.9583C80.0319 34.8511 79.7816 34.7618 79.5314 34.6726L79.5309 34.6724C79.387 34.6211 79.2431 34.5698 79.1007 34.515C79.0468 34.4943 78.9927 34.4738 78.9386 34.4533C78.7035 34.3643 78.4677 34.275 78.2429 34.1648C77.1007 33.6057 77.2863 32.1206 78.0445 31.5398C79.0825 30.7448 80.7896 31.147 81.3463 32.3318C81.3909 32.4263 81.3847 32.4813 81.2878 32.5329C81.161 32.6008 81.0362 32.673 80.9086 32.7468C80.849 32.7813 80.7888 32.8161 80.7276 32.851C80.7159 32.8307 80.705 32.8117 80.6945 32.7936Z" fill="#B6C1E1"/>
<path fill-rule="evenodd" clip-rule="evenodd" d="M36.7107 37.0753C36.7107 37.1434 36.7173 37.2116 36.7219 37.3066C36.79 37.287 36.8556 37.2673 36.9195 37.2482C37.0631 37.2053 37.1984 37.1648 37.3356 37.1326C37.479 37.0989 37.5325 37.0303 37.5297 36.8788C37.5252 36.6165 37.5257 36.3541 37.5263 36.0917V36.091C37.5268 35.8441 37.5273 35.5972 37.5235 35.3504C37.5212 35.1915 37.5716 35.1361 37.7332 35.1388C38.2237 35.1469 38.7142 35.1466 39.2047 35.1404C40.2163 35.128 41.033 34.3469 41.0857 33.3476C41.1438 32.2457 40.4445 31.3465 39.3949 31.2698C38.8778 31.2319 38.3578 31.2347 37.8377 31.2375H37.8353C37.5426 31.2391 37.2498 31.2406 36.9575 31.2349C36.7649 31.2314 36.7049 31.2849 36.7056 31.484C36.7115 32.8945 36.7112 34.3052 36.7108 35.7158C36.7107 36.1689 36.7106 36.6221 36.7107 37.0753ZM37.5272 33.3757C37.5269 33.317 37.5266 33.2583 37.5266 33.1996C37.5266 33.1048 37.527 33.01 37.5274 32.9152C37.5285 32.6745 37.5295 32.4339 37.5239 32.1934C37.5208 32.0485 37.5759 32.0032 37.7165 32.0052C37.9376 32.008 38.1589 32.0072 38.3801 32.0065C38.6364 32.0056 38.8927 32.0046 39.1489 32.0094C39.8164 32.0222 40.2849 32.5224 40.2802 33.2027C40.2756 33.8827 39.7998 34.3682 39.1291 34.3724C38.939 34.3737 38.749 34.3732 38.5589 34.3727C38.2844 34.372 38.01 34.3714 37.7355 34.3759C37.5774 34.3786 37.5185 34.3291 37.5235 34.1667C37.5309 33.9388 37.5294 33.7106 37.5279 33.4824L37.5272 33.3757Z" fill="#B6C1E1"/>
<path d="M53.4836 19.2322V13.1831C53.5077 13.1812 53.531 13.1791 53.5538 13.177C53.6038 13.1723 53.6512 13.1679 53.6986 13.1679C53.9997 13.1677 54.3008 13.1679 54.6019 13.168H54.6061C55.3164 13.1683 56.0267 13.1687 56.737 13.1641C56.9086 13.1629 56.9892 13.2063 56.9687 13.3903C56.9559 13.505 56.9586 13.6228 56.9679 13.7379C56.9803 13.889 56.9229 13.9394 56.7699 13.9382C56.229 13.9336 55.6882 13.9343 55.1473 13.935L54.8986 13.9353C54.787 13.9354 54.6754 13.9355 54.5638 13.9355C54.2875 13.9355 54.2875 13.9359 54.2871 14.2036C54.2871 14.248 54.2872 14.2925 54.2873 14.337L54.2876 14.4171L54.2885 14.6237C54.2903 14.9737 54.292 15.3237 54.2829 15.6732C54.2782 15.858 54.3437 15.899 54.5146 15.8971C54.8769 15.8932 55.2392 15.8934 55.6015 15.8937C55.9552 15.8939 56.3089 15.8942 56.6626 15.8905C56.8253 15.889 56.8706 15.944 56.8714 16.1017L56.8714 16.1165C56.8724 16.3915 56.8729 16.5301 56.8038 16.5999C56.7337 16.6708 56.5919 16.6708 56.3061 16.6708H54.5452C54.2875 16.6708 54.2871 16.6716 54.2871 16.9374C54.2871 17.1052 54.2867 17.273 54.2862 17.4409C54.285 17.892 54.2838 18.3431 54.2914 18.794C54.2941 18.9552 54.2403 19.025 54.0896 19.0594C53.9534 19.0915 53.8193 19.1319 53.6803 19.1738C53.6161 19.1932 53.5506 19.2129 53.4836 19.2322Z" fill="#B6C1E1"/>
<path d="M58.8102 19.2396C58.8832 19.2179 58.9528 19.1964 59.0201 19.1756C59.1714 19.1288 59.3113 19.0856 59.4533 19.0513C59.5897 19.018 59.6362 18.9537 59.6347 18.8115C59.6312 18.5095 59.6315 18.2076 59.6319 17.9056C59.6322 17.5695 59.6326 17.2335 59.6277 16.8975C59.625 16.7235 59.6715 16.665 59.8524 16.6673C60.214 16.6723 60.5756 16.6719 60.9372 16.6715H60.9394C61.2865 16.6711 61.6336 16.6707 61.9807 16.6751C62.1542 16.677 62.2143 16.6197 62.1957 16.4531C62.1893 16.3963 62.191 16.3385 62.1926 16.2807C62.1934 16.2544 62.1941 16.2282 62.1941 16.202C62.1941 15.8948 62.1941 15.8944 61.8958 15.8944C61.742 15.8943 61.5882 15.8941 61.4344 15.8938L61.4087 15.8938C60.881 15.8929 60.3534 15.8921 59.8257 15.8971C59.673 15.8987 59.6261 15.8498 59.6285 15.6983C59.6362 15.1765 59.6362 14.6542 59.6285 14.1323C59.6261 13.982 59.6703 13.9308 59.8245 13.9324C60.3047 13.9378 60.7852 13.9369 61.2657 13.9361H61.268C61.4446 13.9358 61.6212 13.9355 61.7978 13.9355C62.3043 13.9355 62.3043 13.9351 62.3142 13.4402L62.3146 13.4163C62.3185 13.2253 62.2705 13.1602 62.069 13.1621C61.0628 13.1722 60.0566 13.1722 59.0508 13.1621C58.8485 13.1602 58.8055 13.2276 58.8063 13.4171C58.8114 14.8526 58.8109 16.2884 58.8105 17.724L58.8102 19.2396Z" fill="#B6C1E1"/>
<path d="M55.4867 37.3116V37.0241C55.4867 36.6554 55.4865 36.2867 55.4863 35.918V35.9156C55.4856 34.6997 55.4849 33.4838 55.4917 32.2678C55.4929 32.064 55.4278 32.0172 55.2391 32.0222C54.9879 32.0288 54.7366 32.0278 54.4852 32.0268C54.2916 32.0261 54.0979 32.0253 53.9044 32.028C53.7594 32.03 53.6916 31.9935 53.7029 31.8335C53.712 31.7055 53.71 31.5768 53.7079 31.4418C53.7074 31.4086 53.7068 31.3747 53.7065 31.3407L53.7062 31.3163C53.7061 31.2966 53.706 31.2767 53.706 31.2566C53.7351 31.2543 53.7622 31.2517 53.7881 31.2491C53.8375 31.2442 53.8822 31.2398 53.9272 31.2396C54.2963 31.2393 54.6655 31.2395 55.0346 31.2396H55.0445C55.9813 31.2399 56.9181 31.2402 57.8551 31.2349C58.0423 31.2337 58.0969 31.2895 58.0942 31.4755L58.0939 31.4973C58.0898 31.7602 58.0878 31.8923 58.0207 31.9587C57.953 32.0257 57.8191 32.0257 57.5498 32.0257C57.4919 32.0257 57.434 32.0259 57.3762 32.0262C57.3344 32.0264 57.2927 32.0266 57.2509 32.0268L57.2413 32.0269C56.9959 32.0283 56.7505 32.0298 56.5053 32.023C56.3425 32.0183 56.2984 32.0768 56.2988 32.2345C56.3009 32.8951 56.3011 33.5558 56.3012 34.2164C56.3014 35.0897 56.3017 35.9629 56.3065 36.8362C56.3077 37.0198 56.2527 37.1028 56.0775 37.1411C55.9484 37.1688 55.822 37.2082 55.6838 37.2513L55.6835 37.2514C55.6208 37.271 55.5556 37.2913 55.4867 37.3116Z" fill="#B6C1E1"/>
<path d="M50.2333 19.2419C50.3107 19.2188 50.3831 19.1961 50.4522 19.1744C50.6019 19.1275 50.7361 19.0854 50.8726 19.0544C51.0221 19.0207 51.0628 18.9451 51.0624 18.7987C51.0582 16.9955 51.0578 15.1919 51.0624 13.3888C51.0628 13.2253 51.0221 13.147 50.8462 13.1648C50.7681 13.1727 50.689 13.1708 50.61 13.1689C50.5901 13.1684 50.5702 13.1679 50.5502 13.1676C50.5329 13.1673 50.5156 13.1671 50.4983 13.1672C50.2341 13.1679 50.2333 13.1683 50.2333 13.4337V19.2419Z" fill="#B6C1E1"/>
<path d="M57.8621 28.2326V22.4647C57.8621 22.2024 57.8629 22.2024 58.1287 22.202C58.4098 22.2014 58.5496 22.2011 58.6192 22.2709C58.6881 22.34 58.6881 22.4779 58.6881 22.7522C58.6881 23.2254 58.6882 23.6986 58.6883 24.1719C58.6884 25.3548 58.6886 26.5377 58.6878 27.7208C58.6877 27.7497 58.6879 27.7758 58.688 27.7995C58.6887 27.9251 58.689 27.9825 58.661 28.0168C58.6375 28.0457 58.5939 28.0581 58.5136 28.0811C58.478 28.0913 58.4351 28.1036 58.3836 28.1202C58.2693 28.157 58.1535 28.1884 58.0376 28.2198L58.0359 28.2203C58.0093 28.2275 57.9828 28.2346 57.9563 28.2419C57.9499 28.2435 57.943 28.2435 57.9337 28.2424C57.928 28.2418 57.9215 28.2407 57.9136 28.2395C57.9006 28.2375 57.8841 28.235 57.8621 28.2326Z" fill="#B6C1E1"/>
<path d="M64.2433 19.24C64.3132 19.2194 64.3783 19.1987 64.4402 19.179C64.569 19.1379 64.6844 19.1012 64.8024 19.0784C65.0019 19.0405 65.0659 18.949 65.0647 18.739C65.0573 17.3872 65.0581 16.0352 65.0588 14.6831C65.0591 14.2696 65.0593 13.8561 65.0593 13.4426C65.0593 13.4288 65.0607 13.4141 65.0622 13.3994C65.0655 13.3659 65.0688 13.3325 65.055 13.3094C65.0229 13.2551 64.9721 13.1815 64.921 13.1745C64.818 13.1608 64.713 13.1631 64.608 13.1654C64.5708 13.1662 64.5335 13.1671 64.4963 13.1672C64.2441 13.1679 64.2433 13.1683 64.2433 13.4256V19.24Z" fill="#B6C1E1"/>
</svg>
