<svg width="125" height="45" viewBox="0 0 125 45" fill="none" xmlns="http://www.w3.org/2000/svg">
<path d="M30.9467 20.4851L26.0773 15.6461L21.2078 20.4851L18.368 17.661L26.0773 10L33.7865 17.661L30.9467 20.4851Z" fill="#B6C1E1"/>
<path d="M16.341 19.6771L13.5003 22.5L16.341 25.3229L19.1816 22.5L16.341 19.6771Z" fill="#B6C1E1"/>
<path d="M32.9754 22.5006L35.8161 19.6777L38.6567 22.5006L35.8161 25.3235L32.9754 22.5006Z" fill="#B6C1E1"/>
<path d="M21.2078 24.5169L26.0773 29.3539L30.9467 24.5169L33.7865 27.339L26.0773 35L18.368 27.339L21.2078 24.5169Z" fill="#B6C1E1"/>
<path d="M23.2386 22.5006L26.0792 19.6777L28.9198 22.5006L26.0792 25.3235L23.2386 22.5006Z" fill="#B6C1E1"/>
<path fill-rule="evenodd" clip-rule="evenodd" d="M44.3396 22.5H48.9735C51.1707 22.5 52.6196 21.6155 52.6196 19.8465V19.8188C52.6196 18.5178 51.9231 17.8673 50.7955 17.439C51.492 17.0503 52.0768 16.4434 52.0768 15.3507V15.3229C52.0768 13.8117 50.8574 12.8201 48.8618 12.8201H44.3396V22.5ZM48.5504 14.6902C49.4465 14.6902 49.9474 15.0452 49.9474 15.6818L49.9454 15.7156C49.9454 16.4354 49.3467 16.7389 48.4008 16.7389H46.435V14.6902H48.5504ZM48.9037 18.5039C50.0033 18.5039 50.4902 18.9045 50.4902 19.555V19.5828C50.4902 20.3007 49.9195 20.6339 48.9735 20.6339H46.427V18.5039H48.9037Z" fill="#B6C1E1"/>
<path d="M54.9705 12.8201V22.5H57.1138V12.8201H54.9705Z" fill="#B6C1E1"/>
<path d="M62.093 16.3422L66.8108 22.5H68.6308V12.8201H66.5154V18.7796L61.9513 12.8201H59.9756V22.4901H62.093V16.3422Z" fill="#B6C1E1"/>
<path fill-rule="evenodd" clip-rule="evenodd" d="M77.3738 20.3185L78.2639 22.5H80.515L76.3401 12.7507H74.3544L70.1794 22.5H72.3627L73.2548 20.3185H77.3738ZM74.0191 18.4484L75.3143 15.309L76.6135 18.4484H74.0191Z" fill="#B6C1E1"/>
<path d="M84.1791 16.3422L88.8968 22.5H90.7188V12.8201H88.6034V18.7796L84.0394 12.8201H82.0636V22.4901H84.1791V16.3422Z" fill="#B6C1E1"/>
<path d="M95.8636 22.3069C96.4748 22.554 97.1297 22.6763 97.7895 22.6666C99.6694 22.6666 100.781 22.0022 101.789 20.9373L100.426 19.5689C99.6614 20.259 98.9789 20.7013 97.8653 20.7013C96.195 20.7013 95.0395 19.319 95.0395 17.6591V17.6313C95.0395 15.9734 96.2229 14.6169 97.8653 14.6169C98.8392 14.6169 99.6055 15.0313 100.356 15.7096L101.721 14.1469C100.815 13.2623 99.7153 12.6535 97.8793 12.6535C94.8878 12.6535 92.8003 14.9084 92.8003 17.6591V17.6868C92.7877 18.3424 92.9079 18.9938 93.1539 19.6022C93.3998 20.2107 93.7665 20.7636 94.232 21.2283C94.6976 21.693 95.2524 22.0598 95.8636 22.3069Z" fill="#B6C1E1"/>
<path d="M103.511 12.8201V22.5H110.927V20.6061H105.638V18.5733H110.228V16.6774H105.638V14.714H110.865V12.8201H103.511Z" fill="#B6C1E1"/>
<path d="M86.1807 25.3201H84.9693V32.166H89.8048V31.0713H86.1807V25.3201Z" fill="#B6C1E1"/>
<path fill-rule="evenodd" clip-rule="evenodd" d="M96.7617 32.172H98.0429L95.0075 25.2705H93.884L90.8505 32.172H92.0919L92.8003 30.518H96.0612L96.7617 32.172ZM93.2454 29.4511L94.4268 26.7103L95.6182 29.4511H93.2454Z" fill="#B6C1E1"/>
<path fill-rule="evenodd" clip-rule="evenodd" d="M103.707 28.6102C104.22 28.3445 104.693 27.9141 104.693 27.0732C104.693 25.9964 103.816 25.3201 102.425 25.3201H99.3321V32.172H102.525C104.062 32.172 105.076 31.5176 105.076 30.284C105.076 29.344 104.515 28.8839 103.707 28.6102ZM102.27 26.391C103.047 26.391 103.48 26.7136 103.481 27.2696C103.48 27.9048 102.957 28.2076 102.18 28.2116H100.526V26.391H102.27ZM102.445 29.2309C103.4 29.2309 103.863 29.5654 103.864 30.1591C103.863 30.7845 103.363 31.1051 102.535 31.109H100.526V29.2309H102.445Z" fill="#B6C1E1"/>
<path d="M111.5 30.2146C111.5 29.0703 110.741 28.5507 109.285 28.1977C107.963 27.8844 107.648 27.6464 107.648 27.1109C107.648 26.6508 108.063 26.2899 108.772 26.2899C109.456 26.3147 110.114 26.562 110.644 26.9939L111.294 26.0836C110.59 25.5101 109.702 25.205 108.792 25.2229C107.423 25.2229 106.437 26.0301 106.437 27.22C106.437 28.4813 107.265 28.9236 108.732 29.2746C110.013 29.5681 110.288 29.8338 110.288 30.3316C110.288 30.8611 109.815 31.2042 109.067 31.2042C108.211 31.2042 107.55 30.8809 106.89 30.3138L106.161 31.1745C106.948 31.8845 107.974 32.2758 109.037 32.2712C110.486 32.2712 111.5 31.5076 111.5 30.2146Z" fill="#B6C1E1"/>
<path d="M82.1016 28.1858H44.3396V29.3261H82.1016V28.1858Z" fill="#B6C1E1"/>
</svg>
